<?xml version="1.0" standalone="no"?>
<!DOCTYPE svg PUBLIC "-//W3C//DTD SVG 20010904//EN"
 "http://www.w3.org/TR/2001/REC-SVG-20010904/DTD/svg10.dtd">
<svg version="1.0" xmlns="http://www.w3.org/2000/svg"
 width="260.000000pt" height="260.000000pt" viewBox="0 0 260.000000 260.000000"
 preserveAspectRatio="xMidYMid meet">
<metadata>
Created by potrace 1.14, written by Peter Selinger 2001-2017
</metadata>
<g transform="translate(0.000000,260.000000) scale(0.100000,-0.100000)"
fill="#000000" stroke="none">
<path d="M1655 2581 c-34 -19 -172 -94 -285 -154 -41 -22 -97 -52 -125 -67
-27 -15 -84 -45 -125 -67 -41 -22 -115 -62 -165 -89 -49 -26 -117 -62 -150
-78 -33 -17 -62 -34 -65 -37 -3 -3 -36 -21 -75 -41 -38 -20 -85 -44 -103 -55
l-32 -18 2 -695 3 -695 27 -71 c14 -40 42 -96 61 -125 35 -55 89 -119 100
-119 3 0 6 345 6 768 0 422 0 775 1 784 0 17 30 36 195 123 50 26 113 60 140
75 69 38 163 89 270 145 50 26 104 55 120 65 17 10 75 41 130 70 55 29 102 57
105 61 6 9 5 227 -1 233 -2 2 -17 -4 -34 -13z"/>
<path d="M1705 2200 c-27 -6 -63 -24 -250 -125 -33 -17 -100 -54 -150 -80 -49
-26 -103 -55 -120 -65 -16 -10 -75 -41 -130 -70 -55 -30 -122 -66 -150 -81
l-50 -28 -3 -789 -2 -790 62 -32 c35 -17 109 -56 165 -86 l102 -54 43 23 c24
14 86 47 138 74 52 28 149 78 215 113 207 109 270 156 349 260 100 130 138
260 140 470 0 135 -1 149 -25 200 -31 67 -84 121 -147 151 -26 12 -48 23 -50
25 -2 1 14 21 37 44 122 126 181 277 185 476 4 146 -16 213 -79 279 -25 25
-67 56 -93 67 -48 22 -134 30 -187 18z"/>
</g>
</svg>
