<svg width="31" height="31" viewBox="0 0 31 31" fill="none" xmlns="http://www.w3.org/2000/svg">
<g clip-path="url(#clip0)">
<path d="M30.8884 24.3304L29.0879 19.0905C29.9558 17.3163 30.4145 15.3432 30.4175 13.3579C30.4229 9.90598 29.0873 6.64207 26.6568 4.16751C24.2259 1.69247 20.9865 0.299227 17.5353 0.244553C13.9567 0.188002 10.5929 1.54922 8.06408 4.07803C5.62561 6.51643 4.27311 9.73106 4.2303 13.1663C1.82695 14.9758 0.408397 17.7969 0.413059 20.8103C0.4153 22.2204 0.732687 23.6222 1.3341 24.8897L0.0939161 28.4988C-0.11927 29.1192 0.036457 29.7929 0.500368 30.2568C0.826837 30.5833 1.25727 30.7572 1.69992 30.7572C1.88617 30.7572 2.07459 30.7264 2.25835 30.6632L5.8675 29.4231C7.13505 30.0245 8.53677 30.3419 9.94691 30.3441C9.95199 30.3441 9.95684 30.3441 9.96192 30.3441C13.0202 30.344 15.8628 28.8889 17.6657 26.4266C19.5419 26.3772 21.3982 25.923 23.0764 25.1021L28.3164 26.9026C28.5347 26.9776 28.7586 27.0142 28.9799 27.0142C29.5059 27.0142 30.0174 26.8076 30.4055 26.4195C30.9567 25.8682 31.1417 25.0677 30.8884 24.3304ZM9.9618 28.4989C9.95787 28.4989 9.95369 28.4989 9.94975 28.4989C8.70164 28.497 7.46218 28.1893 6.36562 27.6091C6.14014 27.4899 5.87543 27.4693 5.63433 27.5521L1.93352 28.8238L3.20518 25.123C3.28801 24.8819 3.26743 24.6171 3.14815 24.3917C2.56799 23.2951 2.26029 22.0557 2.25835 20.8075C2.25526 18.7998 3.03626 16.8969 4.40202 15.472C4.84813 18.1915 6.14425 20.6976 8.15333 22.6709C10.1476 24.6297 12.6543 25.8768 15.3591 26.2845C13.9309 27.6922 12.0057 28.4989 9.9618 28.4989ZM29.1006 25.1147C29.0481 25.1672 28.9858 25.1815 28.9159 25.1574L23.3063 23.2298C23.2089 23.1963 23.1075 23.1798 23.0065 23.1798C22.8576 23.1798 22.7093 23.2158 22.5751 23.2869C20.9734 24.1342 19.1636 24.5835 17.341 24.5863C17.335 24.5863 17.3295 24.5863 17.3235 24.5863C11.2166 24.5863 6.17223 19.6255 6.07547 13.52C6.02673 10.4451 7.19638 7.55524 9.36887 5.38275C11.5414 3.21027 14.4317 2.04104 17.5061 2.08948C23.6175 2.18642 28.5818 7.24009 28.5723 13.355C28.5695 15.1776 28.1201 16.9876 27.2729 18.5891C27.1536 18.8145 27.133 19.0792 27.2159 19.3204L29.1434 24.9299C29.1674 25.0002 29.153 25.0623 29.1006 25.1147Z" fill="white"/>
<path d="M22.8198 8.44702H11.8269C11.3173 8.44702 10.9043 8.86013 10.9043 9.36964C10.9043 9.8792 11.3174 10.2923 11.8269 10.2923H22.8198C23.3294 10.2923 23.7424 9.87914 23.7424 9.36964C23.7424 8.86013 23.3294 8.44702 22.8198 8.44702Z" fill="white"/>
<path d="M22.8198 12.2416H11.8269C11.3173 12.2416 10.9043 12.6547 10.9043 13.1642C10.9043 13.6737 11.3174 14.0868 11.8269 14.0868H22.8198C23.3294 14.0868 23.7424 13.6737 23.7424 13.1642C23.7424 12.6547 23.3294 12.2416 22.8198 12.2416Z" fill="white"/>
<path d="M18.5884 16.036H11.8269C11.3173 16.036 10.9043 16.4491 10.9043 16.9586C10.9043 17.4682 11.3174 17.8812 11.8269 17.8812H18.5883C19.0979 17.8812 19.5109 17.4681 19.5109 16.9586C19.5109 16.4491 19.0979 16.036 18.5884 16.036Z" fill="white"/>
</g>
<defs>
<clipPath id="clip0">
<rect width="31" height="31" fill="white"/>
</clipPath>
</defs>
</svg>
