<svg width="29" height="29" viewBox="0 0 29 29" fill="none" xmlns="http://www.w3.org/2000/svg">
<path d="M26.8711 6.93494L28.2776 5.52866C28.5113 5.29479 28.5882 4.94654 28.4747 4.63612C28.3612 4.32549 28.0778 4.1091 27.7482 4.08122L25.1389 3.86108L24.9188 1.25185C24.8911 0.922401 24.6745 0.638977 24.3641 0.525475C24.0537 0.411751 23.7054 0.488747 23.4716 0.72261L22.0651 2.12889C19.7906 0.734337 17.19 0 14.5 0C10.627 0 6.9856 1.50828 4.24694 4.24694C1.50828 6.9856 0 10.627 0 14.5C0 18.373 1.50828 22.0144 4.24694 24.7531C6.9856 27.4917 10.627 29 14.5 29C18.373 29 22.0144 27.4917 24.7531 24.7531C27.4917 22.0144 29 18.373 29 14.5C29 11.81 28.2657 9.20963 26.8711 6.93494ZM23.5059 4.71887C23.5408 5.13173 23.8683 5.45918 24.2811 5.49414L25.7823 5.6207L23.7503 7.65268L21.5343 7.46572L21.3473 5.24966L23.3793 3.21767L23.5059 4.71887ZM17.3887 14.5C17.3887 16.0928 16.0928 17.3887 14.5 17.3887C12.9072 17.3887 11.6113 16.0928 11.6113 14.5C11.6113 12.9072 12.9072 11.6113 14.5 11.6113C14.9879 11.6113 15.4474 11.7332 15.8507 11.9476L13.8993 13.8993C13.5674 14.231 13.5674 14.7688 13.8993 15.1007C14.065 15.2666 14.2825 15.3496 14.5 15.3496C14.7175 15.3496 14.935 15.2666 15.1007 15.1007L17.0524 13.1493C17.2668 13.5526 17.3887 14.0121 17.3887 14.5ZM17.0858 10.7126C16.349 10.2081 15.4585 9.91211 14.5 9.91211C11.9702 9.91211 9.91211 11.9702 9.91211 14.5C9.91211 17.0298 11.9702 19.0879 14.5 19.0879C17.0298 19.0879 19.0879 17.0298 19.0879 14.5C19.0879 13.5415 18.7919 12.651 18.2874 11.9142L20.7132 9.48841C21.8215 10.8597 22.4863 12.6036 22.4863 14.5C22.4863 18.9036 18.9036 22.4863 14.5 22.4863C10.0964 22.4863 6.51367 18.9036 6.51367 14.5C6.51367 10.0964 10.0964 6.51367 14.5 6.51367C16.3964 6.51367 18.1403 7.17854 19.5116 8.28679L17.0858 10.7126ZM23.5514 23.5514C21.1338 25.9693 17.9192 27.3008 14.5 27.3008C11.0808 27.3008 7.86619 25.9693 5.44856 23.5514C3.03072 21.1338 1.69922 17.9192 1.69922 14.5C1.69922 11.0808 3.03072 7.86619 5.44856 5.44856C7.86619 3.03072 11.0808 1.69922 14.5 1.69922C16.7369 1.69922 18.9036 2.27381 20.8252 3.36879L19.8669 4.32703C19.712 4.48191 19.6238 4.68945 19.6182 4.90605C19.6176 4.93703 19.6185 4.968 19.6209 4.9992L19.7353 6.35481C18.2248 5.38042 16.4273 4.81445 14.5 4.81445C9.15941 4.81445 4.81445 9.15941 4.81445 14.5C4.81445 19.8406 9.15941 24.1855 14.5 24.1855C19.8406 24.1855 24.1855 19.8406 24.1855 14.5C24.1855 12.5727 23.6196 10.7752 22.6452 9.26472L24.0008 9.37911C24.0247 9.38088 24.0486 9.38199 24.0723 9.38199C24.0762 9.38199 24.0805 9.38155 24.0844 9.38132C24.0957 9.38132 24.1068 9.38044 24.1181 9.37978C24.1364 9.37867 24.155 9.37756 24.1732 9.37535C24.1844 9.3738 24.1957 9.37203 24.207 9.37026C24.2249 9.36739 24.2426 9.36407 24.2603 9.36008C24.2716 9.35743 24.2827 9.35455 24.2937 9.35168C24.311 9.34703 24.328 9.34172 24.3451 9.33597C24.3561 9.33221 24.367 9.32845 24.3778 9.32424C24.3944 9.31783 24.4108 9.31075 24.4272 9.303C24.4376 9.29836 24.448 9.29371 24.4584 9.2884C24.4747 9.27999 24.4907 9.2707 24.5064 9.26141C24.5159 9.25565 24.5254 9.25034 24.5347 9.24459C24.5515 9.23353 24.5676 9.22158 24.5838 9.20941C24.5913 9.20366 24.5991 9.19857 24.6064 9.1926C24.6294 9.17401 24.6517 9.15432 24.673 9.13308L25.6312 8.17484C26.7262 10.0964 27.3008 12.2631 27.3008 14.5C27.3008 17.9192 25.9693 21.1338 23.5514 23.5514Z" fill="white"/>
</svg>
