<svg width="38" height="38" viewBox="0 0 38 38" fill="none" xmlns="http://www.w3.org/2000/svg">
<path d="M34.1123 11.0848L35.0673 10.1297C35.1511 10.0473 35.2177 9.94906 35.2634 9.84072C35.309 9.73238 35.3328 9.61607 35.3333 9.4985C35.3337 9.38093 35.3109 9.26443 35.2662 9.15572C35.2214 9.04701 35.1555 8.94824 35.0724 8.8651C34.9893 8.78197 34.8905 8.71612 34.7818 8.67135C34.6731 8.62658 34.5566 8.60378 34.439 8.60425C34.3214 8.60473 34.2051 8.62848 34.0968 8.67414C33.9884 8.71979 33.8902 8.78645 33.8078 8.87025L32.8138 9.86419C31.1359 8.48236 29.1452 7.53222 27.0156 7.09672V5.04688H27.9063C28.1425 5.04688 28.369 4.95304 28.536 4.78602C28.703 4.61899 28.7969 4.39246 28.7969 4.15625V1.1875C28.7969 0.951292 28.703 0.724758 28.536 0.557733C28.369 0.390708 28.1425 0.296875 27.9063 0.296875H20.7813C20.545 0.296875 20.3185 0.390708 20.1515 0.557733C19.9845 0.724758 19.8906 0.951292 19.8906 1.1875V4.15625C19.8906 4.39246 19.9845 4.61899 20.1515 4.78602C20.3185 4.95304 20.545 5.04688 20.7813 5.04688H21.6719V7.09672C19.5423 7.53222 17.5516 8.48236 15.8737 9.86419L14.8798 8.87025C14.7973 8.78645 14.6991 8.71979 14.5907 8.67414C14.4824 8.62848 14.3661 8.60473 14.2485 8.60425C14.1309 8.60378 14.0144 8.62658 13.9057 8.67135C13.797 8.71612 13.6982 8.78197 13.6151 8.8651C13.532 8.94824 13.4661 9.04701 13.4214 9.15572C13.3766 9.26443 13.3538 9.38093 13.3543 9.4985C13.3547 9.61607 13.3785 9.73238 13.4241 9.84072C13.4698 9.94906 13.5364 10.0473 13.6203 10.1297L14.5752 11.0848C12.2658 13.553 10.982 16.8074 10.9844 20.1875C10.9844 27.5539 16.9774 33.5469 24.3438 33.5469C31.7101 33.5469 37.7031 27.5539 37.7031 20.1875C37.7055 16.8074 36.4217 13.553 34.1123 11.0848ZM21.6719 2.07812H27.0156V3.26562H21.6719V2.07812ZM23.4531 5.04688H25.2344V6.85855C24.9399 6.83904 24.6431 6.82812 24.3438 6.82812C24.0444 6.82812 23.7476 6.83904 23.4531 6.85855V5.04688ZM24.3438 31.7656C17.9595 31.7656 12.7656 26.5717 12.7656 20.1875C12.7656 13.8033 17.9595 8.60938 24.3438 8.60938C30.728 8.60938 35.9219 13.8033 35.9219 20.1875C35.9219 26.5717 30.728 31.7656 24.3438 31.7656Z" fill="white"/>
<path d="M24.3438 10.3906C18.9417 10.3906 14.5469 14.7855 14.5469 20.1875C14.5469 25.5895 18.9417 29.9844 24.3438 29.9844C29.7458 29.9844 34.1406 25.5895 34.1406 20.1875C34.1406 14.7855 29.7458 10.3906 24.3438 10.3906ZM32.3096 19.2969H25.2344V12.2216C27.0403 12.4262 28.7235 13.2374 30.0086 14.5226C31.2938 15.8078 32.105 17.4909 32.3096 19.2969ZM24.3438 28.2031C22.2952 28.2029 20.3245 27.4184 18.8363 26.0107C17.3481 24.6029 16.4554 22.6789 16.3414 20.6335C16.2274 18.5882 16.9008 16.5768 18.2234 15.0124C19.546 13.4481 21.4173 12.4494 23.4531 12.2216V20.1875C23.4531 20.4237 23.547 20.6502 23.714 20.8173C23.881 20.9843 24.1075 21.0781 24.3438 21.0781H32.3096C32.0882 23.0366 31.1539 24.8451 29.6849 26.1591C28.2158 27.4731 26.3147 28.2006 24.3438 28.2031Z" fill="white"/>
<path d="M10.0938 13.9531H4.15625C3.92004 13.9531 3.69351 14.047 3.52648 14.214C3.35946 14.381 3.26562 14.6075 3.26562 14.8438C3.26562 15.08 3.35946 15.3065 3.52648 15.4735C3.69351 15.6405 3.92004 15.7344 4.15625 15.7344H10.0938C10.33 15.7344 10.5565 15.6405 10.7235 15.4735C10.8905 15.3065 10.9844 15.08 10.9844 14.8438C10.9844 14.6075 10.8905 14.381 10.7235 14.214C10.5565 14.047 10.33 13.9531 10.0938 13.9531Z" fill="white"/>
<path d="M9.79688 21.9688C9.79688 21.7325 9.70304 21.506 9.53602 21.339C9.36899 21.172 9.14246 21.0781 8.90625 21.0781H2.96875C2.73254 21.0781 2.50601 21.172 2.33898 21.339C2.17196 21.506 2.07812 21.7325 2.07812 21.9688C2.07812 22.205 2.17196 22.4315 2.33898 22.5985C2.50601 22.7655 2.73254 22.8594 2.96875 22.8594H8.90625C9.14246 22.8594 9.36899 22.7655 9.53602 22.5985C9.70304 22.4315 9.79688 22.205 9.79688 21.9688Z" fill="white"/>
<path d="M9.5 24.6406H5.34375C5.10754 24.6406 4.88101 24.7345 4.71398 24.9015C4.54696 25.0685 4.45312 25.295 4.45312 25.5312C4.45312 25.7675 4.54696 25.994 4.71398 26.161C4.88101 26.328 5.10754 26.4219 5.34375 26.4219H9.5C9.73621 26.4219 9.96274 26.328 10.1298 26.161C10.2968 25.994 10.3906 25.7675 10.3906 25.5312C10.3906 25.295 10.2968 25.0685 10.1298 24.9015C9.96274 24.7345 9.73621 24.6406 9.5 24.6406Z" fill="white"/>
<path d="M9.79688 18.4062C9.79688 18.17 9.70304 17.9435 9.53602 17.7765C9.36899 17.6095 9.14246 17.5156 8.90625 17.5156H1.1875C0.951292 17.5156 0.724758 17.6095 0.557733 17.7765C0.390708 17.9435 0.296875 18.17 0.296875 18.4062C0.296875 18.6425 0.390708 18.869 0.557733 19.036C0.724758 19.203 0.951292 19.2969 1.1875 19.2969H8.90625C9.14246 19.2969 9.36899 19.203 9.53602 19.036C9.70304 18.869 9.79688 18.6425 9.79688 18.4062Z" fill="white"/>
</svg>
