<svg width="981" height="765" viewBox="0 0 981 765" fill="none" xmlns="http://www.w3.org/2000/svg">
<path fill-rule="evenodd" clip-rule="evenodd" d="M557.141 695.804L794.359 698.494C794.359 698.494 813.931 677.769 799.21 663L556.228 671.165L510 683.389L510.024 685.574L557.141 695.804Z" fill="url(#paint0_linear)"/>
<path fill-rule="evenodd" clip-rule="evenodd" d="M557.141 695.804L562.568 690.329L555.196 683.557L567.515 675.007L556.228 671.189L510 683.413L510.024 685.622L557.141 695.804Z" fill="url(#paint1_linear)"/>
<path fill-rule="evenodd" clip-rule="evenodd" d="M518.141 687.375L522.224 680.195L510 683.413L510.024 685.622L518.141 687.375Z" fill="#59438D"/>
<path fill-rule="evenodd" clip-rule="evenodd" d="M794.383 698.494L799.234 663C799.21 663.024 814.988 674.959 794.383 698.494Z" fill="url(#paint2_linear)"/>
<path fill-rule="evenodd" clip-rule="evenodd" d="M794.384 698.494L759.13 698.11L758.89 664.369L799.211 663.024L794.384 698.494Z" fill="url(#paint3_linear)"/>
<path fill-rule="evenodd" clip-rule="evenodd" d="M797.578 675.128C797.578 675.128 793.399 669.748 798.898 665.402C798.898 665.377 800.459 669.388 797.578 675.128Z" fill="white"/>
<path fill-rule="evenodd" clip-rule="evenodd" d="M759.13 698.11L758.866 664.369L754.807 664.393C754.807 664.393 757.161 675.512 755.071 698.134L759.13 698.11Z" fill="url(#paint4_linear)"/>
<path opacity="0.6" fill-rule="evenodd" clip-rule="evenodd" d="M567.515 675.007L799.258 667.035L799.21 663.024L556.229 671.189L567.515 675.007Z" fill="white"/>
<path opacity="0.6" fill-rule="evenodd" clip-rule="evenodd" d="M562.568 690.329L795.32 691.578L794.383 698.494L557.141 695.804L562.568 690.329Z" fill="url(#paint5_linear)"/>
<path fill-rule="evenodd" clip-rule="evenodd" d="M567.516 675.007L767.247 668.139C767.223 668.139 611.775 670.781 567.516 675.007Z" fill="url(#paint6_linear)"/>
<path fill-rule="evenodd" clip-rule="evenodd" d="M269.523 550.225L243.347 189.882C241.353 167.765 258.5 148.553 280.714 148.025L857.405 134.024C880.099 133.496 898.326 152.635 896.645 175.281L874.888 550.201H269.523V550.225Z" fill="url(#paint7_linear)"/>
<path fill-rule="evenodd" clip-rule="evenodd" d="M266.833 178.956L874.096 171.751L863.001 539.37H281.987L266.833 178.956Z" fill="url(#paint8_linear)"/>
<path opacity="0.5" d="M563.488 166.42C569.045 166.42 573.55 161.915 573.55 156.358C573.55 150.801 569.045 146.296 563.488 146.296C557.931 146.296 553.426 150.801 553.426 156.358C553.426 161.915 557.931 166.42 563.488 166.42Z" fill="#D190A6"/>
<path opacity="0.5" d="M563.488 160.801C565.941 160.801 567.93 158.811 567.93 156.358C567.93 153.904 565.941 151.915 563.488 151.915C561.034 151.915 559.045 153.904 559.045 156.358C559.045 158.811 561.034 160.801 563.488 160.801Z" fill="#D190A6"/>
<path d="M566.202 154.581C567.157 154.581 567.931 153.807 567.931 152.852C567.931 151.897 567.157 151.123 566.202 151.123C565.247 151.123 564.473 151.897 564.473 152.852C564.473 153.807 565.247 154.581 566.202 154.581Z" fill="white"/>
<path opacity="0.5" fill-rule="evenodd" clip-rule="evenodd" d="M266.833 178.956L266.978 181.958L874.024 174.177L874.096 171.751L266.833 178.956Z" fill="#930F6F"/>
<path fill-rule="evenodd" clip-rule="evenodd" d="M742.687 550.225V544.029H828.9L831.493 550.225H742.687Z" fill="url(#paint9_linear)"/>
<path fill-rule="evenodd" clip-rule="evenodd" d="M308.931 550.225L313.013 544.029H399.25L397.737 550.225H308.931Z" fill="url(#paint10_linear)"/>
<path fill-rule="evenodd" clip-rule="evenodd" d="M152.211 569.965H979.424C979.424 569.965 1015.83 568.02 1025.12 550.225H122C122 550.225 123.561 564.153 152.211 569.965Z" fill="url(#paint11_linear)"/>
<path fill-rule="evenodd" clip-rule="evenodd" d="M931.154 563.385L933.484 557.189H943.018L940.712 563.385H931.154Z" fill="#00FFFF"/>
<path fill-rule="evenodd" clip-rule="evenodd" d="M944.579 563.385L947.412 557.189H956.442L952.84 563.385H944.579Z" fill="#00FFFF"/>
<path fill-rule="evenodd" clip-rule="evenodd" d="M280.69 148.025C280.69 148.025 243.876 146.608 243.804 196.27H894.005L896.574 168.966C896.574 168.966 896.454 137.722 857.382 134L280.69 148.025Z" fill="url(#paint12_linear)"/>
<path opacity="0.47" d="M189.137 352L110.379 354.075L70 437.797L110.379 518.037L189.137 513.369L227.516 431.055L189.137 352Z" fill="url(#paint13_linear)"/>
<path opacity="0.15" d="M940.24 382.92L902.01 465.013L1173.03 448.787L1207.04 371.436L940.24 382.92Z" fill="url(#paint14_linear)"/>
<path d="M353.074 517.913L439.464 513.468C441.686 513.32 443.539 511.616 443.539 509.541V507.985C443.539 505.911 441.686 504.355 439.464 504.503L353.074 508.8C350.777 508.948 348.851 510.727 348.851 512.801V514.431C348.851 516.432 350.777 517.987 353.074 517.913Z" fill="white"/>
<path d="M304.1 501.984L439.389 495.464C441.612 495.39 443.464 493.612 443.464 491.537V489.981C443.464 487.907 441.612 486.351 439.389 486.499L304.1 492.797C301.729 492.871 299.803 494.723 299.803 496.798V498.428C299.803 500.502 301.729 502.058 304.1 501.984Z" fill="white"/>
<path d="M690.8 627.715C691.689 600.969 693.023 576 700.062 574.889L838.092 603.117L986.421 606.229C986.421 606.229 989.015 604.673 991.015 620.603C993.09 636.532 995.09 662.167 995.09 662.167L934.039 688.321C934.039 688.247 751.851 661.575 690.8 627.715Z" fill="url(#paint15_linear)"/>
<path d="M929.816 693.211C929.668 693.211 929.52 693.211 929.298 693.211C870.099 690.841 807.789 673.948 766.002 660.241C720.733 645.349 689.022 630.827 688.726 630.753C686.206 629.568 685.095 626.604 686.281 624.085C687.466 621.566 690.43 620.455 692.949 621.64C693.245 621.788 724.585 636.088 769.336 650.758C810.53 664.242 871.729 680.838 929.816 683.209C930.112 683.209 930.409 683.209 930.705 683.061C938.781 680.097 979.901 664.835 994.868 656.685C997.313 655.351 1000.35 656.24 1001.68 658.685C1003.02 661.13 1002.13 664.168 999.684 665.502C984.124 674.022 942.411 689.507 934.187 692.471C932.706 692.989 931.224 693.211 929.816 693.211Z" fill="#BABEF4"/>
<path d="M768.298 592.819C768.298 592.819 767.261 565.628 773.411 556.366C779.56 547.105 887.362 582.002 887.362 582.002L874.026 616.898L768.298 592.819Z" fill="url(#paint16_linear)"/>
<path d="M904.773 570.221C904.773 570.221 818.013 549.698 796.527 550.217C774.967 550.735 773.411 556.366 773.411 556.366C773.411 556.366 843.204 568.665 871.951 585.632L904.773 570.221Z" fill="url(#paint17_linear)"/>
<path d="M847.798 588.744C847.798 588.744 828.831 593.337 806.752 588.744C784.673 584.15 728.735 572.296 719.029 571.777C709.249 571.258 700.062 574.889 700.062 574.889C700.062 574.889 761.112 597.486 819.644 610.823C878.175 624.159 918.703 628.234 928.408 626.234C938.188 624.159 986.421 606.229 986.421 606.229C986.421 606.229 989.014 599.042 963.305 595.486C937.596 591.781 847.798 588.744 847.798 588.744Z" fill="url(#paint18_linear)"/>
<path d="M892.993 504.577C894.03 504.577 936.632 506.133 949.45 534.361C962.268 562.59 966.861 589.262 961.749 599.042C956.637 608.822 918.258 612.897 912.034 604.673C905.811 596.375 892.993 504.577 892.993 504.577Z" fill="url(#paint19_linear)"/>
<path d="M939.152 526.656C939.152 526.656 959.156 562.071 959.156 585.632L937.077 591.263V613.86H952.488L982.791 603.562V601.784C982.791 600.08 982.05 598.45 980.791 597.264C977.605 594.301 971.455 587.707 969.973 579.482C967.899 568.221 960.193 536.362 947.894 524.581L939.152 526.656Z" fill="url(#paint20_linear)"/>
<path d="M701.543 363.435L697.32 380.624C696.801 382.92 697.838 385.291 699.913 386.403L807.122 446.564C808.974 447.601 810.9 448.342 812.901 448.935L819.05 450.565C823.125 451.676 827.349 451.676 831.498 450.713L924.703 427.745C927.519 427.078 929.593 424.633 929.89 421.744L931.001 409.148L701.543 363.435Z" fill="url(#paint21_linear)"/>
<path d="M816.68 431.746C819.421 432.265 823.496 433.08 826.386 433.598C828.683 434.043 830.979 433.969 833.202 433.45L930.187 409.963C930.853 409.815 931.224 409.148 931.002 408.482L930.187 405.888C929.964 404.999 929.372 404.333 928.557 403.888L818.903 346.023C818.606 345.875 818.236 345.727 817.865 345.653L808.011 343.578C807.493 343.504 806.974 343.43 806.455 343.578L702.877 361.805C702.062 361.953 701.469 362.62 701.469 363.435V364.62C701.469 365.213 701.766 365.805 702.284 366.102L811.568 429.968C813.198 430.783 814.902 431.376 816.68 431.746Z" fill="url(#paint22_linear)"/>
<path d="M796.601 287.195L787.636 319.795C786.969 322.166 791.267 325.352 797.194 326.982C803.121 328.612 808.456 328.019 809.122 325.723L818.087 293.123L796.601 287.195Z" fill="url(#paint23_linear)"/>
<path d="M865.728 381.513C890.177 399.887 890.177 417.891 865.728 421.596C841.278 425.3 801.639 413.446 777.189 394.997C752.74 376.623 752.74 358.619 777.189 354.914C801.639 351.21 841.278 363.138 865.728 381.513Z" fill="url(#paint24_linear)"/>
<path d="M866.765 379.438C891.215 397.813 891.215 415.817 866.765 419.521C842.315 423.226 802.676 411.371 778.227 392.923C753.777 374.548 753.777 356.544 778.227 352.84C802.676 349.135 842.315 361.064 866.765 379.438Z" fill="url(#paint25_linear)"/>
<path opacity="0.6" d="M864.32 382.772C843.945 367.435 811.864 356.322 788.006 356.322C784.746 356.322 781.709 356.544 778.893 356.989C770.669 358.248 765.483 361.212 764.372 365.361C766.52 362.397 771.188 360.323 777.708 359.285C780.449 358.841 783.561 358.619 786.821 358.619C810.678 358.619 842.833 369.732 863.134 385.069C874.841 393.886 881.138 403.147 879.582 409.223C879.582 409.297 879.582 409.297 879.508 409.371C880.101 408.556 880.546 407.741 880.768 406.852C882.324 400.776 876.026 391.589 864.32 382.772Z" fill="url(#paint26_linear)"/>
<path opacity="0.97" d="M773.708 358.1C774.004 358.026 774.3 357.952 774.597 357.878C774.226 357.952 774.004 358.026 773.708 358.1Z" fill="white"/>
<path opacity="0.97" d="M772.374 358.545C772.67 358.471 772.966 358.322 773.263 358.248C772.966 358.322 772.67 358.396 772.374 358.545Z" fill="white"/>
<path opacity="0.97" d="M879.583 409.445C879.583 409.371 879.657 409.371 879.657 409.297C881.213 403.221 874.915 393.96 863.209 385.143C842.834 369.806 810.752 358.693 786.895 358.693C783.635 358.693 780.598 358.915 777.782 359.36C771.188 360.397 766.595 362.471 764.446 365.435C764.965 363.583 766.224 362.027 768.15 360.693C766.15 362.027 764.816 363.731 764.372 365.583C762.816 371.659 769.114 380.92 780.82 389.737C801.195 405.073 833.276 416.187 857.133 416.187C860.393 416.187 863.431 415.965 866.246 415.52C873.211 414.483 878.027 412.112 880.027 408.926C879.805 409.074 879.657 409.223 879.583 409.445Z" fill="white"/>
<path opacity="0.97" d="M776.745 357.359C776.967 357.285 777.189 357.285 777.337 357.211C777.115 357.285 776.967 357.285 776.745 357.359Z" fill="white"/>
<path opacity="0.97" d="M775.115 357.73C775.412 357.656 775.634 357.581 775.93 357.507C775.634 357.581 775.412 357.656 775.115 357.73Z" fill="white"/>
<path opacity="0.97" d="M771.114 358.989C771.41 358.841 771.706 358.767 772.003 358.619C771.781 358.767 771.41 358.841 771.114 358.989Z" fill="white"/>
<path opacity="0.97" d="M770.002 359.508C770.299 359.36 770.595 359.211 770.891 359.063C770.595 359.211 770.299 359.36 770.002 359.508Z" fill="white"/>
<path opacity="0.97" d="M880.546 407.593C880.472 407.741 880.472 407.889 880.398 407.963C880.472 407.889 880.472 407.741 880.546 407.593Z" fill="white"/>
<path opacity="0.97" d="M880.249 408.259C880.175 408.407 880.101 408.63 879.953 408.778C880.101 408.63 880.175 408.407 880.249 408.259Z" fill="white"/>
<path opacity="0.97" d="M768.077 360.619C768.373 360.471 768.595 360.249 768.966 360.1C768.669 360.249 768.373 360.397 768.077 360.619Z" fill="white"/>
<path opacity="0.97" d="M769.039 360.026C769.335 359.878 769.632 359.73 769.928 359.582C769.558 359.73 769.261 359.878 769.039 360.026Z" fill="white"/>
<path d="M837.648 302.532L821.496 363.36C820.829 365.731 825.126 368.917 831.054 370.547C836.981 372.177 842.315 371.584 842.982 369.288L859.134 308.459L837.648 302.532Z" fill="url(#paint27_linear)"/>
<path d="M890.993 302.829C888.77 312.016 863.357 313.72 834.314 306.681C805.196 299.643 783.414 286.455 785.637 277.267C786.674 272.896 787.044 264.746 796.454 263.857C806.9 262.894 827.053 269.71 842.316 273.415C871.433 280.453 893.216 293.641 890.993 302.829Z" fill="url(#paint28_linear)"/>
<path d="M893.067 294.086C890.844 303.273 865.431 304.977 836.388 297.939C807.27 290.9 785.488 277.712 787.71 268.525C789.933 259.337 815.346 257.633 844.389 264.672C873.507 271.711 895.29 284.899 893.067 294.086Z" fill="url(#paint29_linear)"/>
<path d="M941.671 48.8463C943.079 42.6227 929.372 34.2505 911.072 30.0273C892.771 25.8782 876.768 27.5082 875.36 33.7318C875.212 34.2505 874.841 36.1768 874.693 36.6954C873.285 42.919 886.992 51.2913 905.293 55.5144C923.593 59.6635 939.596 58.0335 941.004 51.8099C941.078 51.2913 941.523 49.3649 941.671 48.8463Z" fill="#97A6B7"/>
<path d="M909.368 37.4364C892.104 33.5096 877.138 34.4728 875.953 39.585L852.836 141.311L915.443 155.537L938.559 53.8104C939.745 48.6981 926.631 41.3632 909.368 37.4364Z" fill="url(#paint30_linear)"/>
<path d="M851.206 291.937C833.276 287.862 819.643 280.231 820.903 274.896L851.132 143.534L916.183 158.352L885.954 289.64C884.769 294.975 869.21 296.012 851.206 291.937Z" fill="url(#paint31_linear)"/>
<path d="M913.961 161.538L851.725 147.387C850.095 147.016 849.131 145.46 849.502 143.83L851.132 136.569C851.502 134.939 853.058 133.976 854.688 134.347L916.924 148.498C918.554 148.868 919.517 150.424 919.147 152.054L917.517 159.315C917.147 160.871 915.591 161.834 913.961 161.538Z" fill="url(#paint32_linear)"/>
<path d="M861.134 281.342L868.321 291.122L864.098 320.61C863.727 323.129 865.061 325.574 867.284 326.76L891.141 338.688L948.042 217.18L907.367 196.212C907.367 196.212 901.291 201.843 885.288 200.287C881.361 199.917 877.805 202.51 876.99 206.363L861.134 281.342Z" fill="url(#paint33_linear)"/>
<path d="M915.368 221.774L890.029 334.762C889.437 337.429 891.511 339.948 894.253 339.874C901.069 339.652 913.368 338.614 923.889 334.095C925.148 333.576 926.037 332.465 926.334 331.131L950.858 221.625C951.45 218.884 949.302 216.365 946.486 216.513L919.295 218.439C917.295 218.662 915.813 219.995 915.368 221.774Z" fill="url(#paint34_linear)"/>
<path d="M862.69 518.951L874.47 462.494C874.47 462.494 890.918 483.535 906.255 486.128C921.666 488.722 937.077 484.054 947.82 438.933C957.97 396.257 952.636 306.014 912.182 316.906C908.848 317.795 905.737 314.831 906.403 311.423L921.37 238.666C921.888 236.221 923.444 234.147 925.593 232.887C930.483 230.22 939.67 227.108 947.598 235.258C947.598 235.258 1011.39 313.275 998.572 420.484C985.754 527.693 915.961 556.959 915.961 556.959L862.69 518.951Z" fill="#DBD5F8"/>
<path d="M978.123 427.078C989.755 319.943 946.116 261.486 921.74 237.703C921.666 237.999 921.592 238.222 921.518 238.518L906.552 311.275C905.885 314.683 908.923 317.647 912.331 316.758C952.71 305.94 958.119 396.183 947.968 438.785C937.225 483.906 921.814 488.573 906.404 485.98C890.993 483.387 874.619 462.345 874.619 462.345L862.838 518.802L904.107 548.142C935.966 533.769 970.196 500.872 978.123 427.078Z" fill="url(#paint35_linear)"/>
<path d="M863.505 432.117L861.282 442.563C861.208 443.082 861.208 443.601 861.43 444.045C863.875 450.046 880.916 490.129 904.773 491.611C915.072 492.278 930.779 488.203 938.707 466.198C938.707 466.198 928.927 482.35 919.147 481.387C909.515 480.349 894.845 460.715 900.031 427.004C900.106 426.337 899.883 425.745 899.365 425.3L898.179 424.337C897.809 424.041 897.364 423.967 896.92 424.041L864.69 430.857C864.098 431.079 863.653 431.524 863.505 432.117Z" fill="url(#paint36_linear)"/>
<path d="M817.273 598.82L915.073 623.566L962.046 611.193L956.49 586.299L937.152 591.263C937.152 591.263 920.704 505.022 874.027 504.503C874.027 504.503 855.06 500.428 855.06 536.288C854.986 572.296 851.874 591.485 817.273 598.82Z" fill="url(#paint37_linear)"/>
<path d="M909.59 545.549C892.772 513.69 875.212 507.096 865.284 506.503C860.32 509.689 854.986 517.469 854.986 536.436C854.986 572.37 851.874 591.559 817.273 598.894L914.999 623.64C925.149 605.488 926.038 576.741 909.59 545.549Z" fill="url(#paint38_linear)"/>
<path d="M903.366 486.277C881.361 480.646 865.357 433.598 864.542 431.005C864.023 431.153 863.579 431.598 863.505 432.116L861.282 442.563C861.208 443.082 861.208 443.601 861.43 444.045C863.875 450.046 880.916 490.129 904.773 491.611C910.034 491.908 916.628 491.018 922.925 487.24C917.369 488.203 910.849 488.203 903.366 486.277Z" fill="url(#paint39_linear)"/>
<path d="M822.829 382.846C817.939 380.92 817.421 379.512 813.197 378.919C811.938 378.697 805.196 377.734 803.121 381.142C803.047 381.29 802.01 383.069 802.677 384.624C804.233 388.329 812.012 385.143 819.347 389.44C824.459 392.478 823.348 395.664 828.09 397.738C834.461 400.554 843.426 397.887 844.315 394.256C844.908 391.441 840.833 388.329 839.944 387.662C834.758 383.809 831.35 386.106 822.829 382.846Z" fill="url(#paint40_linear)"/>
<path d="M639.307 417.817C639.307 417.817 642.863 444.045 615.228 462.494L644.641 469.532C644.641 469.532 654.051 451.973 647.235 422.781L639.307 417.817Z" fill="white"/>
<path d="M644.494 422.781C644.494 422.781 646.05 418.854 645.827 417.076C645.605 415.298 641.382 413.001 638.493 410.556C635.603 408.111 638.567 413.001 639.233 414.112C639.9 415.224 642.197 416.854 641.901 420.632L644.494 422.781Z" fill="url(#paint41_linear)"/>
<path d="M729.254 311.719L775.338 293.345L787.267 323.278L741.182 341.652C736.663 343.43 733.773 347.876 733.996 352.691C735.033 384.18 715.843 414.779 690.801 424.782C659.461 437.229 631.01 412.631 615.747 374.326C600.485 336.021 604.263 298.531 635.529 286.084C660.572 276.082 695.617 285.121 716.51 308.682C719.622 312.312 724.734 313.572 729.254 311.719Z" fill="url(#paint42_linear)"/>
<path d="M611.968 320.61C611.894 320.833 611.894 321.055 611.82 321.277C609.079 335.873 611.672 354.173 619.155 372.992C630.787 402.258 649.606 421.299 669.314 423.967C675.908 424.856 682.577 423.967 689.245 421.299C700.729 416.706 711.175 407.37 718.807 394.849C726.586 382.105 730.587 367.213 730.069 352.84C729.846 346.394 733.699 340.541 739.7 338.096L782.302 321.129L782.08 320.61H611.968Z" fill="url(#paint43_linear)"/>
<g opacity="0.3">
<path opacity="0.3" d="M633.899 360.1C637.011 367.806 643.457 383.809 660.275 391.367C670.426 395.96 688.8 399.368 699.173 390.033C714.806 375.882 699.543 343.652 713.843 335.354C720.363 331.576 724.289 337.799 736.885 334.539C750.814 330.983 753.185 321.648 765.336 316.906C769.707 315.202 775.782 313.942 784.081 315.128L787.34 323.278L741.256 341.652C736.737 343.43 733.847 347.876 734.069 352.691C735.107 384.18 715.917 414.779 690.875 424.782C659.534 437.229 631.084 412.631 615.821 374.326C600.558 336.021 604.337 298.531 635.603 286.084C637.381 285.343 639.234 284.75 641.086 284.232C633.232 299.791 621.896 330.316 633.899 360.1Z" fill="white"/>
</g>
<path d="M770.151 296.901L781.043 324.315C782.08 326.908 785.043 328.242 787.711 327.204C790.304 326.167 791.638 323.203 790.6 320.536L779.709 293.123C778.672 290.529 775.708 289.196 773.041 290.233C770.448 291.27 769.114 294.234 770.151 296.901Z" fill="url(#paint44_linear)"/>
<path d="M611.597 442.711C613.005 439.896 613.672 439.896 613.968 438.414C614.783 435.006 612.708 430.635 610.93 430.561C609.819 430.487 609.671 432.265 607.3 435.08C604.336 438.488 602.558 438.044 600.78 440.933C600.409 441.6 598.557 444.712 599.669 447.009C601.076 449.972 606.781 450.417 609.152 448.12C610.263 447.083 609.819 446.268 611.597 442.711Z" fill="url(#paint45_linear)"/>
<path d="M607.375 445.823C607.375 445.823 608.412 451.232 607.671 455.603C607.004 459.604 599.669 463.679 598.261 464.864C596.854 466.05 601.966 467.309 606.708 466.717C611.45 466.124 624.341 461.975 626.342 459.678C628.342 457.381 624.045 458.493 620.489 458.048C616.932 457.604 613.524 451.602 613.376 448.565C613.228 445.527 607.375 445.823 607.375 445.823Z" fill="url(#paint46_linear)"/>
<path d="M608.856 449.824C608.856 449.824 612.487 451.38 615.673 448.861C618.562 446.564 614.265 439.526 611.375 439.451C610.412 439.451 609.005 440.118 608.115 441.156C607.597 441.748 607.597 442.193 606.782 443.156C606.041 444.045 605.67 444.119 605.596 444.564C605.448 445.082 605.67 446.045 607.671 447.601C606.708 447.453 605.819 447.675 605.522 448.268C605.448 448.342 605.374 448.639 605.374 448.935C605.522 449.898 606.856 450.417 608.856 449.824Z" fill="url(#paint47_linear)"/>
<path d="M688.355 431.005C688.355 431.005 690.578 430.709 689.837 426.486C689.318 423.226 689.689 422.114 690.504 422.707C691.245 423.3 691.393 425.152 691.393 425.152C691.393 425.152 694.208 422.781 695.394 419.595C696.579 416.409 697.32 419.077 697.542 420.707C697.764 422.262 695.912 427.152 694.801 428.116C693.69 429.005 692.134 433.08 692.134 433.08L688.355 431.005Z" fill="url(#paint48_linear)"/>
<path d="M607.375 662.316C606.263 664.613 606.56 665.576 606.856 666.02C607.671 667.28 609.671 666.094 614.858 666.687C615.45 666.761 616.636 666.909 618.044 666.539C619.303 666.243 620.711 665.576 620.711 665.279C620.711 665.131 620.489 665.131 620.415 665.057C619.007 664.761 609.968 662.019 609.968 662.019L607.375 662.316Z" fill="url(#paint49_linear)"/>
<path d="M606.634 657.278L607.449 662.39C607.449 662.39 609.671 663.946 610.264 662.019C610.709 660.686 610.635 656.981 610.635 656.981L606.634 657.278Z" fill="url(#paint50_linear)"/>
<path d="M631.824 657.574L629.676 663.501L626.49 662.983L627.231 657.574H631.824Z" fill="url(#paint51_linear)"/>
<path d="M628.639 666.761C627.083 664.983 625.749 665.131 625.453 663.872C625.23 662.908 625.823 661.723 626.712 661.278C627.972 660.612 629.528 661.649 629.898 661.871C632.269 663.427 631.602 665.798 633.825 666.835C634.269 667.057 635.01 667.28 635.751 667.947C636.048 668.243 636.863 668.984 636.64 669.502C636.418 670.095 635.01 670.095 633.677 670.021C632.047 670.021 631.306 670.021 630.491 669.502C629.528 668.836 629.824 668.169 628.639 666.761Z" fill="url(#paint52_linear)"/>
<path d="M589.815 534.361C590.408 546.29 592.112 556.514 594.038 564.813C596.113 573.778 597.298 575.259 597.965 581.483C599.521 594.967 595.224 596.968 594.779 612.305C594.26 629.197 599.002 642.533 600.929 647.572C602.559 652.017 604.263 655.573 605.522 658.092C607.078 659.426 609.449 658.833 611.968 658.315C612.561 642.978 613.376 628.53 613.968 613.268C616.413 590.151 618.932 567.109 621.377 543.993C610.857 540.807 600.336 537.547 589.815 534.361Z" fill="url(#paint53_linear)"/>
<path opacity="0.3" d="M611.968 658.315C612.561 642.978 613.376 628.53 613.968 613.268C616.413 590.152 618.932 567.109 621.377 543.993C610.857 540.807 600.336 537.621 589.815 534.435C589.889 535.25 589.889 535.991 589.963 536.732C604.855 549.179 607.967 559.182 607.967 566.072C607.967 574.444 603.522 578.668 604.633 590.744C605.448 599.413 608.115 600.821 608.263 608.674C608.486 618.75 604.263 624.455 602.336 630.309C600.41 635.939 599.891 643.941 604.04 655.129C604.559 656.314 605.078 657.352 605.522 658.241C607.078 659.426 609.449 658.908 611.968 658.315Z" fill="url(#paint54_linear)"/>
<path d="M607.67 543.326C617.154 554.884 622.562 565.776 625.674 573.333C629.453 582.446 632.12 589.337 631.305 598.153C630.342 607.933 625.97 611.415 623.007 619.714C620.191 627.789 618.783 640.163 626.193 658.685C628.045 659.352 629.971 659.945 631.823 660.612C633.083 655.648 635.083 648.164 638.121 639.274C644.048 621.64 650.05 610.082 651.606 606.451C657.237 593.782 657.829 571.11 634.268 527.397C625.378 532.731 616.487 538.066 607.67 543.326Z" fill="url(#paint55_linear)"/>
<path d="M694.135 432.191C691.615 430.412 689.171 428.708 686.651 426.93C683.614 445.527 676.723 452.862 670.87 456.048C656.719 463.753 644.123 450.046 617.154 455.603C609.745 457.159 596.705 460.049 589.519 470.644C587.592 473.459 586.926 475.534 583.814 495.538C579.813 521.099 579.665 525.545 580.257 531.101C581.295 541.178 581.887 547.253 586.555 552.662C598.854 567.035 625.082 559.626 628.416 558.663C634.492 556.885 643.901 554.069 647.68 546.068C649.458 542.289 649.236 538.807 646.568 525.026C641.234 497.687 640.493 495.908 641.975 492.945C647.013 482.868 663.091 488.648 676.575 479.238C684.503 473.681 693.468 461.679 694.135 432.191Z" fill="url(#paint56_linear)"/>
<path opacity="0.3" d="M616.117 555.033C618.784 549.624 615.228 544.586 619.081 538.066C624.045 529.768 633.01 532.583 636.344 526.434C642.123 515.913 619.451 501.317 624.045 484.573C626.268 476.571 633.899 470.792 640.345 468.643C654.57 463.753 663.831 476.2 677.168 472.274C680.354 471.384 683.984 469.458 687.614 465.531C684.354 472.348 680.354 476.497 676.575 479.164C663.016 488.573 647.013 482.794 641.975 492.871C640.493 495.834 641.16 497.612 646.568 524.952C649.31 538.733 649.458 542.215 647.68 545.994C643.901 553.995 634.491 556.811 628.416 558.589C626.638 559.108 617.969 561.553 608.412 561.33C612.709 559.7 615.006 557.404 616.117 555.033Z" fill="url(#paint57_linear)"/>
<path d="M1094.42 479.011L926.304 492.421C907.114 494.125 894 508.647 894 527.763V527.985C894 547.1 909.263 561.918 928.452 561.029L1101.53 556.139L1094.42 479.011Z" fill="url(#paint58_linear)"/>
<path d="M1096.56 556.287L928.452 560.955C909.263 561.844 894 585.85 894 614.523V614.819C894 643.492 909.263 667.127 928.452 667.497L1108.34 673.573L1096.56 556.287Z" fill="url(#paint59_linear)"/>
<path d="M1086.49 674.536L926.452 670.905C911.708 670.609 900.002 682.241 900.002 696.911V706.913C900.002 721.583 911.708 734.253 926.452 735.142L1086.49 745.144V674.536Z" fill="url(#paint60_linear)"/>
<path d="M1063.96 671.276L928.452 667.497C909.263 667.127 894 682.315 894 701.431V701.653C894 720.768 909.263 737.216 928.452 738.476L1063.96 749.071C1066.33 749.219 1093.9 747.441 1093.9 745.366C1093.9 743.292 1068.11 741.662 1065.82 741.588L928.452 731.66C912.967 730.696 900.594 717.434 900.594 701.949V701.727C900.594 686.316 912.967 674.017 928.452 674.388L1063.96 678.833C1066.33 678.907 1093.9 676.759 1093.9 674.684C1093.9 672.609 1066.33 671.35 1063.96 671.276Z" fill="url(#paint61_linear)"/>
<path opacity="0.3" d="M974.462 733.216L973.351 688.613L932.305 733.808C932.305 733.808 912.226 734.401 916.005 755.369H933.787L961.867 764.408C961.867 764.408 953.791 749.441 967.424 741.958C970.684 740.18 971.425 735.512 974.462 733.216Z" fill="url(#paint62_linear)"/>
<path d="M928.6 687.205L973.351 688.613C973.351 688.613 951.865 704.913 961.867 764.408C961.867 764.408 942.381 758.184 933.861 747.589L916.005 755.295C916.005 755.369 902.669 709.581 928.6 687.205Z" fill="url(#paint63_linear)"/>
<path d="M257.645 603.414C256.978 603.414 256.459 602.895 256.459 602.228V281.046C256.459 280.379 256.978 279.86 257.645 279.86C258.312 279.86 258.83 280.379 258.83 281.046V602.302C258.83 602.895 258.312 603.414 257.645 603.414Z" fill="#A2A7AE"/>
<path d="M117.318 596.82C116.651 596.82 116.132 596.301 116.132 595.634V281.046C116.132 280.379 116.651 279.86 117.318 279.86C117.985 279.86 118.503 280.379 118.503 281.046V595.708C118.503 596.301 117.985 596.82 117.318 596.82Z" fill="#A2A7AE"/>
<path d="M131.469 641.126C131.395 641.126 131.321 641.126 131.173 641.126C130.58 640.978 130.135 640.385 130.284 639.718L214.599 283.713C214.747 283.12 215.34 282.676 216.006 282.824C216.599 282.972 217.044 283.565 216.895 284.232L132.655 640.237C132.506 640.755 131.988 641.126 131.469 641.126Z" fill="#FAFBFC"/>
<path d="M1.14403 623.566C1.06994 623.566 0.921744 623.566 0.847653 623.566C0.254929 623.418 -0.115505 622.751 0.0326759 622.159L86.4222 283.639C86.5704 283.046 87.2372 282.676 87.8299 282.824C88.4227 282.972 88.7931 283.639 88.6449 284.232L2.25539 622.751C2.10721 623.27 1.58858 623.566 1.14403 623.566Z" fill="#FAFBFC"/>
<path d="M82.4956 284.158L216.97 287.047L260.016 284.158V277.86L159.846 275.785L82.4956 277.86V284.158Z" fill="#D8DEE8"/>
<path d="M82.4956 284.158L216.97 287.047V280.75L82.4956 277.86V284.158Z" fill="url(#paint64_linear)"/>
<path d="M197.558 361.953L70.8628 354.914C70.196 354.914 69.7515 354.321 69.7515 353.655C69.7515 352.988 70.3442 352.543 71.011 352.543L197.632 359.582C198.299 359.582 198.743 360.175 198.743 360.841C198.669 361.434 198.15 361.953 197.558 361.953Z" fill="#FAFBFC"/>
<path d="M180.814 432.709H180.74L51.9702 424.115C51.3034 424.041 50.8589 423.522 50.8589 422.855C50.933 422.188 51.4516 421.744 52.1184 421.744L180.888 430.412C181.555 430.487 181.999 431.005 181.999 431.672C181.925 432.265 181.406 432.709 180.814 432.709Z" fill="#FAFBFC"/>
<path d="M164.143 503.095H164.069L34.3368 493.241C33.67 493.167 33.2255 492.648 33.2996 491.982C33.3736 491.315 33.8923 490.87 34.5591 490.944L164.217 500.798C164.884 500.872 165.329 501.391 165.255 502.058C165.255 502.651 164.736 503.095 164.143 503.095Z" fill="#FAFBFC"/>
<path d="M147.621 573.037H147.547L16.9999 561.404C16.3331 561.33 15.8885 560.812 15.9626 560.145C16.0367 559.478 16.6294 559.034 17.2222 559.108L147.77 570.74C148.436 570.814 148.881 571.333 148.807 571.999C148.733 572.592 148.214 573.037 147.621 573.037Z" fill="#FAFBFC"/>
<path d="M197.484 273.118C197.484 273.118 208.597 278.156 208.819 278.971C208.968 279.786 201.633 278.675 198.669 278.823C195.705 278.971 193.186 278.082 193.483 276.823C193.779 275.563 194.816 272.377 194.816 272.377L197.484 273.118Z" fill="url(#paint65_linear)"/>
<path d="M197.854 268.969L197.187 274.007C197.187 274.007 195.409 274.6 194.224 273.859L193.705 268.376L197.854 268.969Z" fill="url(#paint66_linear)"/>
<path d="M145.546 269.117L144.287 271.192C143.916 271.785 143.842 272.451 143.99 273.118C144.435 274.822 145.324 278.231 145.769 279.12C146.287 280.305 153.474 281.046 153.474 281.046C153.474 281.046 154.141 280.157 152.585 279.046C151.103 277.934 150.14 277.786 149.621 276.156C149.103 274.526 148.732 270.006 148.732 270.006L145.546 269.117Z" fill="url(#paint67_linear)"/>
<path d="M150.881 263.857C150.436 264.227 148.065 271.266 148.065 271.266C148.065 271.266 147.325 272.229 145.917 270.821C144.509 269.414 145.25 270.155 145.25 270.155L145.546 263.264L150.881 263.857Z" fill="url(#paint68_linear)"/>
<path d="M204.004 168.428C204.596 183.395 204.596 199.62 203.781 216.958C202.818 236.443 200.892 254.522 198.447 270.896C197.558 270.896 196.595 270.896 195.557 270.896C194.89 270.896 194.224 270.821 193.631 270.821C192.371 267.413 190.89 262.968 189.482 257.633C188.074 252.002 187.185 247.038 186.592 242.222C184.444 225.33 186.963 223.848 185.259 211.327C183.703 200.213 181.554 199.769 178.961 184.061C176.146 166.947 178.22 164.427 179.257 163.464C183.481 159.315 193.557 162.057 204.004 168.428Z" fill="url(#paint69_linear)"/>
<path opacity="0.3" d="M179.183 163.316C183.258 159.537 192.668 161.834 202.522 167.539C191.112 179.838 189.926 187.84 191.26 193.026C192.816 198.88 197.484 200.584 197.484 206.955C197.484 214.809 190.371 216.884 190.519 225.256C190.593 230.738 193.705 230.738 194.446 237.481C195.335 245.557 191.26 248.298 192.594 254.225C193.186 256.818 194.816 260.152 199.41 263.561C199.114 266.006 198.743 268.451 198.373 270.821C197.484 270.821 196.52 270.821 195.483 270.821C194.816 270.821 194.149 270.747 193.557 270.747C192.297 267.339 190.815 262.894 189.408 257.559C188 251.928 187.111 246.964 186.518 242.148C184.37 225.256 186.889 223.774 185.184 211.253C183.629 200.139 181.48 199.695 178.887 183.987C176.071 166.798 178.146 164.205 179.183 163.316Z" fill="url(#paint70_linear)"/>
<path d="M196.966 168.132C187.186 182.506 176.591 200.361 167.107 221.699C159.995 237.851 154.808 253.04 150.956 266.524C150.437 266.746 149.251 267.265 147.696 267.043C145.547 266.746 144.287 265.413 143.991 265.042C142.435 255.337 142.583 247.187 143.102 241.259C143.472 237.481 144.065 231.183 146.436 223.329C149.177 214.587 151.03 214.142 154.512 204.881C158.142 195.323 157.253 192.878 160.81 180.876C162.217 175.912 164.662 168.577 168.663 159.834C178.147 162.649 187.556 165.391 196.966 168.132Z" fill="url(#paint71_linear)"/>
<path d="M236.9 147.831C236.826 151.313 231.121 154.425 226.453 155.388C215.71 157.611 203.189 149.832 197.188 141.163C196.002 139.459 194.743 137.384 194.372 137.533C193.631 137.903 200.151 148.498 203.041 160.649C204.523 166.872 204.152 169.762 206.819 173.837C207.412 174.8 208.153 175.763 207.931 176.875C207.264 179.616 200.966 180.357 196.521 180.876C191.853 181.394 187.556 181.394 183.259 181.32C176.442 181.246 175.849 180.876 174.294 181.616C169.552 183.987 169.848 189.544 166.292 190.285C163.254 190.952 160.216 187.544 159.253 186.506C154.215 180.95 154.437 174.282 153.548 167.539C151.4 151.906 142.879 134.791 134.581 123.9C132.062 120.64 130.284 118.862 130.21 115.824C129.839 106.859 144.065 96.8569 155.919 95.7456C159.179 95.4492 164.958 95.5233 170.441 96.0419C172.59 96.2642 174.96 96.5606 177.405 97.0051C183.481 98.0424 187.63 98.7833 191.927 100.71C209.264 108.563 205.486 126.197 224.231 138.348C230.825 142.571 236.974 144.201 236.9 147.831Z" fill="white"/>
<path d="M234.454 154.055C234.454 154.055 238.9 153.61 241.493 152.499C244.086 151.388 245.79 152.943 245.568 154.129C245.345 155.24 240.974 156.796 239.27 156.87C237.566 156.87 234.454 154.055 234.454 154.055Z" fill="url(#paint72_linear)"/>
<path d="M139.545 177.616C134.803 178.06 124.134 178.282 116.577 171.318C103.982 159.76 110.205 137.607 114.502 128.123C119.467 117.232 127.468 111.082 132.284 107.378C138.286 102.784 141.916 99.9687 146.361 100.561C157.771 102.191 165.773 125.53 159.475 132.272C157.401 134.495 155.4 133.235 149.473 135.162C147.547 135.754 133.099 140.422 130.654 151.017C128.95 158.426 133.396 167.169 141.397 173.022C140.73 174.504 140.138 176.06 139.545 177.616Z" fill="white"/>
<path d="M146.361 100.487C146.361 100.487 152.289 92.5596 179.109 98.7833L181.925 108.045C182.295 109.23 181.332 110.341 180.147 110.119C173.182 109.23 153.919 106.044 146.361 100.487Z" fill="url(#paint73_linear)"/>
<path d="M165.847 86.4843C165.847 86.4843 165.106 90.6333 163.402 93.5969C161.846 96.2642 155.474 97.2274 154.141 97.6719C152.807 98.1165 156.141 100.413 159.697 101.302C163.254 102.117 173.626 102.636 175.701 101.525C177.701 100.413 174.367 100.043 171.922 98.7833C169.477 97.5237 168.662 92.2633 169.403 90.0406C170.144 87.892 165.847 86.4843 165.847 86.4843Z" fill="url(#paint74_linear)"/>
<path d="M172.59 85.2988C175.183 83.4465 175.85 78.4825 174.442 77.3711C173.997 77.0748 173.627 77.2229 167.848 79.5197C164.958 80.7052 163.551 81.2979 163.106 82.5575C162.81 83.3724 162.884 84.4097 163.18 85.2247C163.328 85.6693 163.699 86.1879 164.366 87.2252C164.958 88.1142 164.958 88.1142 165.107 88.3365C165.551 88.9292 166.44 90.0406 168.07 91.226C168.144 90.7815 168.292 90.1888 168.515 89.596C168.589 89.3738 168.959 88.4106 169.552 87.6697C170.589 86.262 171.775 85.8915 172.59 85.2988Z" fill="url(#paint75_linear)"/>
<path d="M165.996 90.0406C165.996 90.0406 167.7 92.5597 170.811 92.1892C173.627 91.8929 173.701 85.5952 171.849 84.3356C171.256 83.8911 169.996 83.817 169.033 84.1134C168.44 84.3356 168.292 84.5579 167.329 84.8543C166.44 85.1506 166.218 85.0024 165.996 85.2988C165.699 85.5952 165.477 86.262 166.07 88.1143C165.477 87.5956 164.884 87.4474 164.44 87.6697C164.366 87.7438 164.217 87.8179 164.069 88.0402C163.773 88.707 164.44 89.5961 165.996 90.0406Z" fill="url(#paint76_linear)"/>
<path opacity="0.3" d="M192.594 173.615C187.259 170.207 186.444 166.798 180.443 164.502C172.663 161.538 168.885 165.317 165.032 162.279C160.438 158.574 164.513 152.203 161.031 141.089C160.438 139.237 155.993 124.863 145.768 123.085C141.027 122.27 134.729 124.048 132.358 128.123C130.506 131.309 132.21 133.606 129.913 137.088C127.616 140.57 124.875 139.755 121.911 142.645C117.244 147.238 116.577 156.944 120.8 162.427C122.8 164.946 125.319 165.983 130.135 167.91C133.099 169.095 135.766 169.762 138.137 170.207C132.284 164.576 129.172 157.315 130.654 151.017C132.21 144.423 138.359 140.126 143.323 137.607C148.287 146.868 152.288 157.537 153.696 167.687C154.585 174.43 154.363 181.098 159.401 186.655C160.364 187.692 163.402 191.1 166.44 190.433C169.996 189.692 169.7 184.061 174.441 181.765C175.997 181.024 176.516 181.32 183.406 181.468C187.704 181.542 192.001 181.542 196.669 181.024C200.595 180.579 206.004 179.912 207.634 177.838C200.447 177.541 195.779 175.615 192.594 173.615Z" fill="url(#paint77_linear)"/>
<path opacity="0.3" d="M221.712 147.313C213.858 145.534 210.746 145.608 206.894 142.497C200.448 137.31 199.485 129.457 195.706 129.531C193.928 129.605 192.52 131.383 191.483 133.161C192.446 134.643 193.409 136.125 194.298 137.607C194.298 137.533 194.298 137.533 194.372 137.459C194.669 137.31 196.002 139.385 197.188 141.089C203.115 149.758 215.636 157.537 226.454 155.314C229.565 154.648 233.122 153.092 235.196 151.017C229.862 149.313 225.268 148.128 221.712 147.313Z" fill="url(#paint78_linear)"/>
<path d="M126.43 192.73L125.393 190.359C123.689 186.581 125.467 182.209 129.394 180.579L281.946 117.454L288.318 133.235L136.581 196.583C132.654 198.213 128.134 196.509 126.43 192.73Z" fill="url(#paint79_linear)"/>
<path d="M433.758 58.4039C417.162 12.0974 367.299 -11.982 322.03 5.94787C275.945 24.1741 253.718 78.1861 272.834 125.234C291.504 171.17 342.182 191.989 385.822 173.096C428.72 154.499 450.058 103.673 433.758 58.4039ZM286.17 119.751C270.314 80.4088 288.837 35.2136 327.364 19.8769C365.298 4.76241 407.234 24.7668 421.311 63.5903C435.092 101.747 417.162 144.571 381.006 160.204C344.183 176.06 301.655 158.352 286.17 119.751Z" fill="url(#paint80_linear)"/>
<path opacity="0.3" d="M281.873 117.528L262.387 125.604C261.646 132.124 259.275 136.051 256.83 138.57C247.495 147.905 233.121 140.126 215.191 151.758C206.226 157.611 208.301 160.575 199.78 164.872C185.703 171.985 178.22 164.724 165.699 171.17C153.103 177.69 152.881 189.174 145.398 189.47C142.212 189.618 137.841 187.692 132.432 179.32L129.246 180.653C125.319 182.283 123.615 186.655 125.245 190.433L126.283 192.804C127.987 196.583 132.506 198.287 136.359 196.657L288.244 133.309L281.873 117.528Z" fill="#D8DEE8"/>
<path opacity="0.1" d="M385.303 166.354C347.295 182.802 303.285 164.502 287.133 124.493C270.685 83.7429 289.949 36.9177 329.809 21.0623C369.077 5.42923 412.42 26.1746 427.016 66.4057C441.316 105.896 422.719 150.202 385.303 166.354Z" fill="white"/>
<path d="M437.241 62.1826C420.644 15.876 370.781 -8.20341 325.512 9.72649C279.428 27.9528 257.201 81.9647 276.316 129.012C294.987 174.948 345.665 195.768 389.304 176.875C432.128 158.278 453.466 107.452 437.241 62.1826ZM289.578 123.529C273.723 84.1133 292.32 38.9922 330.772 23.6555C368.707 8.54105 410.642 28.5455 424.719 67.3689C438.5 105.526 420.57 148.35 384.414 163.983C347.665 179.838 305.063 162.131 289.578 123.529Z" fill="url(#paint81_linear)"/>
<path d="M432.795 64.0348C417.088 20.3214 370.041 -2.27621 327.365 14.6905C283.948 31.9536 263.054 82.7797 280.984 127.086C298.543 170.429 346.332 190.211 387.526 172.355C428.054 154.796 448.206 106.785 432.795 64.0348ZM289.578 123.529C273.723 84.1133 292.32 38.9922 330.773 23.6555C368.707 8.54101 410.642 28.5454 424.72 67.3689C438.5 105.525 420.57 148.35 384.414 163.983C347.665 179.838 305.063 162.131 289.578 123.529Z" fill="url(#paint82_linear)"/>
<path d="M139.916 176.578L140.953 173.985C140.953 173.985 142.657 174.059 144.065 173.096C144.806 172.577 146.213 172.355 146.584 172.503C146.954 172.577 148.51 172.577 146.806 173.392C145.102 174.207 145.102 174.8 145.843 175.467C146.584 176.134 149.251 177.541 150.214 177.616C151.177 177.69 149.399 179.171 148.436 179.394C147.473 179.616 145.843 179.838 143.842 178.653C143.176 178.208 139.916 176.578 139.916 176.578Z" fill="url(#paint83_linear)"/>
<path d="M286.689 708.03C286.689 717.439 280.317 726.7 273.353 726.7C266.388 726.7 260.757 719.069 260.757 709.586C260.757 700.176 266.388 692.471 273.353 692.471C280.317 692.471 286.689 698.546 286.689 708.03Z" fill="url(#paint84_linear)"/>
<path d="M275.945 727.367C282.901 727.367 288.54 720.003 288.54 710.919C288.54 701.835 282.901 694.471 275.945 694.471C268.989 694.471 263.35 701.835 263.35 710.919C263.35 720.003 268.989 727.367 275.945 727.367Z" fill="#97A6B7"/>
<path d="M275.945 717.661C278.809 717.661 281.131 714.643 281.131 710.919C281.131 707.195 278.809 704.177 275.945 704.177C273.081 704.177 270.759 707.195 270.759 710.919C270.759 714.643 273.081 717.661 275.945 717.661Z" fill="#D8DEE8"/>
<path d="M309.953 745.816C309.73 745.816 309.508 745.742 309.36 745.668L256.756 713.512C256.311 713.216 256.089 712.697 256.237 712.253C256.385 711.734 256.756 711.364 257.274 711.364L507.034 689.655C507.182 689.655 507.33 689.655 507.552 689.729L580.383 714.475C580.902 714.624 581.272 715.216 581.198 715.735C581.124 716.328 580.679 716.698 580.161 716.772L310.249 745.964C310.027 745.816 310.027 745.816 309.953 745.816ZM261.053 713.29L310.175 743.371L574.308 714.846L506.885 691.952L261.053 713.29Z" fill="#B7C0CE"/>
<path d="M309.953 745.816C309.286 745.816 308.767 745.297 308.767 744.63V544.215L258.534 533.695V712.475C258.534 713.142 258.015 713.661 257.349 713.661C256.682 713.661 256.163 713.142 256.163 712.475V532.213C256.163 531.842 256.311 531.546 256.608 531.25C256.904 531.027 257.274 530.953 257.645 531.027L310.249 542.067C310.768 542.215 311.212 542.66 311.212 543.252V744.63C311.138 745.297 310.62 745.816 309.953 745.816Z" fill="#B7C0CE"/>
<path d="M579.864 716.624C579.197 716.624 578.679 716.105 578.679 715.439V524.507L507.7 520.803V690.692C507.7 691.359 507.181 691.878 506.515 691.878C505.848 691.878 505.329 691.359 505.329 690.692V519.543C505.329 519.247 505.477 518.876 505.7 518.654C505.922 518.432 506.292 518.284 506.589 518.358L579.938 522.211C580.605 522.211 581.05 522.803 581.05 523.396V715.439C581.124 716.105 580.531 716.624 579.864 716.624Z" fill="#B7C0CE"/>
<path d="M257.349 533.399C256.682 533.399 256.163 532.881 256.163 532.288C256.163 531.621 256.608 531.028 257.274 531.028L506.441 518.359C507.108 518.359 507.7 518.803 507.7 519.47C507.7 520.137 507.256 520.73 506.589 520.73L257.349 533.399Z" fill="#B7C0CE"/>
<path d="M456.133 406.185V688.025C456.133 704.029 469.099 716.995 485.102 716.995C501.106 716.995 514.072 704.029 514.072 688.025V406.185H456.133Z" fill="url(#paint85_linear)"/>
<path d="M485.102 714.772C470.358 714.772 458.355 702.769 458.355 688.025V495.39H511.849V688.025C511.849 702.769 499.846 714.772 485.102 714.772Z" fill="url(#paint86_linear)"/>
<path d="M485.102 503.021C499.874 503.021 511.849 499.638 511.849 495.464C511.849 491.29 499.874 487.907 485.102 487.907C470.33 487.907 458.355 491.29 458.355 495.464C458.355 499.638 470.33 503.021 485.102 503.021Z" fill="url(#paint87_linear)"/>
<path opacity="0.5" d="M477.397 693.656C472.507 675.652 488.14 666.613 490.215 636.384C492.511 602.228 473.544 599.191 472.729 564.961C471.692 521.988 501.18 509.615 491.622 476.719C486.214 458.196 475.396 456.937 468.728 434.265C465.839 424.411 464.95 414.927 465.246 406.185H456.207V688.025C456.207 704.029 469.173 716.995 485.176 716.995C488.51 716.995 491.696 716.402 494.66 715.439C483.917 708.104 479.249 700.472 477.397 693.656Z" fill="white"/>
<path d="M518.147 401.295H513.924C508.293 398.331 497.476 396.331 485.103 396.331C472.729 396.331 461.912 398.331 456.281 401.295H452.058C451.614 402.777 451.688 404.851 452.058 406.333V407.148H452.28C454.207 411.964 468.136 415.668 485.103 415.668C502.069 415.668 515.998 411.964 517.851 407.148V407.074C517.851 407 517.851 407 517.925 406.926C518.443 405.444 518.591 402.925 518.147 401.295Z" fill="url(#paint88_linear)"/>
<path d="M485.103 409.815C503.352 409.815 518.147 406.1 518.147 401.517C518.147 396.934 503.352 393.219 485.103 393.219C466.853 393.219 452.058 396.934 452.058 401.517C452.058 406.1 466.853 409.815 485.103 409.815Z" fill="url(#paint89_linear)"/>
<path d="M485.102 408.704C500.856 408.704 513.627 405.486 513.627 401.517C513.627 397.548 500.856 394.33 485.102 394.33C469.349 394.33 456.578 397.548 456.578 401.517C456.578 405.486 469.349 408.704 485.102 408.704Z" fill="url(#paint90_linear)"/>
<path d="M384.193 409.371V691.211C384.193 707.215 397.159 720.18 413.162 720.18C429.166 720.18 442.132 707.215 442.132 691.211V409.371H384.193Z" fill="url(#paint91_linear)"/>
<path d="M413.236 717.958C398.492 717.958 386.489 705.955 386.489 691.211V502.206H439.909V691.211C439.909 705.955 427.906 717.958 413.236 717.958Z" fill="url(#paint92_linear)"/>
<path d="M413.236 509.615C428.008 509.615 439.983 506.298 439.983 502.206C439.983 498.114 428.008 494.797 413.236 494.797C398.464 494.797 386.489 498.114 386.489 502.206C386.489 506.298 398.464 509.615 413.236 509.615Z" fill="url(#paint93_linear)"/>
<path opacity="0.5" d="M405.456 696.842C400.566 678.838 416.199 669.799 418.274 639.57C420.57 605.414 401.603 602.377 400.788 568.147C399.751 525.174 429.239 512.801 419.681 479.905C414.273 461.382 403.456 460.123 396.787 437.451C393.898 427.597 393.009 418.113 393.305 409.371H384.266V691.211C384.266 707.215 397.232 720.18 413.236 720.18C416.57 720.18 419.755 719.588 422.719 718.625C411.976 711.29 407.308 703.658 405.456 696.842Z" fill="white"/>
<path d="M446.206 404.407H441.983C436.352 401.443 425.535 399.443 413.162 399.443C400.789 399.443 389.971 401.443 384.34 404.407H380.117C379.673 405.888 379.747 407.963 380.117 409.445V410.26H380.34C382.266 415.076 396.195 418.78 413.162 418.78C430.128 418.78 444.057 415.076 445.91 410.26V410.186C445.91 410.112 445.91 410.112 445.984 410.038C446.502 408.556 446.651 406.111 446.206 404.407Z" fill="url(#paint94_linear)"/>
<path d="M413.236 412.927C431.486 412.927 446.281 409.212 446.281 404.629C446.281 400.046 431.486 396.331 413.236 396.331C394.986 396.331 380.192 400.046 380.192 404.629C380.192 409.212 394.986 412.927 413.236 412.927Z" fill="url(#paint95_linear)"/>
<path d="M413.236 411.816C428.99 411.816 441.761 408.598 441.761 404.629C441.761 400.66 428.99 397.442 413.236 397.442C397.482 397.442 384.711 400.66 384.711 404.629C384.711 408.598 397.482 411.816 413.236 411.816Z" fill="url(#paint96_linear)"/>
<path d="M316.621 411.593V693.434C316.621 709.437 329.587 722.403 345.59 722.403C361.594 722.403 374.56 709.437 374.56 693.434V411.593H316.621Z" fill="url(#paint97_linear)"/>
<path d="M345.589 720.18C330.845 720.18 318.843 708.178 318.843 693.434V531.99H372.262V693.434C372.336 708.178 360.333 720.18 345.589 720.18Z" fill="url(#paint98_linear)"/>
<path d="M372.336 531.99C372.336 538.066 360.408 543.03 345.589 543.03C330.771 543.03 318.843 538.066 318.843 531.99C318.843 525.915 330.771 520.951 345.589 520.951C360.408 520.951 372.336 525.841 372.336 531.99Z" fill="url(#paint99_linear)"/>
<path opacity="0.5" d="M337.884 699.065C332.994 681.061 348.627 672.022 350.702 641.793C352.999 607.637 334.032 604.599 333.217 570.369C332.179 527.397 361.667 515.024 352.11 482.128C346.701 463.605 335.884 462.345 329.216 439.674C326.326 429.82 325.437 420.336 325.733 411.593H316.694V693.434C316.694 709.437 329.66 722.403 345.664 722.403C348.998 722.403 352.184 721.81 355.147 720.847C344.404 713.512 339.737 705.881 337.884 699.065Z" fill="white"/>
<path d="M378.634 406.703H374.411C368.78 403.74 357.963 401.739 345.59 401.739C333.217 401.739 322.4 403.74 316.769 406.703H312.546C312.101 408.185 312.175 410.26 312.546 411.742V412.557H312.768C314.694 417.373 328.623 421.077 345.59 421.077C362.557 421.077 376.486 417.373 378.338 412.557V412.483C378.338 412.408 378.338 412.408 378.412 412.334C378.931 410.778 379.079 408.333 378.634 406.703Z" fill="url(#paint100_linear)"/>
<path d="M345.59 415.15C363.84 415.15 378.634 411.435 378.634 406.852C378.634 402.269 363.84 398.554 345.59 398.554C327.34 398.554 312.545 402.269 312.545 406.852C312.545 411.435 327.34 415.15 345.59 415.15Z" fill="url(#paint101_linear)"/>
<path d="M345.59 414.038C361.344 414.038 374.115 410.821 374.115 406.852C374.115 402.883 361.344 399.665 345.59 399.665C329.836 399.665 317.065 402.883 317.065 406.852C317.065 410.821 329.836 414.038 345.59 414.038Z" fill="url(#paint102_linear)"/>
<path d="M309.953 544.438C309.36 544.438 308.841 543.993 308.767 543.326C308.693 542.66 309.212 542.067 309.879 542.067L579.79 522.211C580.457 522.137 581.05 522.655 581.05 523.322C581.124 523.989 580.605 524.581 579.939 524.581L310.027 544.438H309.953Z" fill="#B7C0CE"/>
<path d="M342.997 742.852C342.997 752.262 336.625 761.523 329.661 761.523C322.696 761.523 317.065 753.892 317.065 744.408C317.065 734.999 322.696 727.293 329.661 727.293C336.625 727.293 342.997 733.369 342.997 742.852Z" fill="url(#paint103_linear)"/>
<path d="M332.254 762.19C339.21 762.19 344.849 754.826 344.849 745.742C344.849 736.658 339.21 729.294 332.254 729.294C325.297 729.294 319.658 736.658 319.658 745.742C319.658 754.826 325.297 762.19 332.254 762.19Z" fill="#97A6B7"/>
<path d="M332.254 752.484C335.118 752.484 337.44 749.465 337.44 745.742C337.44 742.018 335.118 738.999 332.254 738.999C329.389 738.999 327.067 742.018 327.067 745.742C327.067 749.465 329.389 752.484 332.254 752.484Z" fill="#D8DEE8"/>
<path d="M574.16 716.179C574.16 725.589 567.788 734.85 560.823 734.85C553.859 734.85 548.228 727.219 548.228 717.735C548.228 708.326 553.859 700.62 560.823 700.62C567.788 700.695 574.16 706.696 574.16 716.179Z" fill="url(#paint104_linear)"/>
<path d="M563.416 735.517C570.372 735.517 576.012 728.153 576.012 719.069C576.012 709.985 570.372 702.621 563.416 702.621C556.46 702.621 550.821 709.985 550.821 719.069C550.821 728.153 556.46 735.517 563.416 735.517Z" fill="#97A6B7"/>
<path d="M563.416 725.811C566.281 725.811 568.603 722.793 568.603 719.069C568.603 715.345 566.281 712.327 563.416 712.327C560.552 712.327 558.23 715.345 558.23 719.069C558.23 722.793 560.552 725.811 563.416 725.811Z" fill="#D8DEE8"/>
<path d="M256.682 533.991C256.682 533.991 258.164 573.259 232.233 576.223C206.301 579.186 210.746 554.736 210.746 554.736L234.826 556.07C234.826 556.07 250.237 547.179 252.682 535.028L256.682 533.991Z" fill="white"/>
<path opacity="0.3" d="M256.682 533.991C256.682 533.991 258.164 573.259 232.233 576.223C206.301 579.186 210.746 554.736 210.746 554.736L234.826 556.07C234.826 556.07 250.237 547.179 252.682 535.028L256.682 533.991Z" fill="url(#paint105_linear)"/>
<path d="M139.693 742.408C139.693 742.408 137.1 745.001 137.989 746.705C138.878 748.409 141.398 752.706 143.176 754.41C144.88 756.114 145.769 757.003 148.362 757.003C150.955 757.003 150.955 752.706 148.362 752.706C145.769 752.706 142.361 744.112 142.361 744.112L139.693 742.408Z" fill="url(#paint106_linear)"/>
<path d="M143.991 735.517L139.694 742.408C139.694 742.408 139.694 745.001 142.287 744.112L147.473 738.925L143.991 735.517Z" fill="url(#paint107_linear)"/>
<path d="M220.526 638.384C215.71 652.165 208.301 669.28 196.446 687.358C179.702 712.994 160.735 730.479 146.583 741.518C144.879 740.111 143.175 738.629 141.397 737.221C142.212 731.072 144.064 721.959 149.102 712.327C157.993 695.36 168.885 691.804 176.59 677.949C180.887 670.317 184.962 658.167 182.591 639.274C195.261 638.977 207.856 638.681 220.526 638.384Z" fill="url(#paint108_linear)"/>
<path opacity="0.3" d="M198.076 638.903C198.817 641.274 199.039 643.349 199.039 645.201C198.817 654.462 191.704 658.093 188.074 674.911C185.777 685.58 188.222 686.173 185.703 692.1C180.591 704.399 168.292 706.177 155.178 715.587C151.696 718.106 147.695 721.514 143.62 726.108C142.434 730.331 141.767 734.183 141.397 737.221C143.101 738.629 144.805 740.111 146.583 741.518C160.735 730.479 179.702 712.994 196.446 687.358C208.227 669.28 215.71 652.165 220.526 638.384C213.042 638.533 205.559 638.681 198.076 638.903Z" fill="url(#paint109_linear)"/>
<path d="M264.314 750.113C264.314 750.113 264.314 751.817 266.018 752.706C267.722 753.595 277.206 748.409 278.021 745.816C278.91 743.223 275.428 742.408 273.723 744.112C271.056 746.853 264.314 750.113 264.314 750.113Z" fill="url(#paint110_linear)"/>
<path d="M263.499 738.925L267.203 748.631C267.203 748.631 266.981 750.113 264.388 750.113L258.387 743.223L263.499 738.925Z" fill="url(#paint111_linear)"/>
<path d="M240.234 627.197C240.9 643.719 243.049 663.575 247.939 685.654C252.681 706.77 258.978 724.996 265.128 739.814C262.831 741.815 260.534 743.815 258.238 745.816C251.125 740.852 241.271 732.405 235.047 719.143C230.157 708.696 231.861 704.473 230.454 695.064C230.231 693.73 230.083 692.619 229.861 691.433C229.861 691.433 228.972 686.84 227.342 682.172C225.786 677.578 214.524 659.5 195.483 637.718C197.039 634.606 200.373 629.123 206.671 625.419C222.007 616.528 239.567 626.752 240.234 627.197Z" fill="url(#paint112_linear)"/>
<path d="M221.637 539.622C233.492 541.696 242.531 543.771 246.532 549.995C250.755 556.589 244.013 561.479 242.16 575.926C239.345 598.005 252.014 606.229 248.384 628.382C247.791 632.013 246.902 635.199 245.939 638.014C244.235 642.83 240.901 646.905 236.53 649.646C233.27 651.721 229.343 653.721 224.675 655.351C212.672 659.574 206.745 657.129 190.519 658.019C164.069 659.5 160.068 667.206 148.14 662.464C136.063 657.722 127.32 644.83 129.839 639.274C131.395 635.94 136.211 638.014 143.175 634.013C152.14 628.827 150.659 621.64 157.919 615.565C168.366 606.748 178.368 615.639 187.333 608.007C196.372 600.302 197.41 581.483 193.631 570.295C191.112 562.96 191.112 555.033 189.186 547.55C189.038 546.957 188.889 545.92 189.26 544.808C190.742 540.511 198.595 539.696 204.597 539.103C213.71 538.288 220.674 539.474 221.637 539.622Z" fill="white"/>
<path opacity="0.15" d="M149.547 654.166C153.178 651.721 151.251 644.83 156.66 641.126C161.698 637.718 165.625 642.163 173.034 639.866C182.592 636.977 182.073 627.79 191.186 624.826C197.78 622.751 199.707 626.9 209.19 627.123C218.674 627.271 231.047 623.418 238.9 613.416C242.234 609.193 244.087 604.599 245.124 600.45C247.643 608.6 250.384 616.528 248.458 628.456C247.643 633.272 246.309 637.421 244.976 640.607C243.716 643.645 241.642 646.238 238.975 648.09C235.344 650.609 230.528 653.351 224.675 655.425C212.672 659.648 206.745 657.203 190.519 658.093C164.069 659.574 160.068 667.28 148.14 662.538C140.434 659.5 134.062 653.129 131.173 647.498C141.62 655.129 146.88 655.944 149.547 654.166Z" fill="url(#paint113_linear)"/>
<path d="M228.527 519.099C228.527 519.099 231.787 525.248 232.01 529.546C232.232 533.843 227.342 533.546 227.342 533.546L227.49 536.288C227.638 538.585 229.12 540.585 231.343 541.4L233.269 542.141C233.269 542.141 220.748 544.808 213.932 539.992L215.932 539.77C218.747 539.474 220.896 537.325 221.193 534.51L221.341 533.324C221.267 533.324 219.118 519.914 228.527 519.099Z" fill="url(#paint114_linear)"/>
<path d="M226.528 525.248C225.861 525.174 225.343 524.359 224.898 524.581C224.453 524.804 224.453 526.063 224.898 526.878C225.194 527.545 225.787 527.99 226.083 528.138C225.565 528.805 224.972 529.916 224.676 531.324C224.083 534.436 225.713 536.955 226.454 538.436C229.566 545.03 224.75 555.477 219.415 560.738C215.118 565.035 213.118 563.331 210.524 566.813C205.56 573.629 212.451 581.113 209.858 590.3C205.931 604.229 183.926 608.378 183.037 608.526C182.666 608.6 182.444 608.6 182.074 608.674C172.22 610.23 157.253 612.601 146.733 604.525C138.879 598.45 135.248 587.929 135.841 578.593C135.989 576.148 136.73 566.887 144.288 559.33C145.473 558.144 152.586 551.032 162.217 550.958C167.33 550.884 168.293 552.736 172.22 551.624C177.554 550.143 180.814 545.253 182.889 542.289C186.667 536.732 185.111 535.621 187.779 532.88C193.039 527.545 199.263 531.768 204.894 527.026C210.45 522.359 207.116 516.135 212.451 512.134C218.008 507.985 228.603 509.467 230.825 514.357C232.678 518.432 228.528 525.396 226.528 525.248Z" fill="url(#paint115_linear)"/>
<path d="M254.015 532.065C254.015 532.065 257.72 526.804 262.98 527.323C268.241 527.841 260.313 531.546 259.276 534.658C258.238 537.844 249.792 535.695 254.015 532.065Z" fill="url(#paint116_linear)"/>
<path d="M306.323 588.077L308.545 576.963L309.36 580.223C309.509 580.816 310.324 580.742 310.398 580.149L310.768 577.63C310.768 577.63 318.918 579.112 313.732 585.78C309.435 591.411 306.323 588.077 306.323 588.077Z" fill="url(#paint117_linear)"/>
<path d="M237.418 547.327H241.197C243.79 547.327 246.161 548.735 247.421 551.032C250.829 557.404 258.979 570.369 271.5 576.963C288.541 585.854 306.323 588.818 306.323 588.818L309.953 589.04C309.953 589.04 298.914 606.6 269.277 602.895C239.641 599.191 231.491 577.704 231.491 577.704L237.418 547.327Z" fill="white"/>
<defs>
<linearGradient id="paint0_linear" x1="657.338" y1="698.432" x2="657.338" y2="662.944" gradientUnits="userSpaceOnUse">
<stop stop-color="#CF59FF"/>
<stop offset="1" stop-color="#7AA4FF"/>
</linearGradient>
<linearGradient id="paint1_linear" x1="538.857" y1="695.877" x2="538.671" y2="671.25" gradientUnits="userSpaceOnUse">
<stop stop-color="#D1D7FF"/>
<stop offset="1" stop-color="#E2E0FF"/>
</linearGradient>
<linearGradient id="paint2_linear" x1="804.152" y1="664.558" x2="793.551" y2="698.23" gradientUnits="userSpaceOnUse">
<stop stop-color="#B60043"/>
<stop offset="1" stop-color="#AB009A"/>
</linearGradient>
<linearGradient id="paint3_linear" x1="779.301" y1="698.546" x2="779.034" y2="663.096" gradientUnits="userSpaceOnUse">
<stop stop-color="#AB009A"/>
<stop offset="1" stop-color="#F40043"/>
</linearGradient>
<linearGradient id="paint4_linear" x1="757.101" y1="698.047" x2="756.846" y2="664.316" gradientUnits="userSpaceOnUse">
<stop stop-color="#A3C0FF"/>
<stop offset="1" stop-color="#E39DFF"/>
</linearGradient>
<linearGradient id="paint5_linear" x1="557.129" y1="695.259" x2="795.324" y2="693.46" gradientUnits="userSpaceOnUse">
<stop offset="0.0615" stop-color="white"/>
<stop offset="0.9944" stop-color="#A411A4"/>
</linearGradient>
<linearGradient id="paint6_linear" x1="667.373" y1="674.179" x2="667.333" y2="668.819" gradientUnits="userSpaceOnUse">
<stop stop-color="#FFB97C"/>
<stop offset="1" stop-color="#FFEEA9"/>
</linearGradient>
<linearGradient id="paint7_linear" x1="569.96" y1="550.217" x2="569.96" y2="134.008" gradientUnits="userSpaceOnUse">
<stop stop-color="#CC4CF8"/>
<stop offset="1" stop-color="#87C5FF"/>
</linearGradient>
<linearGradient id="paint8_linear" x1="570.468" y1="539.373" x2="570.468" y2="171.746" gradientUnits="userSpaceOnUse">
<stop stop-color="#AE04BB"/>
<stop offset="1" stop-color="#789AFF"/>
</linearGradient>
<linearGradient id="paint9_linear" x1="787.084" y1="550.217" x2="787.084" y2="544.021" gradientUnits="userSpaceOnUse">
<stop stop-color="#AE04BB"/>
<stop offset="1" stop-color="#789AFF"/>
</linearGradient>
<linearGradient id="paint10_linear" x1="354.088" y1="550.217" x2="354.088" y2="544.021" gradientUnits="userSpaceOnUse">
<stop stop-color="#AE04BB"/>
<stop offset="1" stop-color="#789AFF"/>
</linearGradient>
<linearGradient id="paint11_linear" x1="573.566" y1="569.968" x2="573.566" y2="550.217" gradientUnits="userSpaceOnUse">
<stop stop-color="#CF59FF"/>
<stop offset="1" stop-color="#7AA4FF"/>
</linearGradient>
<linearGradient id="paint12_linear" x1="570.532" y1="201.918" x2="569.434" y2="139.046" gradientUnits="userSpaceOnUse">
<stop offset="0.7989" stop-color="#7E8AF8" stop-opacity="0"/>
<stop offset="1" stop-color="#6DFFFF"/>
</linearGradient>
<linearGradient id="paint13_linear" x1="70.0073" y1="435.051" x2="227.529" y2="435.051" gradientUnits="userSpaceOnUse">
<stop stop-color="#AA80F9"/>
<stop offset="0.9964" stop-color="#6165D7"/>
</linearGradient>
<linearGradient id="paint14_linear" x1="902.035" y1="418.238" x2="1207.04" y2="418.238" gradientUnits="userSpaceOnUse">
<stop stop-color="#AA80F9"/>
<stop offset="0.9964" stop-color="#6165D7"/>
</linearGradient>
<linearGradient id="paint15_linear" x1="842.952" y1="688.323" x2="842.952" y2="574.89" gradientUnits="userSpaceOnUse">
<stop stop-color="#A1AEFF"/>
<stop offset="1" stop-color="white"/>
</linearGradient>
<linearGradient id="paint16_linear" x1="827.8" y1="616.899" x2="827.8" y2="554.803" gradientUnits="userSpaceOnUse">
<stop stop-color="#A1AEFF"/>
<stop offset="1" stop-color="white"/>
</linearGradient>
<linearGradient id="paint17_linear" x1="839.095" y1="585.632" x2="839.095" y2="550.208" gradientUnits="userSpaceOnUse">
<stop stop-color="#A1AEFF"/>
<stop offset="1" stop-color="white"/>
</linearGradient>
<linearGradient id="paint18_linear" x1="843.285" y1="626.715" x2="843.285" y2="571.727" gradientUnits="userSpaceOnUse">
<stop stop-color="#A1AEFF"/>
<stop offset="1" stop-color="white"/>
</linearGradient>
<linearGradient id="paint19_linear" x1="928.396" y1="609.086" x2="928.396" y2="504.578" gradientUnits="userSpaceOnUse">
<stop stop-color="#A1AEFF"/>
<stop offset="1" stop-color="white"/>
</linearGradient>
<linearGradient id="paint20_linear" x1="959.935" y1="613.862" x2="959.935" y2="524.583" gradientUnits="userSpaceOnUse">
<stop stop-color="#A1AEFF"/>
<stop offset="1" stop-color="white"/>
</linearGradient>
<linearGradient id="paint21_linear" x1="814.1" y1="451.419" x2="814.1" y2="363.436" gradientUnits="userSpaceOnUse">
<stop stop-color="#A1AEFF"/>
<stop offset="1" stop-color="white"/>
</linearGradient>
<linearGradient id="paint22_linear" x1="816.273" y1="433.891" x2="816.273" y2="343.494" gradientUnits="userSpaceOnUse">
<stop stop-color="#A1AEFF"/>
<stop offset="1" stop-color="white"/>
</linearGradient>
<linearGradient id="paint23_linear" x1="802.828" y1="327.906" x2="802.828" y2="287.196" gradientUnits="userSpaceOnUse">
<stop stop-color="#A1AEFF"/>
<stop offset="1" stop-color="white"/>
</linearGradient>
<linearGradient id="paint24_linear" x1="758.891" y1="388.265" x2="884.098" y2="388.265" gradientUnits="userSpaceOnUse">
<stop stop-color="#444B8C"/>
<stop offset="0.9964" stop-color="#26264F"/>
</linearGradient>
<linearGradient id="paint25_linear" x1="759.918" y1="386.213" x2="885.124" y2="386.213" gradientUnits="userSpaceOnUse">
<stop stop-color="#AA80F9"/>
<stop offset="0.9964" stop-color="#6165D7"/>
</linearGradient>
<linearGradient id="paint26_linear" x1="764.318" y1="382.874" x2="881.003" y2="382.874" gradientUnits="userSpaceOnUse">
<stop stop-color="#AA80F9"/>
<stop offset="0.9964" stop-color="#6165D7"/>
</linearGradient>
<linearGradient id="paint27_linear" x1="840.282" y1="371.472" x2="840.282" y2="302.533" gradientUnits="userSpaceOnUse">
<stop stop-color="#A1AEFF"/>
<stop offset="1" stop-color="white"/>
</linearGradient>
<linearGradient id="paint28_linear" x1="829.394" y1="325.73" x2="845.099" y2="262.518" gradientUnits="userSpaceOnUse">
<stop stop-color="#AA80F9"/>
<stop offset="0.9964" stop-color="#6165D7"/>
</linearGradient>
<linearGradient id="paint29_linear" x1="838.528" y1="286.148" x2="885.643" y2="163.256" gradientUnits="userSpaceOnUse">
<stop stop-color="#AA80F9"/>
<stop offset="0.9964" stop-color="#6165D7"/>
</linearGradient>
<linearGradient id="paint30_linear" x1="895.737" y1="155.538" x2="895.737" y2="35.0226" gradientUnits="userSpaceOnUse">
<stop stop-color="#A1AEFF"/>
<stop offset="1" stop-color="white"/>
</linearGradient>
<linearGradient id="paint31_linear" x1="868.505" y1="294.429" x2="868.505" y2="143.536" gradientUnits="userSpaceOnUse">
<stop stop-color="#A1AEFF"/>
<stop offset="1" stop-color="white"/>
</linearGradient>
<linearGradient id="paint32_linear" x1="877.584" y1="137.887" x2="922.733" y2="205.223" gradientUnits="userSpaceOnUse">
<stop stop-color="#AA80F9"/>
<stop offset="0.9964" stop-color="#6165D7"/>
</linearGradient>
<linearGradient id="paint33_linear" x1="904.59" y1="338.69" x2="904.59" y2="196.214" gradientUnits="userSpaceOnUse">
<stop stop-color="#A1AEFF"/>
<stop offset="1" stop-color="white"/>
</linearGradient>
<linearGradient id="paint34_linear" x1="920.442" y1="339.886" x2="920.442" y2="216.523" gradientUnits="userSpaceOnUse">
<stop stop-color="#A3C0FF"/>
<stop offset="1" stop-color="#E39DFF"/>
</linearGradient>
<linearGradient id="paint35_linear" x1="921.45" y1="548.146" x2="921.45" y2="237.707" gradientUnits="userSpaceOnUse">
<stop stop-color="#A1AEFF"/>
<stop offset="1" stop-color="white"/>
</linearGradient>
<linearGradient id="paint36_linear" x1="899.972" y1="491.683" x2="899.972" y2="424.023" gradientUnits="userSpaceOnUse">
<stop stop-color="#A3C0FF"/>
<stop offset="1" stop-color="#E39DFF"/>
</linearGradient>
<linearGradient id="paint37_linear" x1="889.663" y1="623.568" x2="889.663" y2="504.365" gradientUnits="userSpaceOnUse">
<stop stop-color="#A1AEFF"/>
<stop offset="1" stop-color="white"/>
</linearGradient>
<linearGradient id="paint38_linear" x1="869.81" y1="623.642" x2="869.81" y2="506.505" gradientUnits="userSpaceOnUse">
<stop stop-color="#A1AEFF"/>
<stop offset="1" stop-color="white"/>
</linearGradient>
<linearGradient id="paint39_linear" x1="892.083" y1="491.664" x2="892.083" y2="431.006" gradientUnits="userSpaceOnUse">
<stop stop-color="#A1AEFF"/>
<stop offset="1" stop-color="white"/>
</linearGradient>
<linearGradient id="paint40_linear" x1="814.562" y1="373.892" x2="835.001" y2="407.594" gradientUnits="userSpaceOnUse">
<stop stop-color="#FF9085"/>
<stop offset="1" stop-color="#FB6FBB"/>
</linearGradient>
<linearGradient id="paint41_linear" x1="641.489" y1="414.802" x2="640.271" y2="432.51" gradientUnits="userSpaceOnUse">
<stop offset="0.003597" stop-color="#F36F56"/>
<stop offset="1" stop-color="#FFC444"/>
</linearGradient>
<linearGradient id="paint42_linear" x1="758.063" y1="258.991" x2="527.076" y2="495.265" gradientUnits="userSpaceOnUse">
<stop offset="0.00359712" stop-color="#E38DDD"/>
<stop offset="1" stop-color="#9571F6"/>
</linearGradient>
<linearGradient id="paint43_linear" x1="696.525" y1="424.325" x2="696.525" y2="320.615" gradientUnits="userSpaceOnUse">
<stop stop-color="#8E0086"/>
<stop offset="1" stop-color="#F0009E"/>
</linearGradient>
<linearGradient id="paint44_linear" x1="789.247" y1="299.644" x2="760.713" y2="328.83" gradientUnits="userSpaceOnUse">
<stop offset="0.00359712" stop-color="#E38DDD"/>
<stop offset="1" stop-color="#9571F6"/>
</linearGradient>
<linearGradient id="paint45_linear" x1="606.599" y1="445.883" x2="607.214" y2="424.976" gradientUnits="userSpaceOnUse">
<stop stop-color="#AB316D"/>
<stop offset="1" stop-color="#792D3D"/>
</linearGradient>
<linearGradient id="paint46_linear" x1="611.125" y1="414.866" x2="612.765" y2="476.292" gradientUnits="userSpaceOnUse">
<stop offset="0.003597" stop-color="#F36F56"/>
<stop offset="1" stop-color="#FFC444"/>
</linearGradient>
<linearGradient id="paint47_linear" x1="595.113" y1="436.076" x2="615.399" y2="448.522" gradientUnits="userSpaceOnUse">
<stop offset="0.003597" stop-color="#F36F56"/>
<stop offset="1" stop-color="#FFC444"/>
</linearGradient>
<linearGradient id="paint48_linear" x1="690.859" y1="431.317" x2="687.428" y2="442.274" gradientUnits="userSpaceOnUse">
<stop offset="0.003597" stop-color="#F36F56"/>
<stop offset="1" stop-color="#FFC444"/>
</linearGradient>
<linearGradient id="paint49_linear" x1="617.835" y1="680.041" x2="607.329" y2="643.598" gradientUnits="userSpaceOnUse">
<stop stop-color="#444B8C"/>
<stop offset="0.9964" stop-color="#26264F"/>
</linearGradient>
<linearGradient id="paint50_linear" x1="608.444" y1="672.843" x2="609.249" y2="614.541" gradientUnits="userSpaceOnUse">
<stop stop-color="#FFC444"/>
<stop offset="0.9964" stop-color="#F36F56"/>
</linearGradient>
<linearGradient id="paint51_linear" x1="629.014" y1="670.95" x2="629.819" y2="612.644" gradientUnits="userSpaceOnUse">
<stop stop-color="#FFC444"/>
<stop offset="0.9964" stop-color="#F36F56"/>
</linearGradient>
<linearGradient id="paint52_linear" x1="633.038" y1="673.21" x2="622.532" y2="636.767" gradientUnits="userSpaceOnUse">
<stop stop-color="#444B8C"/>
<stop offset="0.9964" stop-color="#26264F"/>
</linearGradient>
<linearGradient id="paint53_linear" x1="605.143" y1="546.967" x2="598.126" y2="667.366" gradientUnits="userSpaceOnUse">
<stop stop-color="#AA80F9"/>
<stop offset="0.9964" stop-color="#6165D7"/>
</linearGradient>
<linearGradient id="paint54_linear" x1="605.143" y1="546.967" x2="598.126" y2="667.366" gradientUnits="userSpaceOnUse">
<stop stop-color="#AA80F9"/>
<stop offset="0.9964" stop-color="#6165D7"/>
</linearGradient>
<linearGradient id="paint55_linear" x1="701.422" y1="598.119" x2="583.482" y2="591.125" gradientUnits="userSpaceOnUse">
<stop stop-color="#AA80F9"/>
<stop offset="0.9964" stop-color="#6165D7"/>
</linearGradient>
<linearGradient id="paint56_linear" x1="637.07" y1="561.427" x2="637.07" y2="426.932" gradientUnits="userSpaceOnUse">
<stop stop-color="#A1AEFF"/>
<stop offset="1" stop-color="white"/>
</linearGradient>
<linearGradient id="paint57_linear" x1="657.107" y1="466.417" x2="635.857" y2="577.094" gradientUnits="userSpaceOnUse">
<stop offset="0.00359712" stop-color="#6165D7"/>
<stop offset="1" stop-color="#AA80F9"/>
</linearGradient>
<linearGradient id="paint58_linear" x1="967.227" y1="445.795" x2="1013.62" y2="551.304" gradientUnits="userSpaceOnUse">
<stop stop-color="#AA80F9"/>
<stop offset="0.9964" stop-color="#6165D7"/>
</linearGradient>
<linearGradient id="paint59_linear" x1="1029.26" y1="705.745" x2="954.026" y2="452.308" gradientUnits="userSpaceOnUse">
<stop stop-color="#FFC444"/>
<stop offset="0.9964" stop-color="#F36F56"/>
</linearGradient>
<linearGradient id="paint60_linear" x1="899.973" y1="707.998" x2="1086.45" y2="707.998" gradientUnits="userSpaceOnUse">
<stop stop-color="#FFBCB6"/>
<stop offset="1" stop-color="#FB6FBB"/>
</linearGradient>
<linearGradient id="paint61_linear" x1="887.308" y1="709.472" x2="969.382" y2="708.575" gradientUnits="userSpaceOnUse">
<stop stop-color="#AA80F9"/>
<stop offset="0.9964" stop-color="#6165D7"/>
</linearGradient>
<linearGradient id="paint62_linear" x1="960.379" y1="745.299" x2="944.815" y2="722.257" gradientUnits="userSpaceOnUse">
<stop stop-color="#FFC444"/>
<stop offset="0.9964" stop-color="#F36F56"/>
</linearGradient>
<linearGradient id="paint63_linear" x1="956.04" y1="738.876" x2="933.238" y2="705.116" gradientUnits="userSpaceOnUse">
<stop stop-color="#AA80F9"/>
<stop offset="0.9964" stop-color="#6165D7"/>
</linearGradient>
<linearGradient id="paint64_linear" x1="100.363" y1="282.292" x2="228.386" y2="282.724" gradientUnits="userSpaceOnUse">
<stop offset="0.494" stop-color="#EBEFF2"/>
<stop offset="1" stop-color="white"/>
</linearGradient>
<linearGradient id="paint65_linear" x1="202.86" y1="255.554" x2="200.097" y2="290.713" gradientUnits="userSpaceOnUse">
<stop stop-color="#311944"/>
<stop offset="1" stop-color="#A03976"/>
</linearGradient>
<linearGradient id="paint66_linear" x1="195.728" y1="275.128" x2="196.231" y2="238.715" gradientUnits="userSpaceOnUse">
<stop stop-color="#FFC444"/>
<stop offset="0.9964" stop-color="#F36F56"/>
</linearGradient>
<linearGradient id="paint67_linear" x1="150.656" y1="251.453" x2="147.893" y2="286.611" gradientUnits="userSpaceOnUse">
<stop stop-color="#311944"/>
<stop offset="1" stop-color="#A03976"/>
</linearGradient>
<linearGradient id="paint68_linear" x1="147.886" y1="274.469" x2="148.388" y2="238.053" gradientUnits="userSpaceOnUse">
<stop stop-color="#FFC444"/>
<stop offset="0.9964" stop-color="#F36F56"/>
</linearGradient>
<linearGradient id="paint69_linear" x1="204.419" y1="216.139" x2="177.495" y2="216.139" gradientUnits="userSpaceOnUse">
<stop stop-color="#AA80F9"/>
<stop offset="0.9964" stop-color="#6165D7"/>
</linearGradient>
<linearGradient id="paint70_linear" x1="204.419" y1="216.14" x2="177.495" y2="216.14" gradientUnits="userSpaceOnUse">
<stop stop-color="#AA80F9"/>
<stop offset="0.9964" stop-color="#6165D7"/>
</linearGradient>
<linearGradient id="paint71_linear" x1="196.945" y1="213.485" x2="142.745" y2="213.485" gradientUnits="userSpaceOnUse">
<stop stop-color="#AA80F9"/>
<stop offset="0.9964" stop-color="#6165D7"/>
</linearGradient>
<linearGradient id="paint72_linear" x1="244.455" y1="151.553" x2="236.081" y2="156.656" gradientUnits="userSpaceOnUse">
<stop stop-color="#FFC444"/>
<stop offset="0.9964" stop-color="#F36F56"/>
</linearGradient>
<linearGradient id="paint73_linear" x1="146.684" y1="109.757" x2="179.462" y2="99.8916" gradientUnits="userSpaceOnUse">
<stop stop-color="#AA80F9"/>
<stop offset="0.9964" stop-color="#6165D7"/>
</linearGradient>
<linearGradient id="paint74_linear" x1="170.105" y1="107.536" x2="158.786" y2="88.9581" gradientUnits="userSpaceOnUse">
<stop stop-color="#FFC444"/>
<stop offset="0.9964" stop-color="#F36F56"/>
</linearGradient>
<linearGradient id="paint75_linear" x1="162.409" y1="101.553" x2="170.465" y2="77.6581" gradientUnits="userSpaceOnUse">
<stop offset="0.00359712" stop-color="#E38DDD"/>
<stop offset="1" stop-color="#9571F6"/>
</linearGradient>
<linearGradient id="paint76_linear" x1="179.975" y1="94.1813" x2="161" y2="82.5841" gradientUnits="userSpaceOnUse">
<stop stop-color="#FFC444"/>
<stop offset="0.9964" stop-color="#F36F56"/>
</linearGradient>
<linearGradient id="paint77_linear" x1="121.243" y1="166.66" x2="197.301" y2="143.769" gradientUnits="userSpaceOnUse">
<stop stop-color="#AA80F9"/>
<stop offset="0.9964" stop-color="#6165D7"/>
</linearGradient>
<linearGradient id="paint78_linear" x1="195.707" y1="147.107" x2="230.799" y2="136.546" gradientUnits="userSpaceOnUse">
<stop stop-color="#AA80F9"/>
<stop offset="0.9964" stop-color="#6165D7"/>
</linearGradient>
<linearGradient id="paint79_linear" x1="206.535" y1="197.202" x2="206.535" y2="117.454" gradientUnits="userSpaceOnUse">
<stop stop-color="#AE42FE"/>
<stop offset="1" stop-color="#789AFF"/>
</linearGradient>
<linearGradient id="paint80_linear" x1="352.606" y1="180.043" x2="352.606" y2="-0.0196299" gradientUnits="userSpaceOnUse">
<stop stop-color="#A3C0FF"/>
<stop offset="1" stop-color="#E39DFF"/>
</linearGradient>
<linearGradient id="paint81_linear" x1="356.065" y1="183.831" x2="356.065" y2="3.77851" gradientUnits="userSpaceOnUse">
<stop stop-color="#AE42FE"/>
<stop offset="1" stop-color="#789AFF"/>
</linearGradient>
<linearGradient id="paint82_linear" x1="356.266" y1="178.914" x2="356.266" y2="9.03636" gradientUnits="userSpaceOnUse">
<stop stop-color="#AE42FE"/>
<stop offset="1" stop-color="#789AFF"/>
</linearGradient>
<linearGradient id="paint83_linear" x1="147.947" y1="184.117" x2="143.407" y2="172.494" gradientUnits="userSpaceOnUse">
<stop stop-color="#FFC444"/>
<stop offset="0.9964" stop-color="#F36F56"/>
</linearGradient>
<linearGradient id="paint84_linear" x1="260.782" y1="709.631" x2="286.714" y2="709.631" gradientUnits="userSpaceOnUse">
<stop stop-color="#444B8C"/>
<stop offset="0.9964" stop-color="#26264F"/>
</linearGradient>
<linearGradient id="paint85_linear" x1="526.847" y1="565.356" x2="436.729" y2="553.413" gradientUnits="userSpaceOnUse">
<stop offset="0.494" stop-color="#EBEFF2"/>
<stop offset="1" stop-color="white"/>
</linearGradient>
<linearGradient id="paint86_linear" x1="485.103" y1="714.766" x2="485.103" y2="495.398" gradientUnits="userSpaceOnUse">
<stop stop-color="#AB009A"/>
<stop offset="1" stop-color="#F40043"/>
</linearGradient>
<linearGradient id="paint87_linear" x1="485.103" y1="503.021" x2="485.103" y2="487.907" gradientUnits="userSpaceOnUse">
<stop stop-color="#AB009A"/>
<stop offset="1" stop-color="#F40043"/>
</linearGradient>
<linearGradient id="paint88_linear" x1="490.586" y1="388.67" x2="483.474" y2="408.433" gradientUnits="userSpaceOnUse">
<stop offset="0.494" stop-color="#EBEFF2"/>
<stop offset="1" stop-color="white"/>
</linearGradient>
<linearGradient id="paint89_linear" x1="489.83" y1="388.398" x2="482.719" y2="408.161" gradientUnits="userSpaceOnUse">
<stop offset="0.494" stop-color="#EBEFF2"/>
<stop offset="1" stop-color="white"/>
</linearGradient>
<linearGradient id="paint90_linear" x1="485.699" y1="409.338" x2="484.501" y2="393.168" gradientUnits="userSpaceOnUse">
<stop offset="0.494" stop-color="#EBEFF2"/>
<stop offset="1" stop-color="white"/>
</linearGradient>
<linearGradient id="paint91_linear" x1="454.929" y1="568.5" x2="364.812" y2="556.557" gradientUnits="userSpaceOnUse">
<stop offset="0.494" stop-color="#EBEFF2"/>
<stop offset="1" stop-color="white"/>
</linearGradient>
<linearGradient id="paint92_linear" x1="413.2" y1="717.952" x2="413.2" y2="502.214" gradientUnits="userSpaceOnUse">
<stop stop-color="#AB009A"/>
<stop offset="1" stop-color="#F40043"/>
</linearGradient>
<linearGradient id="paint93_linear" x1="413.237" y1="509.615" x2="413.237" y2="494.798" gradientUnits="userSpaceOnUse">
<stop stop-color="#AB009A"/>
<stop offset="1" stop-color="#F40043"/>
</linearGradient>
<linearGradient id="paint94_linear" x1="418.668" y1="391.814" x2="411.556" y2="411.577" gradientUnits="userSpaceOnUse">
<stop offset="0.494" stop-color="#EBEFF2"/>
<stop offset="1" stop-color="white"/>
</linearGradient>
<linearGradient id="paint95_linear" x1="417.913" y1="391.542" x2="410.801" y2="411.305" gradientUnits="userSpaceOnUse">
<stop offset="0.494" stop-color="#EBEFF2"/>
<stop offset="1" stop-color="white"/>
</linearGradient>
<linearGradient id="paint96_linear" x1="413.78" y1="412.482" x2="412.583" y2="396.312" gradientUnits="userSpaceOnUse">
<stop offset="0.494" stop-color="#EBEFF2"/>
<stop offset="1" stop-color="white"/>
</linearGradient>
<linearGradient id="paint97_linear" x1="387.336" y1="570.747" x2="297.218" y2="558.803" gradientUnits="userSpaceOnUse">
<stop offset="0.494" stop-color="#EBEFF2"/>
<stop offset="1" stop-color="white"/>
</linearGradient>
<linearGradient id="paint98_linear" x1="345.554" y1="720.176" x2="345.554" y2="531.998" gradientUnits="userSpaceOnUse">
<stop stop-color="#AB009A"/>
<stop offset="1" stop-color="#F40043"/>
</linearGradient>
<linearGradient id="paint99_linear" x1="345.59" y1="543.029" x2="345.59" y2="520.952" gradientUnits="userSpaceOnUse">
<stop stop-color="#AB009A"/>
<stop offset="1" stop-color="#F40043"/>
</linearGradient>
<linearGradient id="paint100_linear" x1="351.074" y1="394.06" x2="343.962" y2="413.823" gradientUnits="userSpaceOnUse">
<stop offset="0.494" stop-color="#EBEFF2"/>
<stop offset="1" stop-color="white"/>
</linearGradient>
<linearGradient id="paint101_linear" x1="350.319" y1="393.788" x2="343.207" y2="413.551" gradientUnits="userSpaceOnUse">
<stop offset="0.494" stop-color="#EBEFF2"/>
<stop offset="1" stop-color="white"/>
</linearGradient>
<linearGradient id="paint102_linear" x1="346.187" y1="414.728" x2="344.99" y2="398.558" gradientUnits="userSpaceOnUse">
<stop offset="0.494" stop-color="#EBEFF2"/>
<stop offset="1" stop-color="white"/>
</linearGradient>
<linearGradient id="paint103_linear" x1="317.09" y1="744.453" x2="343.022" y2="744.453" gradientUnits="userSpaceOnUse">
<stop stop-color="#444B8C"/>
<stop offset="0.9964" stop-color="#26264F"/>
</linearGradient>
<linearGradient id="paint104_linear" x1="548.253" y1="717.781" x2="574.185" y2="717.781" gradientUnits="userSpaceOnUse">
<stop stop-color="#444B8C"/>
<stop offset="0.9964" stop-color="#26264F"/>
</linearGradient>
<linearGradient id="paint105_linear" x1="210.481" y1="555.229" x2="256.723" y2="555.229" gradientUnits="userSpaceOnUse">
<stop offset="0.00359712" stop-color="#6165D7"/>
<stop offset="1" stop-color="#AA80F9"/>
</linearGradient>
<linearGradient id="paint106_linear" x1="137.793" y1="749.694" x2="150.218" y2="749.694" gradientUnits="userSpaceOnUse">
<stop stop-color="#444B8C"/>
<stop offset="0.9964" stop-color="#26264F"/>
</linearGradient>
<linearGradient id="paint107_linear" x1="145.31" y1="761.895" x2="133.843" y2="623.243" gradientUnits="userSpaceOnUse">
<stop stop-color="#FFC444"/>
<stop offset="0.9964" stop-color="#F36F56"/>
</linearGradient>
<linearGradient id="paint108_linear" x1="180.326" y1="685.069" x2="161.987" y2="604.836" gradientUnits="userSpaceOnUse">
<stop stop-color="#AA80F9"/>
<stop offset="0.9964" stop-color="#6165D7"/>
</linearGradient>
<linearGradient id="paint109_linear" x1="180.326" y1="685.069" x2="161.987" y2="604.835" gradientUnits="userSpaceOnUse">
<stop stop-color="#AA80F9"/>
<stop offset="0.9964" stop-color="#6165D7"/>
</linearGradient>
<linearGradient id="paint110_linear" x1="264.336" y1="748.005" x2="278.226" y2="748.005" gradientUnits="userSpaceOnUse">
<stop stop-color="#444B8C"/>
<stop offset="0.9964" stop-color="#26264F"/>
</linearGradient>
<linearGradient id="paint111_linear" x1="263.256" y1="752.14" x2="251.788" y2="613.489" gradientUnits="userSpaceOnUse">
<stop stop-color="#FFC444"/>
<stop offset="0.9964" stop-color="#F36F56"/>
</linearGradient>
<linearGradient id="paint112_linear" x1="237.016" y1="746.824" x2="221.133" y2="608.414" gradientUnits="userSpaceOnUse">
<stop stop-color="#AA80F9"/>
<stop offset="0.9964" stop-color="#6165D7"/>
</linearGradient>
<linearGradient id="paint113_linear" x1="257.926" y1="555.035" x2="181.059" y2="653.537" gradientUnits="userSpaceOnUse">
<stop offset="0.00359712" stop-color="#6165D7"/>
<stop offset="1" stop-color="#AA80F9"/>
</linearGradient>
<linearGradient id="paint114_linear" x1="231.072" y1="527.751" x2="217.742" y2="547.707" gradientUnits="userSpaceOnUse">
<stop stop-color="#FFC444"/>
<stop offset="0.9964" stop-color="#F36F56"/>
</linearGradient>
<linearGradient id="paint115_linear" x1="193.517" y1="519.422" x2="153.817" y2="656.717" gradientUnits="userSpaceOnUse">
<stop stop-color="#AB316D"/>
<stop offset="1" stop-color="#792D3D"/>
</linearGradient>
<linearGradient id="paint116_linear" x1="261.483" y1="524.963" x2="240.052" y2="573.183" gradientUnits="userSpaceOnUse">
<stop stop-color="#FFC444"/>
<stop offset="0.9964" stop-color="#F36F56"/>
</linearGradient>
<linearGradient id="paint117_linear" x1="313.238" y1="577.142" x2="291.473" y2="626.115" gradientUnits="userSpaceOnUse">
<stop stop-color="#FFC444"/>
<stop offset="0.9964" stop-color="#F36F56"/>
</linearGradient>
</defs>
</svg>
