<svg width="266" height="146" viewBox="0 0 266 146" fill="none" xmlns="http://www.w3.org/2000/svg">
<path d="M63.1924 39.3811C79.4459 20.9223 113.808 14.6914 146.341 10.8229C178.4 7.01057 213.651 5.03619 238.537 18.5302C263.485 32.0571 266.92 54.6863 265.824 75.6094C264.731 96.4859 257.852 118.002 232.635 131.249C206.142 145.167 169.796 149.284 136.787 143.396C104.362 137.611 80.3047 121.233 66.4116 101.597C52.3423 81.7125 46.4486 58.3968 63.1924 39.3811Z" fill="url(#paint0_linear)"/>
<path d="M112.44 54.4V56.58H108.6V68H106.24V56.58H102.38V54.4H112.44ZM116.195 58.92C117.355 58.92 118.255 59.2067 118.895 59.78C119.549 60.3533 119.875 61.1733 119.875 62.24V68H118.415L118.015 66.66C117.309 67.6733 116.249 68.18 114.835 68.18C113.995 68.18 113.315 67.96 112.795 67.52C112.289 67.0667 112.035 66.4533 112.035 65.68C112.035 64.68 112.442 63.9067 113.255 63.36C114.069 62.8 115.169 62.52 116.555 62.52C116.875 62.52 117.249 62.5333 117.675 62.56V62.16C117.675 61.24 117.069 60.78 115.855 60.78C115.002 60.78 114.075 61.02 113.075 61.5L112.455 59.84C113.802 59.2267 115.049 58.92 116.195 58.92ZM115.475 66.54C116.129 66.54 116.662 66.3133 117.075 65.86C117.502 65.4067 117.722 64.78 117.735 63.98C117.375 63.94 117.029 63.92 116.695 63.92C115.909 63.92 115.295 64.0533 114.855 64.32C114.415 64.5867 114.195 64.9667 114.195 65.46C114.195 66.18 114.622 66.54 115.475 66.54ZM126.383 63.4L130.223 67.9V68H127.723L124.503 64.2V68H122.323V59.08H124.503V62.62L127.443 59.08H129.923V59.16L126.383 63.4ZM142.272 63.42C143.259 63.7533 143.752 64.4533 143.752 65.52C143.752 66.2933 143.485 66.9 142.952 67.34C142.419 67.78 141.712 68 140.832 68H136.112V59.08H140.492C141.345 59.08 142.032 59.3 142.552 59.74C143.085 60.1667 143.352 60.74 143.352 61.46C143.352 62.3533 142.992 63.0067 142.272 63.42ZM140.052 60.66H138.232V62.74H140.052C140.465 62.74 140.772 62.64 140.972 62.44C141.172 62.2267 141.272 61.9667 141.272 61.66C141.272 61.3667 141.172 61.1267 140.972 60.94C140.772 60.7533 140.465 60.66 140.052 60.66ZM140.292 66.42C141.145 66.42 141.572 66.06 141.572 65.34C141.572 65.0067 141.465 64.74 141.252 64.54C141.039 64.34 140.719 64.24 140.292 64.24H138.232V66.42H140.292ZM150.041 61.92C151.068 61.92 151.881 62.1933 152.481 62.74C153.081 63.2867 153.381 64.0267 153.381 64.96C153.381 65.9067 153.081 66.6533 152.481 67.2C151.881 67.7333 151.068 68 150.041 68H145.741V59.08H147.941V61.92H150.041ZM154.881 59.08H157.061V68H154.881V59.08ZM149.601 66.32C150.668 66.32 151.201 65.8667 151.201 64.96C151.201 64.0533 150.668 63.6 149.601 63.6H147.941V66.32H149.601ZM159.628 68V59.08H165.688V60.96H161.828V68H159.628ZM165.759 68.14L165.519 66.24C166.252 66.16 166.766 65.9133 167.059 65.5C167.366 65.0733 167.559 64.4 167.639 63.48L168.019 59.08H174.499V68H172.319V60.96H169.939L169.739 63.62C169.606 65.1667 169.239 66.2867 168.639 66.98C168.039 67.66 167.079 68.0467 165.759 68.14ZM180.07 59.08H184.37V68H182.21V64.94H180.67L178.61 68H176.19V67.9L178.53 64.66C177.383 64.1933 176.81 63.3133 176.81 62.02C176.81 61.1267 177.103 60.4133 177.69 59.88C178.276 59.3467 179.07 59.08 180.07 59.08ZM180.41 63.36H182.21V60.78H180.41C179.463 60.78 178.99 61.2133 178.99 62.08C178.99 62.9333 179.463 63.36 180.41 63.36ZM194.792 66.16H196.032V70.28H194.032V68H187.952V70.28H185.952V66.16H187.072C187.486 65.5067 187.746 64.5933 187.852 63.42L188.252 59.08H194.792V66.16ZM190.172 60.9L189.892 63.78C189.799 64.8067 189.606 65.6133 189.312 66.2H192.692V60.9H190.172ZM204.794 59.08H205.634V68H203.474V63.92C203.474 63.4667 203.487 63.12 203.514 62.88C203.287 63.16 203.02 63.4533 202.714 63.76L198.554 68.02H197.714V59.08H199.874V63.08C199.874 63.5733 199.86 63.94 199.834 64.18C200.034 63.94 200.334 63.6067 200.734 63.18L204.794 59.08ZM209.822 68V60.96H207.262V59.08H214.562V60.96H212.022V68H209.822ZM109.06 86.08H111.26V95H109.06V91.44H105.46V95H103.28V86.08H105.46V89.56H109.06V86.08ZM117.387 85.92C118.547 85.92 119.447 86.2067 120.087 86.78C120.74 87.3533 121.067 88.1733 121.067 89.24V95H119.607L119.207 93.66C118.5 94.6733 117.44 95.18 116.027 95.18C115.187 95.18 114.507 94.96 113.987 94.52C113.48 94.0667 113.227 93.4533 113.227 92.68C113.227 91.68 113.634 90.9067 114.447 90.36C115.26 89.8 116.36 89.52 117.747 89.52C118.067 89.52 118.44 89.5333 118.867 89.56V89.16C118.867 88.24 118.26 87.78 117.047 87.78C116.194 87.78 115.267 88.02 114.267 88.5L113.647 86.84C114.994 86.2267 116.24 85.92 117.387 85.92ZM116.667 93.54C117.32 93.54 117.854 93.3133 118.267 92.86C118.694 92.4067 118.914 91.78 118.927 90.98C118.567 90.94 118.22 90.92 117.887 90.92C117.1 90.92 116.487 91.0533 116.047 91.32C115.607 91.5867 115.387 91.9667 115.387 92.46C115.387 93.18 115.814 93.54 116.667 93.54ZM133.654 86.08H135.814V95H123.514V86.08H125.674V93.12H128.574V86.08H130.734V93.12H133.654V86.08ZM141.938 85.92C143.098 85.92 143.998 86.2067 144.638 86.78C145.291 87.3533 145.618 88.1733 145.618 89.24V95H144.158L143.758 93.66C143.051 94.6733 141.991 95.18 140.578 95.18C139.738 95.18 139.058 94.96 138.538 94.52C138.031 94.0667 137.778 93.4533 137.778 92.68C137.778 91.68 138.184 90.9067 138.998 90.36C139.811 89.8 140.911 89.52 142.298 89.52C142.618 89.52 142.991 89.5333 143.418 89.56V89.16C143.418 88.24 142.811 87.78 141.598 87.78C140.744 87.78 139.818 88.02 138.818 88.5L138.198 86.84C139.544 86.2267 140.791 85.92 141.938 85.92ZM141.218 93.54C141.871 93.54 142.404 93.3133 142.818 92.86C143.244 92.4067 143.464 91.78 143.478 90.98C143.118 90.94 142.771 90.92 142.438 90.92C141.651 90.92 141.038 91.0533 140.598 91.32C140.158 91.5867 139.938 91.9667 139.938 92.46C139.938 93.18 140.364 93.54 141.218 93.54ZM156.597 95.26C155.371 95.26 154.297 94.84 153.377 94C152.457 93.16 151.997 92.0067 151.997 90.54C151.997 89.1267 152.451 87.9933 153.357 87.14C154.264 86.2733 155.377 85.84 156.697 85.84C157.991 85.84 159.097 86.24 160.017 87.04L158.957 88.5C158.357 87.9933 157.657 87.74 156.857 87.74C156.097 87.74 155.464 88 154.957 88.52C154.451 89.0267 154.197 89.7 154.197 90.54C154.197 91.3933 154.444 92.0733 154.937 92.58C155.444 93.0867 156.071 93.34 156.817 93.34C157.684 93.34 158.444 93.0333 159.097 92.42L160.197 93.88C159.197 94.8 157.997 95.26 156.597 95.26ZM168.856 86.08H169.696V95H167.536V90.92C167.536 90.4667 167.549 90.12 167.576 89.88C167.349 90.16 167.083 90.4533 166.776 90.76L162.616 95.02H161.776V86.08H163.936V90.08C163.936 90.5733 163.923 90.94 163.896 91.18C164.096 90.94 164.396 90.6067 164.796 90.18L168.856 86.08ZM176.304 95.26C175.078 95.26 174.004 94.84 173.084 94C172.164 93.16 171.704 92.0067 171.704 90.54C171.704 89.1267 172.158 87.9933 173.064 87.14C173.971 86.2733 175.084 85.84 176.404 85.84C177.698 85.84 178.804 86.24 179.724 87.04L178.664 88.5C178.064 87.9933 177.364 87.74 176.564 87.74C175.804 87.74 175.171 88 174.664 88.52C174.158 89.0267 173.904 89.7 173.904 90.54C173.904 91.3933 174.151 92.0733 174.644 92.58C175.151 93.0867 175.778 93.34 176.524 93.34C177.391 93.34 178.151 93.0333 178.804 92.42L179.904 93.88C178.904 94.8 177.704 95.26 176.304 95.26ZM183.162 95V87.96H180.602V86.08H187.902V87.96H185.362V95H183.162ZM193.258 85.84C194.511 85.84 195.498 86.2333 196.218 87.02C196.951 87.8067 197.318 88.8733 197.318 90.22C197.318 90.4333 197.291 90.78 197.238 91.26H190.838C190.971 91.9667 191.291 92.5133 191.798 92.9C192.318 93.2733 192.944 93.46 193.678 93.46C194.611 93.46 195.398 93.18 196.038 92.62L196.958 94.02C195.931 94.8467 194.771 95.26 193.478 95.26C192.051 95.26 190.891 94.82 189.998 93.94C189.104 93.06 188.658 91.92 188.658 90.52C188.658 89.2 189.091 88.0933 189.958 87.2C190.824 86.2933 191.924 85.84 193.258 85.84ZM193.217 87.62C192.618 87.62 192.104 87.8133 191.678 88.2C191.251 88.5733 190.978 89.1 190.858 89.78H195.258C195.231 89.0867 195.031 88.5533 194.658 88.18C194.284 87.8067 193.804 87.62 193.217 87.62ZM208.737 86.04L209.557 95H206.917L206.657 91.5L206.597 90.64C206.57 90.68 206.337 90.9733 205.897 91.52L204.417 93.28H203.857L202.437 91.6L201.697 90.68C201.683 90.8933 201.663 91.2 201.637 91.6L201.377 95H198.737L199.577 86.04H200.537L203.417 89.34C203.657 89.5933 203.897 89.8733 204.137 90.18C204.457 89.8067 204.697 89.5333 204.857 89.36L207.777 86.04H208.737ZM215.141 85.92C216.301 85.92 217.201 86.2067 217.841 86.78C218.494 87.3533 218.821 88.1733 218.821 89.24V95H217.361L216.961 93.66C216.254 94.6733 215.194 95.18 213.781 95.18C212.941 95.18 212.261 94.96 211.741 94.52C211.234 94.0667 210.981 93.4533 210.981 92.68C210.981 91.68 211.387 90.9067 212.201 90.36C213.014 89.8 214.114 89.52 215.501 89.52C215.821 89.52 216.194 89.5333 216.621 89.56V89.16C216.621 88.24 216.014 87.78 214.801 87.78C213.947 87.78 213.021 88.02 212.021 88.5L211.401 86.84C212.747 86.2267 213.994 85.92 215.141 85.92ZM214.421 93.54C215.074 93.54 215.607 93.3133 216.021 92.86C216.447 92.4067 216.667 91.78 216.681 90.98C216.321 90.94 215.974 90.92 215.641 90.92C214.854 90.92 214.241 91.0533 213.801 91.32C213.361 91.5867 213.141 91.9667 213.141 92.46C213.141 93.18 213.567 93.54 214.421 93.54Z" fill="white"/>
<path d="M17.7653 32.5351C14.1257 26.377 10.0307 21.4207 6.13905 15.8603C4.93804 14.1443 3.7124 12.4718 2.44046 10.9696C1.87247 10.2988 1.85868 10.4122 2.37265 10.8742C3.10956 11.5367 3.86778 11.9542 4.61072 12.562C5.83977 13.5673 7.20334 13.7463 8.41693 14.1382C11.1105 15.0082 13.8092 15.6656 16.479 16.2791C19.9375 17.0738 23.0347 16.0103 26.2991 15.7321C26.5253 15.7128 29.4835 15.4409 27.6584 15.8977C23.6145 16.9097 19.6122 18.1445 15.3079 17.9771C14.0656 17.9287 12.8258 17.5933 11.5746 17.3941C11.4201 17.3695 10.1904 17.0727 10.481 17.4711C12.0362 19.6027 14.8198 20.1829 16.5116 21.441C21.1737 24.9078 25.3217 28.6231 30.1119 30.8501C34.9803 33.1133 39.8357 34.923 44.693 36.9229" stroke="#5CCE7C" stroke-width="3" stroke-linecap="round" stroke-linejoin="round"/>
<defs>
<linearGradient id="paint0_linear" x1="159.394" y1="8.0261" x2="159.394" y2="146.251" gradientUnits="userSpaceOnUse">
<stop stop-color="#AA80F9"/>
<stop offset="0.9964" stop-color="#6165D7"/>
</linearGradient>
</defs>
</svg>
