<svg width="136" height="57" viewBox="0 0 136 57" fill="none" xmlns="http://www.w3.org/2000/svg">
<g clip-path="url(#clip0)">
<path d="M61.1386 17.8812C62.1098 18.1393 62.8487 18.6127 63.3555 19.2581C63.8622 19.9035 64.1155 20.6996 64.1155 21.6677C64.1155 23.0232 63.6299 24.0989 62.6376 24.8519C61.6453 25.6049 60.2096 25.9922 58.3306 25.9922H51.0889V10.394H57.9083C59.6185 10.394 60.9697 10.7383 61.9198 11.4483C62.8699 12.1367 63.3555 13.1264 63.3555 14.4173C63.3555 15.2349 63.1654 15.9448 62.7643 16.5257C62.4054 17.1066 61.8564 17.5584 61.1386 17.8812ZM53.8969 17.0421H57.6972C58.6051 17.0421 59.3018 16.8485 59.7874 16.4827C60.273 16.117 60.5052 15.5576 60.5052 14.8261C60.5052 14.0946 60.273 13.5567 59.7874 13.1694C59.3018 12.7822 58.6051 12.5885 57.6972 12.5885H53.8969V17.0421ZM58.2461 23.7547C60.2519 23.7547 61.2653 22.9801 61.2653 21.4311C61.2653 19.9251 60.2519 19.1505 58.2461 19.1505H53.8758V23.7332H58.2461V23.7547Z" fill="white"/>
<path d="M77.4798 22.3772H69.8369L68.3379 25.9917H65.4243L72.3071 10.415H75.094L81.9979 25.9917H79.021L77.4798 22.3772ZM76.5297 20.0967L73.6583 13.2765L70.8081 20.0967H76.5297Z" fill="white"/>
<path d="M91.1188 26.2071C89.5776 26.2071 88.1841 25.8629 86.9385 25.1744C85.6928 24.486 84.7216 23.5178 84.0249 22.313C83.3282 21.0866 82.9692 19.7312 82.9692 18.2037C82.9692 16.6761 83.3282 15.2992 84.046 14.0944C84.7638 12.868 85.735 11.9214 86.9596 11.2544C88.2052 10.5659 89.5987 10.2002 91.1399 10.2002C92.3856 10.2002 93.5257 10.4153 94.5602 10.8672C95.5948 11.319 96.4604 11.9644 97.1782 12.8035L95.3414 14.5677C94.2435 13.3413 92.8712 12.7389 91.2666 12.7389C90.211 12.7389 89.282 12.9756 88.4586 13.4489C87.6352 13.9007 86.9807 14.5462 86.5162 15.3852C86.0517 16.2243 85.8195 17.1494 85.8195 18.2037C85.8195 19.2579 86.0517 20.2045 86.5162 21.0221C86.9807 21.8612 87.6352 22.5066 88.4586 22.9799C89.282 23.4317 90.2321 23.6684 91.2666 23.6684C92.8712 23.6684 94.2435 23.0445 95.3414 21.8181L97.1782 23.6039C96.4604 24.4429 95.5948 25.0884 94.5391 25.5402C93.5257 25.9705 92.3856 26.2071 91.1188 26.2071Z" fill="white"/>
<path d="M64.0521 31.8652V47.5495H62.4475V33.2852H52.7144V47.5495H51.1099V31.8652H64.0521Z" fill="white"/>
<path d="M76.0024 47.6788C74.4822 47.6788 73.0888 47.3345 71.8431 46.646C70.6186 45.9361 69.6474 44.9894 68.9296 43.7846C68.2328 42.5798 67.895 41.2243 67.895 39.6968C67.895 38.1908 68.2328 36.8353 68.9296 35.609C69.6263 34.4042 70.5975 33.4575 71.8431 32.7691C73.0888 32.0591 74.4822 31.7148 76.0024 31.7148C77.5225 31.7148 78.8948 32.0591 80.1194 32.7476C81.3439 33.436 82.3151 34.3827 83.0119 35.609C83.7086 36.8138 84.0675 38.1693 84.0675 39.6968C84.0675 41.2028 83.7086 42.5798 83.0119 43.8061C82.3151 45.0109 81.3439 45.9576 80.1194 46.646C78.8948 47.3345 77.5225 47.6788 76.0024 47.6788ZM76.0024 46.1942C77.2269 46.1942 78.3248 45.9145 79.296 45.3552C80.2883 44.7958 81.0484 44.0213 81.5973 43.0316C82.1462 42.0204 82.4418 40.9231 82.4418 39.6968C82.4418 38.4705 82.1673 37.3732 81.5973 36.3835C81.0484 35.3723 80.2672 34.5978 79.296 34.0599C78.3037 33.5006 77.2058 33.1994 76.0024 33.1994C74.7778 33.1994 73.68 33.479 72.6877 34.0599C71.6953 34.6193 70.9353 35.3939 70.3652 36.3835C69.8163 37.3732 69.5207 38.4705 69.5207 39.6968C69.5207 40.9231 69.7952 42.0419 70.3652 43.0316C70.9353 44.0213 71.7165 44.7958 72.6877 45.3552C73.68 45.9361 74.7778 46.1942 76.0024 46.1942Z" fill="white"/>
<path d="M100.809 31.8652V47.5495H99.2048V40.3205H89.5774V47.5495H87.9517V31.8652H89.5774V38.8575H99.2048V31.8652H100.809Z" fill="white"/>
<path d="M116.919 31.8652V47.5495H115.314V42.7947H110.712C110.5 42.7947 110.205 42.7732 109.825 42.7517L106.595 47.5495H104.863L108.368 42.472C107.249 42.1277 106.383 41.5253 105.771 40.6648C105.18 39.7826 104.863 38.7069 104.863 37.4375C104.863 35.6733 105.412 34.3179 106.489 33.3282C107.587 32.3601 109.065 31.8652 110.923 31.8652H116.919ZM106.489 37.373C106.489 38.6639 106.848 39.6536 107.587 40.3635C108.326 41.052 109.424 41.3962 110.838 41.3962H115.293V33.3067H110.986C109.55 33.3067 108.431 33.651 107.65 34.3609C106.89 35.0279 106.489 36.0391 106.489 37.373Z" fill="white"/>
<path fill-rule="evenodd" clip-rule="evenodd" d="M133.387 47.5495H135.097L128.067 31.8652H126.462L119.432 47.5495H121.121L127.265 33.5864L133.387 47.5495Z" fill="white"/>
<path fill-rule="evenodd" clip-rule="evenodd" d="M0.839844 13.4181L26.3231 -0.501953V4.91975C26.1753 4.9843 26.0064 5.07036 25.8586 5.15642L5.16799 16.4947V51.7142C2.44442 49.197 0.839844 45.6256 0.839844 41.7529V13.4181Z" fill="#63C7FF"/>
<path fill-rule="evenodd" clip-rule="evenodd" d="M7.8916 18.4525L25.0986 9.0291C29.3423 6.70551 34.4727 9.84666 34.4727 14.752V16.9465C34.4727 21.2925 32.5937 25.4233 29.3212 28.2417C32.3192 28.8872 34.4727 31.5765 34.4727 34.7177V37.7297C34.4727 43.4526 31.3691 48.7237 26.3865 51.4131L15.0066 57.5448L7.8916 53.6721V18.4525Z" fill="#00A1FB"/>
</g>
<defs>
<clipPath id="clip0">
<rect width="136" height="57" fill="white"/>
</clipPath>
</defs>
</svg>
