<svg width="139" height="51" viewBox="0 0 139 51" fill="none" xmlns="http://www.w3.org/2000/svg">
<g clip-path="url(#clip0)">
<path d="M58.9317 13.1988C59.9881 13.4743 60.7919 13.9796 61.3431 14.6686C61.8943 15.3575 62.1698 16.2073 62.1698 17.2407C62.1698 18.6876 61.6416 19.8358 60.5622 20.6396C59.4829 21.4434 57.9212 21.8568 55.8772 21.8568H48V5.2067H55.4179C57.2781 5.2067 58.748 5.57415 59.7814 6.33202C60.8149 7.06692 61.3431 8.12334 61.3431 9.50128C61.3431 10.374 61.1364 11.1318 60.7 11.7519C60.3096 12.372 59.7125 12.8543 58.9317 13.1988ZM51.0544 12.3031H55.1883C56.1758 12.3031 56.9337 12.0964 57.4619 11.706C57.9901 11.3156 58.2427 10.7185 58.2427 9.93763C58.2427 9.1568 57.9901 8.58265 57.4619 8.16927C56.9337 7.75589 56.1758 7.5492 55.1883 7.5492H51.0544V12.3031ZM55.7854 19.4684C57.9671 19.4684 59.0695 18.6416 59.0695 16.9881C59.0695 15.3805 57.9671 14.5537 55.7854 14.5537H51.0315V19.4454H55.7854V19.4684Z" fill="white"/>
<path d="M76.7072 17.9986H68.3936L66.763 21.8568H63.5938L71.0806 5.22968H74.112L81.6218 21.8568H78.3837L76.7072 17.9986ZM75.6737 15.5642L72.5504 8.28411L69.45 15.5642H75.6737Z" fill="white"/>
<path d="M91.543 22.0865C89.8665 22.0865 88.3508 21.719 86.9958 20.9841C85.6408 20.2492 84.5844 19.2158 83.8265 17.9297C83.0686 16.6206 82.6782 15.1738 82.6782 13.5432C82.6782 11.9127 83.0686 10.4429 83.8495 9.15679C84.6303 7.84775 85.6867 6.83726 87.0187 6.12532C88.3737 5.39042 89.8895 5 91.566 5C92.9209 5 94.1611 5.22966 95.2864 5.71194C96.4117 6.19422 97.3533 6.88319 98.1341 7.77885L96.1361 9.66204C94.9419 8.35299 93.4491 7.70995 91.7037 7.70995C90.5555 7.70995 89.545 7.96258 88.6493 8.46782C87.7536 8.9501 87.0417 9.63907 86.5365 10.5347C86.0312 11.4304 85.7786 12.4179 85.7786 13.5432C85.7786 14.6686 86.0312 15.6791 86.5365 16.5518C87.0417 17.4474 87.7536 18.1364 88.6493 18.6416C89.545 19.1239 90.5784 19.3765 91.7037 19.3765C93.4491 19.3765 94.9419 18.7105 96.1361 17.4015L98.1341 19.3076C97.3533 20.2033 96.4117 20.8923 95.2634 21.3745C94.1611 21.8339 92.9209 22.0865 91.543 22.0865Z" fill="white"/>
<path d="M62.1014 28.1265V44.8685H60.356V29.6422H49.7688V44.8685H48.0234V28.1265H62.1014Z" fill="white"/>
<path d="M75.1001 45.0063C73.4465 45.0063 71.9308 44.6388 70.5758 43.9039C69.2438 43.146 68.1874 42.1355 67.4066 40.8495C66.6487 39.5634 66.2812 38.1165 66.2812 36.486C66.2812 34.8784 66.6487 33.4315 67.4066 32.1225C68.1644 30.8364 69.2209 29.8259 70.5758 29.091C71.9308 28.3331 73.4465 27.9657 75.1001 27.9657C76.7536 27.9657 78.2464 28.3332 79.5784 29.0681C80.9104 29.803 81.9668 30.8134 82.7247 32.1225C83.4826 33.4086 83.873 34.8554 83.873 36.486C83.873 38.0936 83.4826 39.5634 82.7247 40.8724C81.9668 42.1585 80.9104 43.169 79.5784 43.9039C78.2464 44.6388 76.7536 45.0063 75.1001 45.0063ZM75.1001 43.4216C76.4321 43.4216 77.6263 43.1231 78.6827 42.526C79.7621 41.9288 80.5889 41.1021 81.186 40.0457C81.7831 38.9663 82.1046 37.795 82.1046 36.486C82.1046 35.1769 81.8061 34.0057 81.186 32.9493C80.5889 31.8699 79.7392 31.0431 78.6827 30.469C77.6033 29.8719 76.4091 29.5503 75.1001 29.5503C73.7681 29.5503 72.5739 29.8489 71.4945 30.469C70.4151 31.0661 69.5883 31.8928 68.9682 32.9493C68.3711 34.0057 68.0496 35.1769 68.0496 36.486C68.0496 37.795 68.3482 38.9892 68.9682 40.0457C69.5883 41.1021 70.438 41.9288 71.4945 42.526C72.5739 43.146 73.7681 43.4216 75.1001 43.4216Z" fill="white"/>
<path d="M102.085 28.1265V44.8685H100.339V37.152H89.867V44.8685H88.0986V28.1265H89.867V35.5903H100.339V28.1265H102.085Z" fill="white"/>
<path d="M119.608 28.1265V44.8685H117.863V39.793H112.856C112.626 39.793 112.305 39.7701 111.892 39.7471L108.378 44.8685H106.495L110.307 39.4486C109.09 39.0811 108.148 38.4381 107.482 37.5194C106.839 36.5778 106.495 35.4296 106.495 34.0746C106.495 32.1914 107.092 30.7446 108.263 29.6881C109.457 28.6547 111.065 28.1265 113.086 28.1265H119.608ZM108.263 34.0057C108.263 35.3836 108.653 36.4401 109.457 37.1979C110.261 37.9328 111.455 38.3003 112.994 38.3003H117.84V29.6652H113.155C111.593 29.6652 110.376 30.0326 109.526 30.7905C108.699 31.5024 108.263 32.5818 108.263 34.0057Z" fill="white"/>
<path fill-rule="evenodd" clip-rule="evenodd" d="M137.521 44.8685H139.381L131.733 28.1265H129.988L122.34 44.8685H124.178L130.861 29.9637L137.521 44.8685Z" fill="white"/>
<path fill-rule="evenodd" clip-rule="evenodd" d="M0.765625 12.0057L24.0004 -0.449005V4.402C23.8656 4.45975 23.7116 4.53675 23.5769 4.61375L4.71187 14.7585V46.2707C2.22863 44.0185 0.765625 40.823 0.765625 37.358V12.0057Z" fill="#63C7FF"/>
<path fill-rule="evenodd" clip-rule="evenodd" d="M7.19531 16.5103L22.8841 8.07875C26.7533 5.99975 31.4311 8.81025 31.4311 13.1993V15.1627C31.4311 19.0513 29.7178 22.7473 26.7341 25.269C29.4676 25.8465 31.4311 28.2527 31.4311 31.0632V33.7582C31.4311 38.8787 28.6013 43.595 24.0583 46.0013L13.6826 51.4875L7.19531 48.0225V16.5103Z" fill="#00A1FB"/>
</g>
<defs>
<clipPath id="clip0">
<rect width="139" height="51" fill="white"/>
</clipPath>
</defs>
</svg>
