<svg width="271" height="271" viewBox="0 0 271 271" fill="none" xmlns="http://www.w3.org/2000/svg">
<g clip-path="url(#clip0)">
<path d="M257.58 209.555C236.977 245.67 193.419 257.86 152.181 265.429C111.542 272.888 66.8579 276.751 35.3117 250.35C3.68828 223.884 -0.665962 179.61 0.722894 138.673C2.1087 97.8277 10.8289 55.7308 42.794 29.8125C76.3768 2.58258 122.449 -5.47305 164.291 6.04762C205.394 17.3648 235.888 49.4098 253.499 87.8275C271.334 126.732 278.805 172.35 257.58 209.555Z" fill="#4D00AE"/>
<mask id="mask0" mask-type="alpha" maskUnits="userSpaceOnUse" x="1" y="1" width="270" height="270">
<path d="M258.08 209.602C237.477 245.717 193.919 257.908 152.681 265.477C112.042 272.936 67.3579 276.799 35.8117 250.398C4.18828 223.932 -0.165962 179.657 1.22289 138.721C2.6087 97.8753 11.3289 55.7784 43.294 29.8601C76.8768 2.63018 122.949 -5.42544 164.791 6.09523C205.894 17.4124 236.388 49.4574 253.999 87.8752C271.834 126.78 279.305 172.398 258.08 209.602Z" fill="#440099"/>
</mask>
<g mask="url(#mask0)">
<ellipse cx="291.731" cy="236.5" rx="118.5" ry="119.831" transform="rotate(90 291.731 236.5)" fill="#6019B5"/>
<path d="M-89.6673 -50.1632L159.698 -6.2734L-3.42144 185.339L-89.6673 -50.1632Z" fill="#6019B5"/>
<ellipse cx="28.3031" cy="244" rx="14" ry="14.1573" transform="rotate(90 28.3031 244)" fill="#63C7FF"/>
<path d="M208.522 4.62625L196.407 41.4706L170.198 12.6731L208.522 4.62625Z" fill="#E9431B"/>
<path d="M234.08 163.768L231.28 142.386L251.405 150.68L234.08 163.768Z" fill="#5CCE7C"/>
<g clip-path="url(#clip1)">
<path d="M198.947 131.459L198.987 162.821L210.325 206.034L206.936 206.034L190.756 163.42C190.594 163.061 190.514 162.662 190.473 162.263L188.133 136.805L184.905 136.805L179.781 162.861L174.132 206.034L170.742 206.034L171.711 162.861L174.979 131.499L198.947 131.499L198.947 131.459Z" fill="#EC4D42"/>
<path d="M200.601 209.785L203.789 209.785L206.936 208.748L206.936 206.035L203.789 207.551L200.601 208.269L200.601 209.785Z" fill="#100532"/>
<path d="M207.904 209.785L210.325 209.785L210.325 206.035L206.936 206.035L206.936 208.748L207.904 209.785Z" fill="#100532"/>
<path d="M164.408 209.785L167.595 209.785L170.743 208.748L170.743 206.035L167.595 207.551L164.408 208.269L164.408 209.785Z" fill="#100532"/>
<path d="M171.711 209.785L174.132 209.785L174.132 206.035L170.743 206.035L170.743 208.748L171.711 209.785Z" fill="#100532"/>
<path d="M142.376 88.0857L139.875 87.0482C138.987 86.6891 138.019 86.6891 137.131 87.0881L134.427 88.2852C134.266 88.365 134.306 88.6044 134.468 88.6443L138.019 89.1231C138.382 89.163 138.705 89.4423 138.826 89.7615C139.108 90.5596 139.754 91.1581 140.561 91.3576L141.892 91.7167L142.376 88.0857Z" fill="#F8AA9D"/>
<path d="M198.947 131.459L197.494 119.289L202.054 83.2976C202.457 80.2252 199.794 77.5518 196.405 77.5518L180.668 77.5518C177.521 77.5518 174.979 79.866 174.979 82.699L174.979 131.459L198.947 131.459Z" fill="#2857F5"/>
<path d="M182.201 60.434L180.265 60.434L180.265 65.2221L182.201 65.2221L182.201 60.434Z" fill="#1E2966"/>
<path d="M182.524 73.0828L189.061 73.0828C189.747 73.0828 190.352 72.5242 190.352 71.8059L190.352 62.8281C190.352 61.4316 189.182 60.2744 187.77 60.2744L182.847 60.2744C181.435 60.2744 180.265 61.4316 180.265 62.8281L180.265 70.8483C180.265 72.0853 181.273 73.0828 182.524 73.0828Z" fill="#F8AA9D"/>
<path d="M187.811 68.2547L190.635 68.2547C190.998 68.2547 191.281 67.9754 191.281 67.6163L191.281 61.9502C191.281 61.3517 190.796 60.833 190.151 60.833L187.811 60.833L187.811 68.2547Z" fill="#100532"/>
<path d="M187.931 68.4143C188.644 68.4143 189.223 67.8962 189.223 67.2571C189.223 66.618 188.644 66.1 187.931 66.1C187.218 66.1 186.64 66.618 186.64 67.2571C186.64 67.8962 187.218 68.4143 187.931 68.4143Z" fill="#F8AA9D"/>
<path d="M188.859 68.4542L185.026 68.4542L182.726 77.6316L185.268 81.7015L190.957 77.6316L188.859 68.4542Z" fill="#F8AA9D"/>
<path d="M190.594 61.3916C190.594 62.2296 189.908 62.9079 189.061 62.9079C188.214 62.9079 187.528 62.2296 187.528 61.3916C187.528 60.5537 188.214 59.8754 189.061 59.8754C189.908 59.8754 190.594 60.5537 190.594 61.3916Z" fill="#100532"/>
<path d="M186.479 60.035C186.479 61.1522 185.551 62.07 184.421 62.07C183.291 62.07 182.363 61.1522 182.363 60.035C182.363 58.9177 183.291 58 184.421 58C185.551 58 186.479 58.9177 186.479 60.035Z" fill="#100532"/>
<path d="M185.591 62.07C185.591 62.9079 184.905 63.5862 184.058 63.5862C183.21 63.5862 182.524 62.9079 182.524 62.07C182.524 61.232 183.21 60.5537 184.058 60.5537C184.905 60.5537 185.591 61.232 185.591 62.07Z" fill="#100532"/>
<path d="M183.856 60.7533C183.856 62.0301 182.807 63.0675 181.516 63.0675C180.224 63.0675 179.175 62.0301 179.175 60.7533C179.175 59.4764 180.224 58.439 181.516 58.439C182.807 58.439 183.856 59.4764 183.856 60.7533Z" fill="#100532"/>
<path d="M188.577 60.434C188.577 61.3917 187.81 62.1498 186.841 62.1498C185.873 62.1498 185.106 61.3917 185.106 60.434C185.106 59.4764 185.873 58.7183 186.841 58.7183C187.81 58.7183 188.577 59.4764 188.577 60.434Z" fill="#100532"/>
<path d="M187.689 62.2694C187.689 63.1074 187.003 63.7857 186.156 63.7857C185.309 63.7857 184.623 63.1074 184.623 62.2694C184.623 61.4315 185.309 60.7532 186.156 60.7532C187.003 60.7532 187.689 61.4315 187.689 62.2694Z" fill="#100532"/>
<path d="M187.891 66.7384L186.922 66.7384C186.357 66.7384 185.914 66.2995 185.914 65.7409L185.914 62.1099L187.891 62.1099L187.891 66.7384Z" fill="#100532"/>
<path d="M141.327 91.7567L142.094 88.0458L159.969 91.637L177.763 78.4296L182.726 84.734L163.358 98.9389C162.188 99.8167 160.614 99.9764 159.283 99.4177L141.327 91.7567Z" fill="#2857F5"/>
<path d="M158.188 68.1853L97.7373 81.5253L118.627 174.095L179.077 160.755L158.188 68.1853Z" fill="#E8EDFB"/>
<path d="M157.76 108.007L113.968 117.671L114.328 119.268L158.12 109.604L157.76 108.007Z" fill="white"/>
<path d="M158.683 112.119L114.891 121.783L115.251 123.379L159.043 113.715L158.683 112.119Z" fill="white"/>
<path d="M137.451 120.822L115.751 125.611L116.112 127.207L137.811 122.419L137.451 120.822Z" fill="white"/>
<path d="M133.249 134.127L118.402 137.403L120.555 146.944L135.402 143.668L133.249 134.127Z" fill="#2857F5"/>
<path d="M162.641 129.663L138.264 135.042L138.624 136.639L163.001 131.259L162.641 129.663Z" fill="white"/>
<path d="M163.564 133.774L139.187 139.154L139.547 140.75L163.924 135.371L163.564 133.774Z" fill="white"/>
<path d="M136.923 150.49L122.077 153.767L124.23 163.308L139.077 160.031L136.923 150.49Z" fill="#31C7A4"/>
<path d="M165.909 144.105L141.532 149.485L141.893 151.081L166.27 145.702L165.909 144.105Z" fill="white"/>
<path d="M166.832 148.217L142.455 153.596L142.815 155.193L167.192 149.813L166.832 148.217Z" fill="white"/>
<path d="M154.453 154.984L143.308 157.444L143.668 159.041L154.813 156.581L154.453 154.984Z" fill="white"/>
<path d="M152.011 82.5463L108.219 92.2102L112.886 112.889L156.678 103.226L152.011 82.5463Z" fill="#EC4D42"/>
<path d="M161.583 112.984L158.92 113.463C157.992 113.623 157.023 113.383 156.257 112.825L153.876 111.029C153.715 110.909 153.836 110.67 153.997 110.67L157.588 110.989C157.951 111.029 158.315 110.83 158.516 110.55C158.96 109.832 159.727 109.393 160.574 109.393L161.946 109.353L161.583 112.984Z" fill="#F8AA9D"/>
<path d="M161.583 112.984L161.946 109.313L178.853 106.201C179.821 106.041 191.886 82.7389 191.886 82.7389L202.094 82.7389C202.094 82.7389 187.205 112.266 184.784 112.386L161.583 112.984Z" fill="#2857F5"/>
<path d="M107.514 173.076L50.9844 173.076L50.9844 215.491L107.514 215.491L107.514 173.076Z" fill="#2857F5"/>
<path d="M107.555 173.076L83.5063 173.076L83.5063 215.491L107.555 215.491L107.555 173.076Z" fill="#31C7A4"/>
<path d="M69.424 173.076L63.3716 173.076L63.3716 198.972L69.424 198.972L69.424 173.076Z" fill="#31C7A4"/>
<path d="M84.7974 96.066L85.7658 96.066C87.6622 96.066 89.1551 94.5497 89.1551 92.7143L89.1551 89.6418L84.7974 89.6418L84.7974 96.066Z" fill="#EC4D42"/>
<path d="M75.3154 98.8192L80.3592 98.8192L80.3592 92.395L76.3242 92.395C76.4452 94.5098 76.1224 96.6246 75.3961 98.6596L75.3154 98.8192Z" fill="#EC4D42"/>
<path d="M70.2308 155.08L91.939 157.674L94.36 159.709L123.533 168.327C126.196 169.126 128.456 170.881 129.828 173.275L152.101 212.219L148.711 213.217L121.556 180.218C120.587 179.021 119.175 178.263 117.642 178.143L78.0184 174.153C71.4413 173.116 67.2046 166.692 68.8589 160.307L70.2308 155.08Z" fill="#100532"/>
<path d="M108.08 236.519L105.255 234.843L102.955 232.29L104.408 229.816L106.425 232.848L108.887 235.162L108.08 236.519Z" fill="#3A61DF"/>
<path d="M101.502 232.649L99.3638 231.412L101.381 228.06L104.407 229.816L102.955 232.29L101.502 232.649Z" fill="#3A61DF"/>
<path d="M159.485 214.095L156.337 215.052L152.867 214.972L152.02 212.259L155.652 212.818L159.041 212.618L159.485 214.095Z" fill="#3A61DF"/>
<path d="M152.222 216.289L149.801 217.007L148.671 213.297L152.02 212.259L152.867 214.972L152.222 216.289Z" fill="#3A61DF"/>
<path d="M123.896 111.667L125.308 108.236C125.672 107.318 125.631 106.321 125.228 105.443L123.937 102.69C123.856 102.53 123.573 102.57 123.573 102.73L123.13 106.361C123.089 106.72 122.807 107.079 122.444 107.198C121.637 107.478 121.031 108.156 120.83 108.994L120.507 110.351L123.896 111.667Z" fill="#F8AA9D"/>
<path d="M67.2049 161.983L94.3199 159.749L99.8882 122.162C100.857 115.219 95.4094 108.994 88.3078 108.914L72.8942 108.795C65.2277 108.755 59.5384 115.817 61.3541 123.199L66.2365 143.07L67.2049 161.983Z" fill="#F8C34B"/>
<path d="M123.897 111.667L120.467 110.351L108.765 125.154L97.4676 113.303L90.6484 125.633L105.699 136.566C108.483 138.601 112.478 137.524 113.85 134.411L123.897 111.667Z" fill="#F8C34B"/>
<path d="M84.7166 102.65L79.7535 102.65C78.7045 102.65 77.8975 101.812 77.8975 100.814L77.8975 91.0782L88.0656 91.0782L88.0656 99.3778C88.0656 101.173 86.5727 102.65 84.7166 102.65Z" fill="#F8AA9D"/>
<path d="M85.7256 108.914L85.887 112.705C86.0081 115.139 82.8608 116.216 81.4082 114.261L77.4136 108.874L81.9731 108.914L85.7256 108.914Z" fill="#F8AA9D"/>
<path d="M79.996 99.8167L84.7572 98.7793L85.7256 108.914L83.345 110.989L77.4136 108.834L79.996 99.8167Z" fill="#F8AA9D"/>
<path d="M76.2832 92.395L85.3216 92.395C87.9443 92.395 90.0425 90.3202 90.0425 87.7266L80.1971 87.7266C78.0586 87.7266 76.2832 89.4423 76.2832 91.597L76.2832 92.395Z" fill="#EC4D42"/>
<path d="M77.252 96.3453C77.252 96.9039 77.6958 97.3428 78.2607 97.3428C78.8256 97.3428 79.2694 96.9039 79.2694 96.3453C79.2694 95.7867 78.8256 95.3478 78.2607 95.3478C77.6958 95.3478 77.252 95.7867 77.252 96.3453Z" fill="#F8AA9D"/>
<path d="M91.9797 165.734L113.93 178.423C116.311 179.779 117.44 182.572 116.714 185.206L104.407 229.816L101.381 228.06L107.03 185.884L76.9292 173.914L91.9797 165.734Z" fill="#100532"/>
<path d="M124.774 94.2422L123.373 94.0735L121.774 107.066L123.176 107.234L124.774 94.2422Z" fill="#100532"/>
<path d="M81.8518 142.751L85.6044 142.87C86.5728 142.91 87.5008 143.309 88.1464 144.067L90.1639 146.342C90.2849 146.501 90.1639 146.701 89.9621 146.661L86.4114 145.624C86.0482 145.504 85.6447 145.624 85.3623 145.903C84.757 146.541 83.9097 146.821 83.0623 146.661L81.6904 146.422L81.8518 142.751Z" fill="#F8AA9D"/>
<path d="M81.6904 146.382L81.8518 142.751L59.7401 143.03L72.8538 119.328L62.1611 115.259L46.8282 146.741C45.6581 149.334 47.8369 152.167 50.6614 151.728L81.6904 146.382Z" fill="#F8C34B"/>
</g>
</g>
<ellipse cx="58" cy="51" rx="8" ry="8" transform="rotate(90 58 51)" fill="#E9431B"/>
</g>
<defs>
<clipPath id="clip0">
<rect width="270" height="270" fill="white" transform="translate(0.5 0.952393)"/>
</clipPath>
<clipPath id="clip1">
<rect width="163.82" height="178.519" fill="white" transform="translate(46.5054 58)"/>
</clipPath>
</defs>
</svg>
