<svg width="270" height="270" viewBox="0 0 270 270" fill="none" xmlns="http://www.w3.org/2000/svg">
<g clip-path="url(#clip0)">
<path d="M30.4397 28.6126C59.4668 -0.998676 104.228 -1.62574 145.578 1.61791C186.326 4.81444 230.008 12.5197 253.308 46.0954C276.664 79.7532 269.364 123.634 257.442 162.82C245.547 201.919 226.322 240.349 189.081 257.203C149.955 274.91 103.863 270.899 66.8776 249.062C30.5455 227.61 9.71089 188.852 2.8322 147.236C-4.13371 105.093 0.536893 59.1172 30.4397 28.6126Z" fill="#4D00AE"/>
<mask id="mask0" mask-type="alpha" maskUnits="userSpaceOnUse" x="-1" y="0" width="270" height="269">
<path d="M30.3312 28.6127C59.3583 -0.998569 104.12 -1.62563 145.469 1.61802C186.218 4.81455 229.899 12.5198 253.199 46.0955C276.556 79.7534 269.256 123.634 257.334 162.82C245.439 201.919 226.214 240.349 188.973 257.203C149.847 274.91 103.755 270.899 66.7691 249.062C30.437 227.611 9.60242 188.853 2.72372 147.236C-4.24218 105.093 0.428421 59.1173 30.3312 28.6127Z" fill="#440099"/>
</mask>
<g mask="url(#mask0)">
<circle cx="-10.1935" cy="20.8066" r="121.5" transform="rotate(-75 -10.1935 20.8066)" fill="#310099"/>
<path d="M188.928 330.856L102.388 180.964L275.468 180.964L188.928 330.856Z" fill="#6019B5"/>
<path d="M161.151 27.234L182.259 -5.25414L199.84 29.2702L161.151 27.234Z" fill="#00A1FB"/>
<path d="M39.0571 199.599L36.1971 220.969L19.1203 207.807L39.0571 199.599Z" fill="#5CCE7C"/>
<circle cx="42.0795" cy="31.0797" r="14.7619" transform="rotate(-75 42.0795 31.0797)" fill="#E9431B"/>
<circle cx="201.9" cy="241.9" r="15.4316" transform="rotate(-75 201.9 241.9)" fill="#5CCE7C"/>
<g clip-path="url(#clip1)">
<path d="M175.731 117.97H145.232L141.599 111.436C140.732 109.803 139.032 108.736 137.166 108.736H101.233C98.4662 108.736 96.2329 110.97 96.2329 113.737V188.208C96.2329 190.975 98.4662 193.208 101.233 193.208H176.998C179.765 193.208 181.998 190.975 181.998 188.208L180.698 122.971C180.731 120.204 178.498 117.97 175.731 117.97Z" fill="#100532"/>
<path d="M176.192 124.738L128.936 118.764L122.165 172.341L169.421 178.315L176.192 124.738Z" fill="white"/>
<path d="M196.164 131.738H121.032C118.766 131.738 116.766 133.238 116.132 135.438L101.566 193.208H183.464C185.731 193.208 187.731 191.708 188.364 189.508L201.031 138.271C201.997 135.005 199.564 131.738 196.164 131.738Z" fill="#F8C34B"/>
<path d="M74.6328 125.437L74.6995 155.339L74.1328 195.875H77.2994L82.1993 155.339L83.166 124.737H85.4659L90.5992 155.339L91.0658 195.875H94.2324L98.099 155.339V114.837L74.6328 125.437Z" fill="#F8AA9D"/>
<path d="M100.099 199.375H97.166L92.8994 198.008L94.2327 195.875L100.099 198.709V199.375Z" fill="#2857F5"/>
<path d="M93.2992 199.376H91.0659V195.876H94.2325L92.8992 198.009L93.2992 199.376Z" fill="#2857F5"/>
<path d="M83.1662 199.375H80.2329L75.9663 198.008L77.2996 195.875L83.1662 198.709V199.375Z" fill="#2857F5"/>
<path d="M76.3661 199.376H74.1328V195.876H77.2994L75.9661 198.009L76.3661 199.376Z" fill="#2857F5"/>
<path d="M71.8331 151.772H100.233L103.033 114.803L76.8663 110.903L75.6663 112.503C72.6331 116.57 71.0664 121.537 71.1998 126.604L71.8331 151.772Z" fill="#EC4D42"/>
<path d="M127.266 119.97L129.166 118.004L112.266 102.803L117.133 87.0017L110.699 87.9351L100.5 106.103L127.266 119.97Z" fill="#2857F5"/>
<path d="M76.8662 110.936L103.032 114.837L117.165 86.835C117.465 84.0015 115.766 81.368 113.032 80.5013L98.3658 75.7677C95.5325 74.8676 92.4993 76.1343 91.166 78.8012L76.8662 110.936Z" fill="#2857F5"/>
<path d="M81.7663 118.037L84.2662 117.003L79.1996 96.7022C79.0997 96.4355 79.233 96.1355 79.4996 96.0355L99.9993 84.7015L93.7994 76.0676L72.8998 90.8352C71.1665 91.7019 70.4998 93.8354 71.3665 95.5355L81.7663 118.037Z" fill="#2857F5"/>
<path d="M129.166 118.004L131.132 117.67C131.832 117.57 132.532 117.737 133.099 118.17L134.832 119.537C134.932 119.637 134.866 119.804 134.732 119.804L132.099 119.537C131.832 119.504 131.566 119.637 131.399 119.87C131.066 120.404 130.499 120.704 129.866 120.737L127.232 120.004L129.166 118.004Z" fill="#F8AA9D"/>
<path d="M102.799 69.1673C102.366 70.5007 103.166 71.9674 104.566 72.4341C105.966 72.9008 107.466 72.1674 107.899 70.834C108.332 69.5006 107.532 68.0339 106.132 67.5672C104.732 67.1005 103.232 67.8338 102.799 69.1673Z" fill="#F8C34B"/>
<path d="M105.598 69.1839L108.771 70.2063L109.957 66.5258L106.784 65.5034L105.598 69.1839Z" fill="#F8C34B"/>
<path d="M107.033 67.7672C106.899 68.1672 107.133 68.5672 107.499 68.7006C107.899 68.8339 108.299 68.6006 108.433 68.2339C108.566 67.8338 108.333 67.4338 107.966 67.3005C107.566 67.1671 107.133 67.4005 107.033 67.7672Z" fill="#F8AA9D"/>
<path d="M107.932 69.3339L110.799 70.2673L110.332 79.6011L109.232 83.0347C108.965 83.8347 107.932 84.0014 107.432 83.3347L103.032 77.2343L107.932 69.3339Z" fill="#F8AA9D"/>
<path d="M111.066 73.9676L107.699 72.9009C106.866 72.6342 106.399 71.7341 106.666 70.9008L108.999 63.7003L116.532 66.1338L114.599 72.1675C114.132 73.6342 112.566 74.4343 111.066 73.9676Z" fill="#F8AA9D"/>
<path d="M106.766 65.5003L114.465 67.9672C115.465 68.3005 116.532 67.7338 116.865 66.7338L117.165 65.867C117.499 64.867 116.932 63.8002 115.932 63.4669L111.866 62.1668C109.866 61.5334 107.732 62.6335 107.099 64.6336L106.766 65.5003Z" fill="#F8C34B"/>
<path d="M84.2661 116.97L85.5327 118.537C85.966 119.07 86.166 119.804 86.066 120.47L85.7327 122.637C85.6994 122.77 85.5327 122.804 85.466 122.67L84.3994 120.237C84.2994 119.97 84.0327 119.804 83.7661 119.804C83.1328 119.77 82.5994 119.437 82.2661 118.904L81.7661 118.037L84.2661 116.97Z" fill="#F8AA9D"/>
<path d="M187.105 150.301L117.552 164.403L127.142 211.712L196.695 197.61L187.105 150.301Z" fill="#EC4D42"/>
<path d="M183.547 188.337L165.906 191.913L166.263 193.678L183.905 190.101L183.547 188.337Z" fill="white"/>
<path d="M184.447 192.84L166.805 196.417L167.163 198.181L184.804 194.604L184.447 192.84Z" fill="white"/>
<path d="M163.791 192.347L136.25 197.931L137.522 204.204L165.062 198.62L163.791 192.347Z" fill="white"/>
<path d="M177.509 158.616L130.236 168.201L135.601 194.665L182.874 185.08L177.509 158.616Z" fill="white"/>
</g>
</g>
</g>
<defs>
<clipPath id="clip0">
<rect width="270" height="270" fill="white"/>
</clipPath>
<clipPath id="clip1">
<rect width="130.264" height="149.709" fill="white" transform="translate(71 62.0001)"/>
</clipPath>
</defs>
</svg>
