<svg width="270" height="271" viewBox="0 0 270 271" fill="none" xmlns="http://www.w3.org/2000/svg">
<g clip-path="url(#clip0)">
<path d="M208.602 13.2288C244.717 33.6029 256.908 76.6768 264.477 117.457C271.936 157.644 275.799 201.832 249.398 233.027C222.932 264.3 178.657 268.605 137.721 267.232C96.8753 265.862 54.7784 257.238 28.8601 225.628C1.63019 192.419 -6.42544 146.859 5.09523 105.482C16.4124 64.8354 48.4574 34.6795 86.8752 17.2641C125.78 -0.372049 171.398 -7.75989 208.602 13.2288Z" fill="#4D00AE"/>
<mask id="mask0" mask-type="alpha" maskUnits="userSpaceOnUse" x="0" y="0" width="270" height="271">
<path d="M208.602 13.3724C244.717 33.9753 256.908 77.5333 264.477 118.772C271.936 159.41 275.799 204.094 249.398 235.641C222.932 267.264 178.657 271.618 137.721 270.229C96.8753 268.844 54.7784 260.124 28.8601 228.158C1.63019 194.576 -6.42544 148.504 5.09523 106.662C16.4124 65.5588 48.4574 35.064 86.8752 17.453C125.78 -0.381312 171.398 -7.85216 208.602 13.3724Z" fill="#440099"/>
</mask>
<g mask="url(#mask0)">
<ellipse opacity="0.1" cx="264.5" cy="258.366" rx="121.5" ry="122.865" fill="white"/>
<path d="M-40.1367 90.2471L82.2494 -33.5141L127.046 135.547L-40.1367 90.2471Z" fill="#6019B4"/>
<ellipse cx="238" cy="233.59" rx="14" ry="14.1573" fill="#63C7FF"/>
<path d="M205.626 78.8347L242.471 90.9497L213.673 117.159L205.626 78.8347Z" fill="#00A1FB"/>
<path d="M105.768 48.6014L84.3866 51.4009L92.68 31.2759L105.768 48.6014Z" fill="#5CCE7C"/>
<ellipse cx="71" cy="200.22" rx="17" ry="17.191" fill="#E9431B"/>
<g clip-path="url(#clip1)">
<path d="M156.94 174.846L154.466 172.685L166.791 158.971L171.782 136.129L178.726 139.568L174.343 163.337L156.94 174.846Z" fill="#FF4F67"/>
<path d="M205.417 178.682L200.426 227.762L201.077 276.885H197.344L191.485 227.762L190.357 190.72H187.58L181.46 227.762L180.896 276.885H177.12L172.52 227.762V178.682H205.417Z" fill="#FFD7CF"/>
<path d="M206.762 178.682H171.044L171.869 135.908C172.563 132.557 175.471 130.132 178.856 130.132H197.258C200.773 130.132 203.811 132.733 204.332 136.305L206.762 178.682Z" fill="#FF4F67"/>
<path d="M203.854 220.221H169.959L167.052 178.682H206.762L203.854 220.221Z" fill="#3A61DF"/>
<path d="M194.61 120.871C194.61 122.591 193.178 123.958 191.442 123.958C189.706 123.958 188.274 122.591 188.274 120.871C188.274 119.152 189.706 117.785 191.442 117.785C193.178 117.785 194.61 119.152 194.61 120.871Z" fill="#3A61DF"/>
<path d="M191.399 115.183H187.449V119.857H191.399V115.183Z" fill="#3A61DF"/>
<path d="M190.314 117.697C190.314 118.182 189.923 118.578 189.446 118.578C188.968 118.578 188.578 118.182 188.578 117.697C188.578 117.211 188.968 116.815 189.446 116.815C189.923 116.815 190.314 117.211 190.314 117.697Z" fill="#FFD7CF"/>
<path d="M188.708 119.152H185.106L182.241 130.088V134.453C182.241 135.467 183.37 136.041 184.194 135.467L191.398 130.088L188.708 119.152Z" fill="#FFD7CF"/>
<path d="M183.63 123.341H187.579C188.664 123.341 189.532 122.459 189.532 121.357V112.229H180.071V119.725C180.071 121.709 181.677 123.341 183.63 123.341Z" fill="#FFD7CF"/>
<path d="M191.399 115.183H182.328C180.766 115.183 179.507 113.904 179.507 112.317C179.507 110.729 180.766 109.45 182.328 109.45H185.757C188.882 109.45 191.399 112.008 191.399 115.183Z" fill="#3A61DF"/>
<path d="M201.684 190.632L190.313 203.949L145.222 164.703L156.549 151.342L201.684 190.632Z" fill="#FF9F33"/>
<path d="M140.766 145.08L136.795 149.752L148.882 160.359L152.853 155.686L140.766 145.08Z" fill="#113251"/>
<path d="M143.874 151.869C129.943 168.273 105.509 170.081 89.3648 155.926C73.2203 141.771 71.4409 116.945 85.372 100.541C99.3032 84.1371 123.737 82.3292 139.881 96.4842C156.026 110.639 157.805 135.51 143.874 151.869ZM92.7499 107.023C82.3341 119.282 83.6795 137.847 95.7444 148.43C107.809 159.013 126.08 157.646 136.496 145.387C146.912 133.128 145.567 114.564 133.502 103.981C121.48 93.3974 103.166 94.7644 92.7499 107.023Z" fill="#FF9F33"/>
<path d="M200.556 185.076L198.082 182.96L211.232 161.44C211.449 161.176 211.405 160.779 211.145 160.558L192.049 139.833L202.248 132.204L220.563 156.987C222.212 158.618 222.212 161.308 220.563 162.984L200.556 185.076Z" fill="#FF4F67"/>
<path d="M198.125 182.959L196.085 184.326C195.391 184.812 194.914 185.517 194.783 186.355L194.349 189.001C194.306 189.177 194.523 189.265 194.653 189.133L196.736 186.708C196.953 186.443 197.301 186.355 197.604 186.443C198.299 186.62 199.08 186.443 199.644 185.958L200.555 185.076L198.125 182.959Z" fill="#FFD7CF"/>
</g>
</g>
</g>
<defs>
<clipPath id="clip0">
<rect width="270" height="270" fill="white" transform="translate(0 0.452393)"/>
</clipPath>
<clipPath id="clip1">
<rect width="145.778" height="194.157" fill="white" transform="translate(76 86.9612)"/>
</clipPath>
</defs>
</svg>
