<svg width="271" height="271" viewBox="0 0 271 271" fill="none" xmlns="http://www.w3.org/2000/svg">
<g clip-path="url(#clip0)">
<path d="M257.099 209.518C236.535 245.626 193.058 257.815 151.897 265.383C111.334 272.84 66.7337 276.703 35.2464 250.306C3.68212 223.845 -0.664009 179.578 0.722284 138.649C2.10546 97.8106 10.8093 55.7211 42.7147 29.8074C76.2348 2.58229 122.22 -5.47192 163.984 6.04672C205.01 17.3619 235.448 49.4012 253.026 87.8122C270.827 126.71 278.284 172.32 257.099 209.518Z" fill="#4D00AE"/>
<mask id="mask0" mask-type="alpha" maskUnits="userSpaceOnUse" x="1" y="1" width="270" height="270">
<path d="M257.604 209.565C237.04 245.674 193.563 257.863 152.402 265.43C111.839 272.888 67.2385 276.75 35.7513 250.354C4.187 223.892 -0.159127 179.626 1.22717 138.696C2.61035 97.8582 11.3142 55.7688 43.2196 29.855C76.7397 2.6299 122.725 -5.42431 164.489 6.09433C205.515 17.4095 235.953 49.4489 253.531 87.8598C271.332 126.758 278.789 172.367 257.604 209.565Z" fill="#440099"/>
</mask>
<g mask="url(#mask0)">
<ellipse opacity="0.1" cx="11.6028" cy="311.445" rx="121.479" ry="122.636" transform="rotate(90 11.6028 311.445)" fill="white"/>
<path d="M246.035 -216.651L486.332 21.3791L158.08 108.504L246.035 -216.651Z" fill="#310099"/>
<ellipse cx="37.7974" cy="238.958" rx="13.9975" ry="14.1308" transform="rotate(90 37.7974 238.958)" fill="#63C7FF"/>
<path d="M173.821 162.598L161.728 199.436L135.568 170.643L173.821 162.598Z" fill="#00A1FB"/>
<path d="M222.441 106.75L219.647 85.3717L239.734 93.6636L222.441 106.75Z" fill="#5CCE7C"/>
<ellipse cx="53.9953" cy="52.9908" rx="14.9974" ry="14.6355" transform="rotate(90 53.9953 52.9908)" fill="#E9431B"/>
<g clip-path="url(#clip1)">
<path d="M200.511 79.1285L116.255 79.3468L116.584 205.989L200.84 205.77L200.511 79.1285Z" fill="#E8EDFB"/>
<path d="M188.193 135.94L127.146 136.097L127.153 138.502L188.199 138.345L188.193 135.94Z" fill="white"/>
<path d="M188.193 142.163L127.147 142.32L127.153 144.724L188.199 144.568L188.193 142.163Z" fill="white"/>
<path d="M157.438 147.965L127.183 148.043L127.189 150.448L157.444 150.37L157.438 147.965Z" fill="white"/>
<path d="M147.909 165.69L127.203 165.744L127.24 180.063L147.946 180.009L147.909 165.69Z" fill="#31C7A4"/>
<path d="M188.265 165.603L154.291 165.69L154.297 168.095L188.271 168.007L188.265 165.603Z" fill="white"/>
<path d="M181.363 171.799L154.291 171.868L154.297 174.273L181.369 174.203L181.363 171.799Z" fill="white"/>
<path d="M185.332 177.521L154.326 177.601L154.332 180.005L185.338 179.926L185.332 177.521Z" fill="white"/>
<path d="M188.084 97.7554L127.038 97.9136L127.118 128.955L188.164 128.797L188.084 97.7554Z" fill="#100532"/>
<path d="M116.885 110.175L119.675 109.68C120.426 109.397 120.998 108.867 121.32 108.124L122.286 105.861C122.357 105.719 122.178 105.578 122.035 105.684L119.603 107.381C119.353 107.558 119.031 107.594 118.745 107.452C118.137 107.134 117.386 107.134 116.778 107.452L115.777 107.982L116.885 110.175Z" fill="#F8AA9D"/>
<path d="M75.9019 97.3402L87.4531 98.5776L90.2425 100.133L96.3579 113.745C96.5367 113.992 96.8228 114.099 97.1089 114.063L115.741 107.982L116.885 110.174L97.1804 121.24C95.2135 122.018 92.9605 121.311 91.8161 119.543L75.9019 97.3402Z" fill="#100532"/>
<path d="M90.2426 100.911L85.5935 138.387L68.6064 138.387L64.3149 101.583C64.1004 99.6383 65.6381 97.9059 67.6051 97.8705L87.2743 97.623C89.0624 97.5877 90.4572 99.1433 90.2426 100.911Z" fill="#100532"/>
<path d="M80.6584 103.704L67.3906 103.704L67.3906 97.5876L86.8811 97.5876C86.8811 100.946 84.0916 103.704 80.6584 103.704Z" fill="#F8AA9D"/>
<path d="M75.4372 168.121L68.6067 168.121L58.3071 215.461L61.49 215.461L75.4372 168.121Z" fill="#F8AA9D"/>
<path d="M78.6913 168.121L77.833 215.461L81.0159 215.461L85.5577 168.121L78.6913 168.121Z" fill="#F8AA9D"/>
<path d="M67.534 218.962L64.53 218.962L60.167 217.548L61.526 215.426L67.534 218.255L67.534 218.962Z" fill="#F8C34B"/>
<path d="M60.5959 218.962L58.3071 218.962L58.3071 215.426L61.5257 215.426L60.1668 217.548L60.5959 218.962Z" fill="#F8C34B"/>
<path d="M87.0243 218.962L84.0202 218.962L79.6572 217.548L81.052 215.426L87.0243 218.255L87.0243 218.962Z" fill="#F8C34B"/>
<path d="M80.0865 218.962L77.8335 218.962L77.8335 215.426L81.0521 215.426L79.6574 217.548L80.0865 218.962Z" fill="#F8C34B"/>
<path d="M78.0479 83.8707C78.2982 85.1084 79.5141 85.957 80.7658 85.7095C82.0175 85.462 82.8758 84.2597 82.6254 83.022C82.3751 81.7844 81.1592 80.9357 79.9075 81.1833C78.6558 81.3954 77.7975 82.5977 78.0479 83.8707Z" fill="#2857F5"/>
<path d="M79.4784 92.2849L76.7605 92.7445C75.5804 92.9566 74.436 92.1788 74.2214 90.9767L72.8267 83.1633L81.5884 81.6783L82.697 87.8301C83.0547 89.9161 81.6242 91.9313 79.4784 92.2849Z" fill="#F8AA9D"/>
<path d="M75.2226 87.9004C75.5087 88.3601 75.3299 88.9966 74.865 89.2795C74.4001 89.5624 73.7564 89.3856 73.4703 88.9259C73.1842 88.4662 73.363 87.8297 73.8279 87.5468C74.3286 87.2993 74.9723 87.4407 75.2226 87.9004Z" fill="#F8AA9D"/>
<path d="M79.6213 89.1378L75.4729 90.057L73.3271 97.9412L80.5511 97.9412L79.6213 89.1378Z" fill="#F8AA9D"/>
<path d="M72.9699 87.2286L77.3687 85.9912C81.1952 84.8598 82.4469 82.9153 81.9462 80.2283C81.7674 79.2737 80.623 78.6727 79.4071 78.9202L75.5448 79.9455C73.4348 80.3344 71.9686 81.996 72.2904 83.6577L72.9699 87.2286Z" fill="#2857F5"/>
<path d="M74.8293 96.8455C74.8293 97.588 74.2213 98.1892 73.4703 98.1892C72.7193 98.1892 72.1113 97.588 72.1113 96.8455C72.1113 96.1029 72.7193 95.5017 73.4703 95.5017C74.2213 95.4664 74.8293 96.0675 74.8293 96.8455Z" fill="#E56CD9"/>
<path d="M75.294 99.9923C76.0446 99.9923 76.653 99.3907 76.653 98.6485C76.653 97.9064 76.0446 97.3048 75.294 97.3048C74.5435 97.3048 73.9351 97.9064 73.9351 98.6485C73.9351 99.3907 74.5435 99.9923 75.294 99.9923Z" fill="white"/>
<path d="M77.6544 100.841C78.4049 100.841 79.0133 100.239 79.0133 99.4971C79.0133 98.7549 78.4049 98.1533 77.6544 98.1533C76.9038 98.1533 76.2954 98.7549 76.2954 99.4971C76.2954 100.239 76.9038 100.841 77.6544 100.841Z" fill="white"/>
<path d="M79.9791 99.9569C80.7296 99.9569 81.338 99.3553 81.338 98.6131C81.338 97.871 80.7296 97.2694 79.9791 97.2694C79.2285 97.2694 78.6201 97.871 78.6201 98.6131C78.6201 99.3553 79.2285 99.9569 79.9791 99.9569Z" fill="white"/>
<path d="M81.0162 98.0124C81.7667 98.0124 82.3752 97.4108 82.3752 96.6687C82.3752 95.9266 81.7667 95.325 81.0162 95.325C80.2657 95.325 79.6572 95.9266 79.6572 96.6687C79.6572 97.4108 80.2657 98.0124 81.0162 98.0124Z" fill="white"/>
<path d="M85.5938 168.086L68.6067 168.086L62.4556 142.701C61.7761 139.908 62.098 136.938 63.3139 134.322L67.1404 126.261L87.06 126.119L90.9581 134.534C92.174 137.15 92.4601 140.049 91.7806 142.842L85.5938 168.086Z" fill="#100532"/>
<path d="M73.4705 106.78L64.8875 120.356L85.129 124.634L85.3078 127.215L61.7404 127.109C58.0569 127.074 55.5536 123.432 56.841 120.038L64.4584 99.9564L73.4705 106.78Z" fill="#100532"/>
<path d="M69.1788 108.159L66.0317 108.159L66.0317 89.8455C66.0317 85.6736 69.4649 82.2795 73.6849 82.2795L74.9008 82.2795L74.9008 102.503C74.865 105.614 72.3259 108.159 69.1788 108.159Z" fill="#2857F5"/>
<path d="M85.3077 127.251L87.9541 127.852C88.7409 127.923 89.5277 127.675 90.0999 127.145L91.9237 125.518C92.031 125.412 91.9595 125.235 91.7807 125.235L88.8482 125.73C88.5263 125.766 88.2402 125.66 88.0614 125.412C87.6323 124.846 86.9885 124.563 86.2733 124.563L85.1289 124.599L85.3077 127.251Z" fill="#F8AA9D"/>
</g>
</g>
</g>
<defs>
<clipPath id="clip0">
<rect width="270" height="270" fill="white" transform="translate(0.5 0.952393)"/>
</clipPath>
<clipPath id="clip1">
<rect width="144.336" height="160.972" fill="white" transform="translate(56.519 57.99)"/>
</clipPath>
</defs>
</svg>
