<svg width="200" height="200" viewBox="0 0 200 200" fill="none" xmlns="http://www.w3.org/2000/svg">
<g clip-path="url(#clip0)">
<path d="M45.2524 186.621C18.6343 171.665 9.64925 140.045 4.07068 110.109C-1.4268 80.6082 -4.27393 48.1709 15.1848 25.2707C34.6911 2.31447 67.3231 -0.846405 97.4947 0.161819C127.599 1.1678 158.626 7.49799 177.729 30.7023C197.798 55.0809 203.736 88.5256 195.245 118.9C186.903 148.738 163.285 170.875 134.97 183.659C106.296 196.605 72.6736 202.028 45.2524 186.621Z" fill="url(#paint0_linear)"/>
<path d="M58.1792 139.109V144.66H58.1892C58.5252 148.011 72.3317 154.168 92.3819 154.28C121.865 154.448 131.82 147.762 132.282 144.339H132.292V139.221L58.1792 139.109Z" fill="url(#paint1_linear)"/>
<path d="M132.287 139.242C132.287 142.694 115.276 145.419 94.6337 145.333C74.3528 145.246 58.1792 142.465 58.1792 139.124C58.1792 135.784 74.3578 133.054 94.6337 133.034C115.276 133.013 132.287 135.794 132.287 139.242Z" fill="url(#paint2_linear)"/>
<path d="M132.001 138.824C132.001 142.251 115.12 144.961 94.6284 144.879C74.4929 144.798 58.4297 142.048 58.4297 138.727C58.4297 135.407 74.4979 132.697 94.6284 132.667C115.12 132.641 132.001 135.397 132.001 138.824Z" fill="url(#paint3_linear)"/>
<path d="M132.287 144.339V139.221L58.1792 139.109V144.66L132.287 144.339Z" fill="url(#paint4_linear)"/>
<path d="M132.287 139.242C132.287 142.694 115.276 145.419 94.6337 145.333C74.3528 145.246 58.1792 142.465 58.1792 139.124C58.1792 135.784 74.3578 133.054 94.6337 133.034C115.276 133.013 132.287 135.794 132.287 139.242Z" fill="url(#paint5_linear)"/>
<path d="M132.001 138.824C132.001 142.251 115.12 144.961 94.6284 144.879C74.4929 144.798 58.4297 142.048 58.4297 138.727C58.4297 135.407 74.4979 132.697 94.6284 132.667C115.12 132.641 132.001 135.397 132.001 138.824Z" fill="url(#paint6_linear)"/>
<path d="M58.1792 128.583V134.134H58.1892C58.5252 137.485 72.3317 143.352 92.3819 143.245C124.157 143.077 131.82 137.235 132.282 133.813H132.292V128.695L58.1792 128.583Z" fill="url(#paint7_linear)"/>
<path d="M132.287 128.72C132.287 132.173 115.276 134.898 94.6337 134.811C74.3528 134.725 58.1792 131.944 58.1792 128.603C58.1792 125.262 74.3578 122.533 94.6337 122.512C115.276 122.487 132.287 125.267 132.287 128.72Z" fill="url(#paint8_linear)"/>
<path d="M132.001 128.298C132.001 131.725 115.12 134.434 94.6284 134.353C74.4929 134.271 58.4297 131.521 58.4297 128.201C58.4297 124.88 74.4979 122.171 94.6284 122.14C115.12 122.12 132.001 124.875 132.001 128.298Z" fill="url(#paint9_linear)"/>
<path d="M132.287 133.818V128.7L58.1792 128.583V134.134L132.287 133.818Z" fill="url(#paint10_linear)"/>
<path d="M132.287 128.72C132.287 132.173 115.276 134.898 94.6337 134.811C74.3528 134.725 58.1792 131.944 58.1792 128.603C58.1792 125.262 74.3578 122.533 94.6337 122.512C115.276 122.487 132.287 125.267 132.287 128.72Z" fill="url(#paint11_linear)"/>
<path d="M132.001 128.298C132.001 131.725 115.12 134.434 94.6284 134.353C74.4929 134.271 58.4297 131.521 58.4297 128.201C58.4297 124.88 74.4979 122.171 94.6284 122.14C115.12 122.12 132.001 124.875 132.001 128.298Z" fill="url(#paint12_linear)"/>
<path d="M58.1792 118.03V123.581H58.1892C58.5252 126.932 72.3317 132.799 92.3819 132.692C124.157 132.524 131.82 126.683 132.282 123.261H132.292V118.142L58.1792 118.03Z" fill="url(#paint13_linear)"/>
<path d="M132.287 118.168C132.287 121.621 115.276 124.345 94.6337 124.259C74.3528 124.172 58.1792 121.392 58.1792 118.051C58.1792 114.71 74.3578 111.98 94.6337 111.96C115.276 111.934 132.287 114.715 132.287 118.168Z" fill="url(#paint14_linear)"/>
<path d="M132.001 117.75C132.001 121.178 115.12 123.887 94.6284 123.806C74.4929 123.724 58.4297 120.974 58.4297 117.654C58.4297 114.333 74.4979 111.624 94.6284 111.593C115.12 111.568 132.001 114.323 132.001 117.75Z" fill="url(#paint15_linear)"/>
<path d="M132.287 118.168C132.287 121.621 115.276 124.345 94.6337 124.259C74.3528 124.172 58.1792 121.392 58.1792 118.051C58.1792 114.71 74.3578 111.98 94.6337 111.96C115.276 111.934 132.287 114.715 132.287 118.168Z" fill="url(#paint16_linear)"/>
<path d="M132.001 117.75C132.001 121.178 115.12 123.887 94.6284 123.806C74.4929 123.724 58.4297 120.974 58.4297 117.654C58.4297 114.333 74.4979 111.624 94.6284 111.593C115.12 111.568 132.001 114.323 132.001 117.75Z" fill="url(#paint17_linear)"/>
<path d="M58.1792 107.478V113.029H58.1892C58.5252 116.38 72.3317 122.247 92.3819 122.14C124.157 121.972 131.82 116.131 132.282 112.709H132.292V107.59L58.1792 107.478Z" fill="url(#paint18_linear)"/>
<path d="M132.287 107.616C132.287 111.069 115.276 113.793 94.6337 113.707C74.3528 113.62 58.1792 110.839 58.1792 107.499C58.1792 104.158 74.3578 101.428 94.6337 101.408C115.276 101.387 132.287 104.168 132.287 107.616Z" fill="url(#paint19_linear)"/>
<path d="M132.001 107.198C132.001 110.625 115.12 113.335 94.6284 113.253C74.4929 113.172 58.4297 110.422 58.4297 107.101C58.4297 103.781 74.4979 101.072 94.6284 101.041C115.12 101.015 132.001 103.771 132.001 107.198Z" fill="url(#paint20_linear)"/>
<path d="M132.287 107.616C132.287 111.069 115.276 113.793 94.6337 113.707C74.3528 113.62 58.1792 110.839 58.1792 107.499C58.1792 104.158 74.3578 101.428 94.6337 101.408C115.276 101.387 132.287 104.168 132.287 107.616Z" fill="url(#paint21_linear)"/>
<path d="M132.001 107.198C132.001 110.625 115.12 113.335 94.6284 113.253C74.4929 113.172 58.4297 110.422 58.4297 107.101C58.4297 103.781 74.4979 101.072 94.6284 101.041C115.12 101.015 132.001 103.771 132.001 107.198Z" fill="url(#paint22_linear)"/>
<path d="M58.1792 96.9312V102.482H58.1892C58.5252 105.833 72.3317 111.7 92.3819 111.593C124.157 111.425 131.82 105.584 132.282 102.161H132.292V97.0483L58.1792 96.9312Z" fill="url(#paint23_linear)"/>
<path d="M132.287 97.0686C132.287 100.521 115.276 103.246 94.6337 103.16C74.3528 103.073 58.1792 100.292 58.1792 96.9514C58.1792 93.6106 74.3578 90.8809 94.6337 90.8605C115.276 90.8351 132.287 93.6157 132.287 97.0686Z" fill="url(#paint24_linear)"/>
<path d="M132.001 96.646C132.001 100.073 115.12 102.783 94.6284 102.701C74.4929 102.62 58.4297 99.8697 58.4297 96.5493C58.4297 93.2288 74.4979 90.5194 94.6284 90.4889C115.12 90.4685 132.001 93.2186 132.001 96.646Z" fill="url(#paint25_linear)"/>
<path d="M132.287 97.0686C132.287 100.521 115.276 103.246 94.6337 103.16C74.3528 103.073 58.1792 100.292 58.1792 96.9514C58.1792 93.6106 74.3578 90.8809 94.6337 90.8605C115.276 90.8351 132.287 93.6157 132.287 97.0686Z" fill="url(#paint26_linear)"/>
<path d="M132.001 96.646C132.001 100.073 115.12 102.783 94.6284 102.701C74.4929 102.62 58.4297 99.8697 58.4297 96.5493C58.4297 93.2288 74.4979 90.5194 94.6284 90.4889C115.12 90.4685 132.001 93.2186 132.001 96.646Z" fill="url(#paint27_linear)"/>
<path d="M58.1792 86.3789V91.93H58.1892C58.5252 95.281 72.3317 101.148 92.3819 101.041C124.157 100.873 131.82 95.0315 132.282 91.6092H132.292V86.4909L58.1792 86.3789Z" fill="url(#paint28_linear)"/>
<path d="M132.287 86.5163C132.287 89.9692 115.276 92.6938 94.6337 92.6073C74.3528 92.5207 58.1792 89.74 58.1792 86.3992C58.1792 83.0584 74.3578 80.3286 94.6337 80.3083C115.276 80.2828 132.287 83.0635 132.287 86.5163Z" fill="url(#paint29_linear)"/>
<path d="M132.001 86.0938C132.001 89.5212 115.12 92.2305 94.6284 92.149C74.4929 92.0676 58.4297 89.3175 58.4297 85.997C58.4297 82.6765 74.4979 79.9672 94.6284 79.9366C115.12 79.9163 132.001 82.6714 132.001 86.0938Z" fill="url(#paint30_linear)"/>
<path d="M132.287 91.6142V86.496L58.1792 86.3789V91.93L132.287 91.6142Z" fill="url(#paint31_linear)"/>
<path d="M132.287 86.5163C132.287 89.9692 115.276 92.6938 94.6337 92.6073C74.3528 92.5207 58.1792 89.74 58.1792 86.3992C58.1792 83.0584 74.3578 80.3286 94.6337 80.3083C115.276 80.2828 132.287 83.0635 132.287 86.5163Z" fill="url(#paint32_linear)"/>
<path d="M132.001 86.0938C132.001 89.5212 115.12 92.2305 94.6284 92.149C74.4929 92.0676 58.4297 89.3175 58.4297 85.997C58.4297 82.6765 74.4979 79.9672 94.6284 79.9366C115.12 79.9163 132.001 82.6714 132.001 86.0938Z" fill="url(#paint33_linear)"/>
<path d="M58.1792 75.8269V81.378H58.1892C58.5252 84.729 72.3317 90.5959 92.3819 90.4889C124.157 90.3209 131.82 84.4795 132.282 81.0572H132.292V75.9389L58.1792 75.8269Z" fill="url(#paint34_linear)"/>
<path d="M132.287 75.9645C132.287 79.4174 115.276 82.142 94.6337 82.0554C74.3528 81.9689 58.1792 79.1882 58.1792 75.8474C58.1792 72.5065 74.3578 69.7768 94.6337 69.7565C115.276 69.7361 132.287 72.5116 132.287 75.9645Z" fill="url(#paint35_linear)"/>
<path d="M132.001 75.5467C132.001 78.9741 115.12 81.6835 94.6284 81.602C74.4929 81.5205 58.4297 78.7704 58.4297 75.4499C58.4297 72.1295 74.4979 69.4201 94.6284 69.3896C115.12 69.3641 132.001 72.1193 132.001 75.5467Z" fill="url(#paint36_linear)"/>
<path d="M132.287 81.0622V75.944L58.1792 75.8269V81.3831L132.287 81.0622Z" fill="url(#paint37_linear)"/>
<path d="M132.287 75.9645C132.287 79.4174 115.276 82.142 94.6337 82.0554C74.3528 81.9689 58.1792 79.1882 58.1792 75.8474C58.1792 72.5065 74.3578 69.7768 94.6337 69.7565C115.276 69.7361 132.287 72.5116 132.287 75.9645Z" fill="url(#paint38_linear)"/>
<path d="M132.001 75.5467C132.001 78.9741 115.12 81.6835 94.6284 81.602C74.4929 81.5205 58.4297 78.7704 58.4297 75.4499C58.4297 72.1295 74.4979 69.4201 94.6284 69.3896C115.12 69.3641 132.001 72.1193 132.001 75.5467Z" fill="url(#paint39_linear)"/>
<path d="M87.603 44.7003L89.1276 44.6901C89.1276 44.6901 92.7836 39.9946 95.251 39.7349L95.4817 26.509C86.0283 26.5396 77.6782 31.9532 73.8818 39.9488L87.603 44.7003Z" fill="url(#paint40_linear)"/>
<path d="M105.843 50.562C105.065 54.9061 101.169 58.3234 96.3944 58.4761C95.2209 58.5118 93.8467 57.7988 93.8467 57.7988C93.8467 57.7988 92.5879 57.8701 92.3723 57.7835L84.9199 69.5019C88.3853 71.0909 92.2971 71.8701 96.3944 71.6307C108.3 70.9381 117.658 61.8374 118.701 50.8778L105.843 50.562Z" fill="url(#paint41_linear)"/>
<path d="M82.5931 68.2645L84.0825 68.3154L90.1156 56.5104C87.8639 54.8196 86.4195 52.1867 86.4195 49.2023C86.4195 48.4791 86.5048 47.7763 86.6653 47.099L74.3834 42.3933L72.8889 42.4086C72.1467 44.6137 71.7505 46.9564 71.7505 49.3857C71.7455 57.4271 76.0885 64.3481 82.5931 68.2645Z" fill="url(#paint42_linear)"/>
<path d="M97.8589 39.7956C102.207 40.4526 105.552 43.8749 105.948 48.1019L126.971 48.7181C126.971 48.713 126.971 48.7079 126.971 48.7028C126.971 48.7028 126.971 48.6977 126.971 48.6875C126.971 48.6723 130.141 48.1681 130.141 48.1681C130.141 48.0204 101.42 17.3621 101.42 17.3621L98.235 17.8917C98.235 17.9019 97.9843 32.4977 97.8589 39.7956Z" fill="url(#paint43_linear)"/>
<path d="M89.1074 44.7001C90.632 41.9959 93.4655 40.0861 96.7554 39.7398L96.9861 26.5139C87.5327 26.5445 79.1826 31.9581 75.3862 39.9537L89.1074 44.7001Z" fill="url(#paint44_linear)"/>
<path d="M107.347 50.5618C106.57 54.9059 102.673 58.3231 97.8991 58.4759C96.4748 58.5217 95.1158 58.2722 93.8821 57.7833L86.4297 69.5017C89.8951 71.0906 93.8068 71.8698 97.9041 71.6305C109.81 70.9378 119.168 61.8371 120.211 50.8775L107.347 50.5618Z" fill="#5CCE7C"/>
<path d="M84.0974 68.2641L91.62 56.51C89.3683 54.8192 87.9239 52.1863 87.9239 49.2019C87.9239 48.4788 88.0092 47.776 88.1697 47.0986L74.3933 42.4082C73.6511 44.6134 73.2549 46.956 73.2549 49.3853C73.2499 57.4267 77.5929 64.3477 84.0974 68.2641Z" fill="url(#paint45_linear)"/>
<path d="M101.028 39.2406C105.376 39.8976 108.721 43.3199 109.118 47.5469L130.141 48.1631C130.141 48.1529 130.141 48.1428 130.141 48.1377C130.141 32.4724 117.854 19.0683 101.404 17.3469L101.028 39.2406Z" fill="url(#paint46_linear)"/>
<g opacity="0.3">
<path opacity="0.3" d="M95.025 58.1552C94.6338 58.0534 94.2527 57.926 93.8816 57.7834L86.4292 69.5018C89.8946 71.0908 93.8063 71.87 97.9037 71.6306C101.214 71.4371 104.323 70.5968 107.111 69.2472C104.293 68.8143 101.78 67.7296 99.7693 65.9216C97.4824 63.854 95.9979 60.9919 95.025 58.1552Z" fill="url(#paint47_linear)"/>
</g>
<g opacity="0.3">
<path opacity="0.3" d="M92.5223 31.7645C91.6397 30.1094 90.3709 28.8514 88.9516 27.8889C82.9737 29.982 78.0539 34.3261 75.3809 39.9536L89.1071 44.7001C90.0599 43.0093 91.5243 41.6241 93.2947 40.743C93.6557 37.229 94.0569 34.6419 92.5223 31.7645Z" fill="url(#paint48_linear)"/>
</g>
<path d="M56.4847 152.921C56.4847 152.921 56.3643 153.899 56.4446 154.225C56.5248 154.551 59.3182 154.79 60.2661 154.673C61.2139 154.561 59.6993 153.578 59.0975 153.389C58.4957 153.206 56.4847 152.921 56.4847 152.921Z" fill="url(#paint49_linear)"/>
<path d="M57.8942 151.296L57.5983 153.252C57.5983 153.252 56.846 153.593 56.4849 153.257L56.4448 151.21L57.8942 151.296Z" fill="url(#paint50_linear)"/>
<path d="M42.1415 151.21C42.1415 151.21 42.7333 151.658 42.5778 152.193C42.4223 152.728 41.0382 154.872 40.0502 155.478C39.0622 156.084 39.3732 154.821 39.659 154.031C39.9449 153.242 40.6771 151.505 40.963 151.21C41.2538 150.915 42.1415 151.21 42.1415 151.21Z" fill="url(#paint51_linear)"/>
<path d="M43.2101 149.055C42.9243 149.865 42.6485 150.532 42.4328 151.026C41.9564 152.116 41.6956 152.524 41.3997 152.875C41.1439 153.186 40.5321 153.843 40.3666 153.731C40.2011 153.619 40.6475 152.819 41.505 150.476C41.6304 150.135 42.0216 149.055 42.0216 149.055H43.2101Z" fill="url(#paint52_linear)"/>
<path d="M63.7414 115.163C63.947 117.2 64.1426 120.368 63.8467 124.208C63.4655 129.214 62.4776 132.377 61.2439 137.714C60.4866 140.973 59.4735 145.771 58.5508 151.775C58.3351 151.897 57.7082 152.228 56.9008 152.106C56.4495 152.04 56.1084 151.856 55.9078 151.724C53.4906 144.228 54.2077 139.583 55.3712 136.69C55.8677 135.458 56.4695 134.485 56.7905 132.586C57.2168 130.075 56.6902 128.674 55.9379 122.863C55.4013 118.723 55.4966 118.081 55.8527 117.46C57.282 114.97 61.64 115.016 63.7414 115.163Z" fill="url(#paint53_linear)"/>
<path d="M55.4268 116.034C53.9474 123.796 52.493 127.87 51.3947 130.177C51.1239 130.747 50.2212 132.581 49.3636 135.208C48.6064 137.536 48.2904 139.247 48.1299 140.001C47.6184 142.379 46.3596 145.852 42.9644 150.41C42.9243 150.436 42.3425 150.767 41.7909 150.471C41.51 150.324 41.3696 150.084 41.3145 149.972C41.7558 145.618 42.2673 141.956 42.7086 139.13C42.7989 138.539 43.2101 135.947 43.8521 132.519C44.1028 131.18 44.4689 129.214 44.9103 127.197C45.4569 124.687 46.2994 121.27 47.5933 117.175C50.2062 116.798 52.819 116.416 55.4268 116.034Z" fill="url(#paint54_linear)"/>
<path d="M56.6902 85.3351C57.5277 84.5458 59.1375 83.6392 59.9399 81.5258C60.1806 80.8892 61.0432 78.6382 59.7744 76.9168C59.0222 75.8932 57.628 75.2006 56.3943 75.445C55.3411 75.6538 55.1756 76.3974 53.3903 77.8946C52.6932 78.4752 51.5748 79.4123 50.3311 79.9368C48.1997 80.828 46.9158 79.9877 44.7744 80.0845C42.1415 80.2016 39.0873 81.6938 37.6179 83.8633C35.005 87.7084 38.7914 91.6145 35.9278 96.1216C34.99 97.5985 34.5286 97.2674 32.3069 100.124C30.0853 102.987 28.9719 104.418 29.1675 106.17C29.4433 108.604 32.0261 110.926 34.4534 111.089C36.8305 111.242 38.3401 109.347 39.5487 110.178C40.4113 110.768 39.9148 111.919 40.8325 113.299C42.0111 115.082 44.328 115.433 44.6992 115.489C48.1696 116.019 52.8486 111.889 54.8396 106.989C58.4204 98.1638 52.1265 89.6181 56.6902 85.3351Z" fill="url(#paint55_linear)"/>
<path d="M70.9333 87.7897C70.9584 85.3248 65.4418 83.3539 62.9193 82.7224C58.9925 81.7344 55.853 82.3558 55.0908 82.5187C50.1961 83.5729 47.1469 86.5522 45.9985 87.8101C46.9363 88.4314 49.5291 90.3259 50.8129 93.9214C51.2141 95.0418 52.3927 98.8665 50.7026 102.447C49.7297 104.509 48.0095 106.063 46.7056 107.239C44.7447 109.006 43.7316 109.276 43.0747 110.86C42.3575 112.581 43.0797 113.422 42.192 114.603C41.2392 115.871 40.1208 115.28 38.5009 116.564C36.846 117.878 37.4327 118.957 35.9282 120.404C33.7366 122.512 30.8329 121.825 30.6975 122.772C30.5822 123.587 32.6433 124.692 34.3986 125.14C37.8741 126.026 40.9032 124.539 41.8008 124.076C44.2933 122.802 43.862 121.977 45.7678 121.01C48.9523 119.385 51.1289 121.193 58.3806 121.381C62.3074 121.483 64.2934 121.504 65.3817 120.154C66.3746 118.922 65.8531 117.572 65.2563 111.741C64.9704 108.965 64.8701 106.18 64.6595 103.399C64.0677 95.5358 64.0477 94.8432 64.5742 93.7584C66.4549 89.8574 70.9133 90 70.9333 87.7897Z" fill="white"/>
<g opacity="0.3">
<path d="M35.9281 120.393C37.4377 118.942 36.8459 117.862 38.5009 116.553C40.1207 115.275 41.2341 115.861 42.1919 114.593C43.0796 113.411 42.3574 112.576 43.0746 110.85C43.7316 109.266 44.7446 108.996 46.7055 107.229C48.0144 106.052 49.7346 104.504 50.7025 102.436C52.3926 98.8561 51.209 95.0315 50.8128 93.9111C49.529 90.3156 46.9362 88.4211 45.9984 87.7998C46.0886 87.703 46.194 87.5859 46.3093 87.4688C52.4979 88.3345 56.1087 91.9656 56.5551 93.0402C57.5882 95.5255 55.9533 96.4371 55.9131 103.608C55.8931 107.035 56.2592 108.39 55.1609 109.821C53.9071 111.456 52.4678 110.951 50.6523 113.09C49.2632 114.735 49.4838 115.774 48.1849 116.467C46.7857 117.21 45.8981 116.345 44.3233 116.686C41.6904 117.256 41.1287 120.337 39.3885 122.023C38.0746 123.296 35.6373 124.187 30.8429 123.235C30.7325 123.072 30.6774 122.909 30.6974 122.761C30.8328 121.814 33.7365 122.502 35.9281 120.393Z" fill="white"/>
</g>
<path d="M54.6796 94.9806C55.3366 96.4015 52.3125 99.7067 48.9524 101.275C48.2653 101.596 43.3506 103.893 41.159 101.683C39.3485 99.8595 40.517 96.0857 40.9333 94.7413C42.9845 88.1309 49.2733 84.7646 51.9113 83.5525C53.8772 88.5485 52.7187 90.774 52.2623 91.4717C51.7859 92.2 50.4569 93.7227 49.0426 95.0672C48.0497 96.0144 47.4328 96.4728 47.5131 96.6205C47.6184 96.8038 48.7819 96.4575 53.3055 94.2218C53.832 94.3033 54.4539 94.4968 54.6796 94.9806Z" fill="white"/>
<path d="M73.606 86.8271L71.3843 98.0515C71.3141 98.4131 71.0382 98.6932 70.6872 98.7696L54.1375 102.375C53.5457 102.503 52.994 102.019 53.0442 101.403L53.9168 89.9897C53.9469 89.5924 54.2227 89.2614 54.6039 89.1646C57.2268 88.5077 67.3321 86.0428 72.6631 85.7219C73.2549 85.6914 73.7213 86.2363 73.606 86.8271Z" fill="url(#paint56_linear)"/>
<path d="M57.0965 78.6279C57.0965 78.6279 56.7855 81.1641 55.8628 81.7447C54.94 82.3253 53.4505 83.0841 53.29 83.2878C53.1245 83.4915 58.9972 84.1332 61.9059 82.6461C60.948 82.4424 60.6873 82.366 60.6873 82.366C60.4265 82.2896 59.94 82.1521 59.4536 81.872C59.1226 81.6785 58.591 81.3067 58.0995 80.5988L58.1095 79.1932L57.0965 78.6279Z" fill="url(#paint57_linear)"/>
<path d="M56.9564 79.5293C56.9564 79.5293 57.5582 80.3645 58.501 80.0182C59.3436 79.7076 58.8421 77.4922 58.17 77.2427C57.9494 77.1561 57.5381 77.1969 57.2623 77.37C57.0717 77.4922 56.5552 78.139 56.8511 78.8673C56.6405 78.8062 56.4499 78.8622 56.4047 78.9691C56.3446 79.1066 56.5251 79.29 56.5652 79.3307C56.7056 79.4733 56.8812 79.514 56.9564 79.5293Z" fill="url(#paint58_linear)"/>
<path opacity="0.2" d="M58.7016 96.5341C60.4769 96.0248 61.9513 97.2878 63.3706 96.2896C64.8199 95.266 63.8721 93.5141 65.3816 91.7927C66.9915 89.9542 69.0376 90.8556 70.5321 89.1801C71.0837 88.5588 71.5852 87.5454 71.5903 85.8138C71.9664 85.7782 72.3225 85.7476 72.6585 85.7272C73.2553 85.6916 73.7166 86.2365 73.6013 86.8273L71.3796 98.0517C71.3094 98.4133 71.0336 98.6934 70.6825 98.7698L54.7798 102.238C55.9032 98.235 57.4027 96.9058 58.7016 96.5341Z" fill="#F4F7FA"/>
<path d="M72.5479 92.8009C72.5479 92.8009 73.6011 91.8078 73.7164 90.6568C73.8318 89.5059 73.0344 88.5841 72.262 88.3498C71.4897 88.1156 71.0785 88.4619 71.595 89.5925C72.1216 90.7281 72.9441 91.4615 72.5479 92.8009Z" fill="url(#paint59_linear)"/>
<path opacity="0.51" d="M32.1763 49.6296V70.1993C32.1763 70.8817 32.6778 71.4266 33.2946 71.4113L69.6839 70.5812C70.2406 70.571 70.6919 70.0363 70.6919 69.3895V49.9046L32.1763 49.6296Z" fill="url(#paint60_linear)"/>
<path d="M69.6902 47.4196L33.301 47.0325C32.6841 47.0274 32.1826 47.5723 32.1826 48.2548V50.3632L70.7033 50.5974V48.6011C70.6983 47.9543 70.2469 47.4246 69.6902 47.4196Z" fill="url(#paint61_linear)"/>
<path d="M34.7488 48.6926C34.7488 48.9931 34.5282 49.2375 34.2523 49.2375C33.9765 49.2375 33.7559 48.988 33.7559 48.6875C33.7559 48.387 33.9765 48.1426 34.2523 48.1426C34.5232 48.1426 34.7488 48.387 34.7488 48.6926Z" fill="white"/>
<path d="M39.8893 68.5849L37.0708 68.6409V53.3066L39.8893 53.3117V68.5849Z" fill="white"/>
<path d="M39.8893 68.5848L37.0708 68.6409V61.3582L39.8893 61.3328V68.5848Z" fill="url(#paint62_linear)"/>
<path d="M43.7757 68.5134L40.9873 68.5643V53.3115L43.7757 53.3166V68.5134Z" fill="white"/>
<path d="M43.7757 68.5136L40.9873 68.5645V64.9436L43.7757 64.9028V68.5136Z" fill="url(#paint63_linear)"/>
<path d="M47.6225 68.4368L44.8643 68.4928V53.3215L47.6225 53.3266V68.4368Z" fill="white"/>
<path d="M47.6225 68.437L44.8643 68.4931V66.5986L47.6225 66.5527V68.437Z" fill="url(#paint64_linear)"/>
<path d="M51.429 68.3655L48.6958 68.4165V53.3267L51.429 53.3368V68.3655Z" fill="white"/>
<path d="M51.429 68.3657L48.6958 68.4166V56.5964L51.429 56.5913V68.3657Z" fill="url(#paint65_linear)"/>
<path d="M55.1903 68.2938L52.4922 68.3448V53.3364L55.1903 53.3415V68.2938Z" fill="white"/>
<path d="M55.1903 68.2947L52.4922 68.3457V57.9259L55.1903 57.9106V68.2947Z" fill="url(#paint66_linear)"/>
<path d="M58.9167 68.2226L56.2437 68.2735V53.3416L58.9167 53.3517V68.2226Z" fill="white"/>
<path d="M58.9167 68.2232L56.2437 68.2741V55.5168L58.9167 55.5117V68.2232Z" fill="url(#paint67_linear)"/>
<path d="M62.6021 68.1511L59.9541 68.202V53.3516L62.6021 53.3567V68.1511Z" fill="white"/>
<path d="M62.6021 68.1519L59.9541 68.2028V59.0817L62.6021 59.0664V68.1519Z" fill="url(#paint68_linear)"/>
<path d="M66.2482 68.0808L63.6304 68.1317V53.3577L66.2482 53.3628V68.0808Z" fill="white"/>
<path d="M66.2482 68.0807L63.6304 68.1316V63.0032L66.2482 62.9727V68.0807Z" fill="url(#paint69_linear)"/>
<path d="M147.879 153.894C153.391 153.894 157.859 152.043 157.859 149.759C157.859 147.475 153.391 145.624 147.879 145.624C142.367 145.624 137.899 147.475 137.899 149.759C137.899 152.043 142.367 153.894 147.879 153.894Z" fill="#B7C0CE"/>
<path d="M157.864 149.275C157.864 151.434 153.395 153.181 147.884 153.181C142.372 153.181 137.904 151.434 137.904 149.275C137.904 147.121 142.372 143.591 147.884 143.591C153.395 143.586 157.864 147.115 157.864 149.275Z" fill="white"/>
<path opacity="0.3" d="M157.864 149.275C157.864 147.115 153.395 143.591 147.884 143.591C145.336 143.591 143.019 144.345 141.254 145.369C141.128 145.634 141.073 145.893 141.098 146.138C141.214 147.35 143.159 148.098 144.283 148.343C147.101 148.964 148.475 147.253 150.797 147.319C152.232 147.36 154.223 148.093 156.585 151.195C157.392 150.624 157.864 149.973 157.864 149.275Z" fill="url(#paint70_linear)"/>
<path d="M148.425 145.547C148.024 145.649 147.653 145.644 147.302 145.552C146.986 145.47 146.765 145.17 146.765 144.839V133.411H148.987V144.829C148.992 145.17 148.756 145.465 148.425 145.547Z" fill="white"/>
<path opacity="0.65" d="M148.425 145.547C148.024 145.649 147.653 145.644 147.302 145.552C146.986 145.47 146.765 145.17 146.765 144.839V133.411H148.987V144.829C148.992 145.17 148.756 145.465 148.425 145.547Z" fill="url(#paint71_linear)"/>
<path d="M136.153 128.598L139.544 126.424C139.684 125.609 141.284 117.104 147.773 114.43C150.411 113.346 153.25 113.473 154.809 113.544C157.919 113.687 160.14 113.784 161.209 115.291C162.578 117.226 160.281 118.983 160.757 124.514C160.953 126.77 161.444 127.773 160.832 129.271C160.095 131.063 158.39 132.056 157.061 132.612C155.471 133.549 152.708 134.883 149.057 135.209C142.909 135.754 138.315 133.075 136.74 132.051C136.038 131.827 135.511 131.231 135.361 130.503C135.205 129.765 135.521 129.006 136.153 128.598Z" fill="url(#paint72_linear)"/>
<path d="M155.492 114.003C157.794 114.074 159.223 114.043 160.015 115.087C160.848 116.182 160.005 117.114 159.85 121.015C159.709 124.57 160.326 125.976 159.193 127.947C159.193 127.947 158.616 128.95 157.708 129.699C154.504 132.357 146.229 132.321 142.748 126.775C139.97 122.35 141.129 115.826 144.393 113.667C145.993 112.607 146.359 113.728 155.492 114.003Z" fill="url(#paint73_linear)"/>
<path d="M135.908 126.648L139.298 124.473C139.298 124.473 148.38 121.443 156.786 125.716C157.729 126.195 158.31 127.183 158.31 128.252C158.31 129.072 157.824 129.81 157.082 130.126C155.617 131.145 152.754 132.82 148.807 133.258C142.533 133.956 137.869 131.038 136.49 130.101C135.788 129.877 135.261 129.281 135.111 128.553C134.955 127.809 135.276 127.05 135.908 126.648Z" fill="url(#paint74_linear)"/>
<path d="M113.445 114.425C113.445 114.425 127.894 119.029 127.533 102.126L135.537 104.53C135.537 104.53 136.314 124.152 116.364 116.926L113.445 114.425Z" fill="#F5F5F5"/>
<path d="M134.8 153.864H136.108C136.429 154.393 136.79 155.147 136.505 155.631C136.304 155.967 135.968 155.88 135.025 156.181C133.706 156.603 133.385 157.092 132.257 157.169C131.841 157.199 131.54 157.22 131.459 157.072C131.224 156.644 133.014 155.183 134.8 153.864Z" fill="url(#paint75_linear)"/>
<path d="M135 154.306C135.11 154.352 135.221 154.403 135.326 154.439C135.687 154.571 136.063 154.286 136.068 153.899C136.068 153.889 136.068 153.874 136.068 153.863C136.073 153.288 136.189 152.819 136.279 152.529C135.797 152.509 135.316 152.483 134.835 152.463C134.945 153.11 134.905 153.573 134.805 153.909C134.759 154.067 134.845 154.24 135 154.306Z" fill="url(#paint76_linear)"/>
<path d="M124.714 150.299H126.023C126.344 150.828 126.705 151.582 126.419 152.066C126.219 152.402 125.883 152.315 124.94 152.616C123.621 153.038 123.3 153.527 122.171 153.604C121.755 153.634 121.454 153.655 121.374 153.507C121.138 153.079 122.934 151.623 124.714 150.299Z" fill="url(#paint77_linear)"/>
<path d="M124.915 150.747C125.025 150.792 125.136 150.843 125.241 150.879C125.602 151.011 125.978 150.726 125.983 150.339C125.983 150.329 125.983 150.314 125.983 150.304C125.988 149.728 126.104 149.26 126.194 148.969C125.713 148.949 125.231 148.923 124.75 148.903C124.86 149.55 124.82 150.013 124.72 150.349C124.674 150.507 124.76 150.68 124.915 150.747Z" fill="url(#paint78_linear)"/>
<path d="M124.729 149.616C123.746 144.544 123.857 140.357 124.122 137.562C124.639 132.158 124.91 129.296 127.046 126.648C129.052 124.157 130.923 124.071 135.391 119.854C136.866 118.464 137.974 117.231 138.671 116.427C145.371 114.43 151.55 115.24 154.278 118.886C154.594 119.309 155.381 120.221 155.537 121.57C155.883 124.616 152.939 128.277 149.634 129.041C145.436 130.014 142.999 125.634 139.278 127.091C138.24 127.498 137.357 128.507 135.592 130.528C133.345 133.095 132.086 135.468 131.61 136.416C130.191 139.242 129.112 141.325 128.952 144.029C128.917 144.661 128.892 145.929 128.17 147.304C127.613 148.358 126.856 149.061 126.294 149.494C125.767 149.54 125.246 149.575 124.729 149.616Z" fill="url(#paint79_linear)"/>
<path d="M133.872 152.275C134.278 153.044 135.07 153.492 136.801 153.196C139.243 150.38 140.05 147.88 140.336 146.117C140.953 142.313 139.403 140.358 140.843 137.297C141.78 135.306 143.355 134.17 144.679 133.223C147.864 130.941 149.198 131.827 151.916 129.729C152.939 128.94 155.381 127.05 155.707 123.939C155.993 121.234 154.509 119.207 154.273 118.897C152.357 116.366 148.766 115.337 145.186 116.269C144.684 117.557 143.766 119.574 142.157 121.708C140.115 124.407 138.787 124.865 136.7 127.554C135.727 128.812 134.062 130.956 133.185 133.987C132.673 135.749 132.608 137.195 133.165 144.279C133.34 146.489 133.571 149.188 133.872 152.275Z" fill="url(#paint80_linear)"/>
<path d="M127.532 102.126C127.853 97.8892 139.268 92.3585 148.31 96.2188C159.022 100.792 159.132 115.434 159.127 116.488C159.092 121.01 157.638 126.149 155.998 126.261C154.799 126.342 154.729 123.643 152.257 122.171C149.609 120.593 147.588 122.436 141.374 122.253C138.546 122.166 135.341 122.075 134.604 120.404C133.861 118.724 136.464 117.328 136.74 114.609C137.317 109.032 127.221 106.226 127.532 102.126Z" fill="white"/>
<path d="M157.141 119.426C156.354 117.97 154.669 116.264 152.467 115.734C149.599 115.041 148.33 116.936 146.234 116.05C143.661 114.965 144.659 111.721 142.076 110.142C139.875 108.798 137.733 110.29 134.895 110.178C136.098 111.476 136.916 112.918 136.74 114.614C136.464 117.328 133.862 118.723 134.604 120.409C135.341 122.074 138.541 122.171 141.374 122.258C147.593 122.441 149.609 120.597 152.257 122.176C154.729 123.648 154.799 126.352 155.998 126.266C156.69 126.22 157.347 125.278 157.879 123.867C158.074 122.242 157.834 120.704 157.141 119.426Z" fill="white"/>
<path d="M134.167 95.74L134.569 95.9386C135.346 96.3206 136.219 96.4428 137.066 96.2798L138.199 96.0659C138.45 96.0201 138.636 96.2951 138.5 96.5141C137.858 97.5377 136.213 99.4679 133.505 97.9197L134.167 95.74Z" fill="url(#paint81_linear)"/>
<path d="M131.354 95.7654C129.96 95.251 129.488 91.9051 130.175 91.5384C130.572 91.3296 130.933 92.3278 132.397 92.7097C133.54 93.0102 134.268 92.6486 134.754 93.2292C134.985 93.5042 135.12 93.9371 135.115 94.3191C135.115 94.5177 135.065 94.7774 134.935 95.2969C134.819 95.7552 134.829 95.7348 134.794 95.8723C134.704 96.1983 134.503 96.7585 134.037 97.4969C133.932 97.3238 133.791 97.115 133.606 96.9011C133.535 96.8196 133.25 96.4937 132.899 96.2645C132.257 95.8418 131.755 95.9131 131.354 95.7654Z" fill="url(#paint82_linear)"/>
<path d="M134.689 96.6922C134.689 96.6922 134.388 97.9654 133.089 98.2964C131.926 98.5918 130.943 96.0556 131.495 95.2713C131.68 95.0065 132.142 94.7722 132.573 94.7569C132.829 94.7467 132.939 94.818 133.35 94.7977C133.731 94.7773 133.822 94.7009 133.957 94.762C134.128 94.8333 134.313 95.0778 134.328 95.9079C134.474 95.6125 134.709 95.4444 134.92 95.4699C134.955 95.475 135.05 95.5005 135.121 95.5718C135.376 95.8111 135.226 96.2746 134.689 96.6922Z" fill="url(#paint83_linear)"/>
<path d="M116.665 131.43C135.507 131.43 150.782 128.598 150.782 125.105C150.782 121.611 135.507 118.78 116.665 118.78C97.8223 118.78 82.5474 121.611 82.5474 125.105C82.5474 128.598 97.8223 131.43 116.665 131.43Z" fill="#BFC8D6"/>
<path d="M150.777 123.949H82.5474V125.11H150.777V123.949Z" fill="#BFC8D6"/>
<path d="M116.665 130.274C135.507 130.274 150.782 127.442 150.782 123.949C150.782 120.455 135.507 117.624 116.665 117.624C97.8223 117.624 82.5474 120.455 82.5474 123.949C82.5474 127.442 97.8223 130.274 116.665 130.274Z" fill="#DDE4EF"/>
<path d="M125.296 117.792L134.142 119.177V119.788L130.461 121.586L122.748 119.61L125.296 117.792Z" fill="#B7C0CE"/>
<path d="M125.085 116.457L134.142 119.177L130.461 120.975L122.748 118.999L125.085 116.457Z" fill="white"/>
<path d="M127.528 123.582L126.114 104.637C126.094 104.337 125.838 104.056 125.502 103.96L101.304 97.0591C101.089 96.9979 100.672 97.0591 100.507 97.1609C100.341 97.2628 100.156 97.2424 100.161 97.4359L101.174 114.945C101.189 115.235 101.425 115.51 101.751 115.617L127.006 123.949L127.528 123.582Z" fill="#D8DEE8"/>
<path d="M127.006 123.949L125.542 104.846C125.517 104.545 125.266 104.265 124.93 104.174L100.733 97.2679C100.517 97.2068 100.296 97.2323 100.131 97.3341C99.9653 97.436 99.875 97.6091 99.885 97.8027L100.612 115.138C100.622 115.439 100.868 115.719 101.199 115.826L127.006 123.949Z" fill="white"/>
<path d="M127.007 123.949L101.199 115.821C100.868 115.714 100.622 115.434 100.612 115.133L100.392 109.908C108.055 114.874 117.699 116.789 126.676 119.656L127.007 123.949Z" fill="#F4F7FA"/>
<path d="M114.163 124.529L115.081 125.105C115.081 125.105 119.429 123.149 119.69 123.032C119.73 123.012 119.91 122.788 119.69 122.696C118.526 122.202 114.083 121.036 114.083 121.036L111.771 122.151L114.163 124.529Z" fill="white"/>
<path d="M114.163 124.193L115.081 124.769C115.081 124.769 119.429 122.813 119.69 122.696C119.951 122.579 114.083 120.7 114.083 120.7L111.771 121.815L114.163 124.193Z" fill="#F4F7FA"/>
<path d="M109.644 109.567C109.644 109.567 107.448 121.504 107.217 122.171C107.001 122.788 113.225 124.779 114.714 125.156C114.84 125.186 115.02 125.13 115.081 125.105C115.507 125.146 113.531 110.687 113.531 110.687L113.385 110.657L109.644 109.567Z" fill="white"/>
<path d="M109.644 109.567C109.644 109.567 107.062 121.545 106.831 122.212C106.6 122.879 114.038 125.028 114.695 125.146C115.121 125.186 113.386 110.662 113.386 110.662L109.644 109.567Z" fill="white"/>
<path d="M132.608 117.277L132.387 119.279C132.387 119.279 141.419 123.231 149.067 119.279C156.72 115.327 153.661 100.649 153.661 100.649C153.661 100.649 151.209 96.127 145.602 96.7585C139.99 97.39 143.104 104.566 144.092 109.312C145.085 114.059 143.305 118.489 132.608 117.277Z" fill="#F5F5F5"/>
<path d="M132.608 117.277L131.173 117.007C130.888 116.956 130.597 117.012 130.351 117.165L128.776 118.036C128.42 118.234 128.515 118.79 128.917 118.835C129.198 118.871 129.539 118.881 129.94 118.84C131.324 118.698 131.745 119.217 132.387 119.273C133.024 119.334 133.856 118.066 132.608 117.277Z" fill="url(#paint84_linear)"/>
<path opacity="0.51" d="M115.28 72.8169V93.2388C115.28 93.9161 115.792 94.4458 116.419 94.4203L153.56 92.8415C154.132 92.8161 154.598 92.2712 154.598 91.6295V72.1599L115.28 72.8169Z" fill="url(#paint85_linear)"/>
<path d="M153.556 69.6951L116.414 70.2095C115.787 70.2197 115.276 70.7748 115.276 71.4521V73.5452L154.594 72.8475V70.8512C154.594 70.2044 154.133 69.69 153.556 69.6951Z" fill="url(#paint86_linear)"/>
<path opacity="0.74" d="M150.566 89.4347L119.664 90.6162V76.6774L150.566 76.0103V89.4347Z" fill="white"/>
<path d="M150.567 89.4348L119.659 90.6164V81.6582C120.667 87.7135 121.735 89.0274 122.542 89.0631C123.681 89.114 124.293 86.6338 126.008 86.5116C127.713 86.3894 128.29 88.7524 129.568 88.6251C132.001 88.3857 132.658 79.5345 134.629 79.4225C136.193 79.3308 137.252 84.8463 138.636 84.5814C139.644 84.3879 139.889 81.2864 140.652 81.2966C141.344 81.3068 141.374 83.8583 142.287 84.0671C143.621 84.3726 144.925 79.1933 146.765 79.1118C147.783 79.066 149.057 80.5786 150.561 85.8139C150.567 88.6913 150.567 86.5574 150.567 89.4348Z" fill="white"/>
<path d="M117.919 71.7731C117.919 72.0736 117.693 72.3231 117.417 72.3231C117.141 72.3282 116.916 72.0889 116.916 71.7884C116.916 71.4879 117.141 71.2384 117.417 71.2384C117.693 71.2333 117.919 71.4726 117.919 71.7731Z" fill="white"/>
</g>
<defs>
<linearGradient id="paint0_linear" x1="99.5" y1="197.433" x2="99.5" y2="-2.20649e-06" gradientUnits="userSpaceOnUse">
<stop offset="0.00126103" stop-color="#275C9A" stop-opacity="0.06"/>
<stop offset="1" stop-color="#275C9A" stop-opacity="0.05"/>
</linearGradient>
<linearGradient id="paint1_linear" x1="95.2337" y1="154.287" x2="95.2337" y2="139.11" gradientUnits="userSpaceOnUse">
<stop stop-color="#D600C9"/>
<stop offset="1" stop-color="#FF22B3"/>
</linearGradient>
<linearGradient id="paint2_linear" x1="156.897" y1="150.887" x2="64.8862" y2="135.881" gradientUnits="userSpaceOnUse">
<stop stop-color="#311944"/>
<stop offset="1" stop-color="#893976"/>
</linearGradient>
<linearGradient id="paint3_linear" x1="95.3164" y1="144.03" x2="95.3472" y2="130.797" gradientUnits="userSpaceOnUse">
<stop stop-color="#FF9085"/>
<stop offset="1" stop-color="#FB6FBB"/>
</linearGradient>
<linearGradient id="paint4_linear" x1="95.2312" y1="144.662" x2="95.2312" y2="139.109" gradientUnits="userSpaceOnUse">
<stop stop-color="#AD0BA3"/>
<stop offset="1" stop-color="#E71EA2"/>
</linearGradient>
<linearGradient id="paint5_linear" x1="156.897" y1="150.887" x2="64.8862" y2="135.881" gradientUnits="userSpaceOnUse">
<stop stop-color="#311944"/>
<stop offset="1" stop-color="#893976"/>
</linearGradient>
<linearGradient id="paint6_linear" x1="95.2134" y1="144.884" x2="95.2134" y2="132.667" gradientUnits="userSpaceOnUse">
<stop stop-color="#AD0BA3"/>
<stop offset="1" stop-color="#E71EA2"/>
</linearGradient>
<linearGradient id="paint7_linear" x1="95.2337" y1="143.25" x2="95.2337" y2="128.583" gradientUnits="userSpaceOnUse">
<stop stop-color="#D600C9"/>
<stop offset="1" stop-color="#FF22B3"/>
</linearGradient>
<linearGradient id="paint8_linear" x1="156.897" y1="140.362" x2="64.8862" y2="125.356" gradientUnits="userSpaceOnUse">
<stop stop-color="#311944"/>
<stop offset="1" stop-color="#893976"/>
</linearGradient>
<linearGradient id="paint9_linear" x1="95.3164" y1="133.505" x2="95.3472" y2="120.273" gradientUnits="userSpaceOnUse">
<stop stop-color="#FF9085"/>
<stop offset="1" stop-color="#FB6FBB"/>
</linearGradient>
<linearGradient id="paint10_linear" x1="95.2312" y1="134.135" x2="95.2312" y2="128.583" gradientUnits="userSpaceOnUse">
<stop stop-color="#AD0BA3"/>
<stop offset="1" stop-color="#E71EA2"/>
</linearGradient>
<linearGradient id="paint11_linear" x1="156.897" y1="140.362" x2="64.8862" y2="125.356" gradientUnits="userSpaceOnUse">
<stop stop-color="#311944"/>
<stop offset="1" stop-color="#893976"/>
</linearGradient>
<linearGradient id="paint12_linear" x1="95.2134" y1="134.358" x2="95.2134" y2="122.141" gradientUnits="userSpaceOnUse">
<stop stop-color="#AD0BA3"/>
<stop offset="1" stop-color="#E71EA2"/>
</linearGradient>
<linearGradient id="paint13_linear" x1="95.2337" y1="132.697" x2="95.2337" y2="118.031" gradientUnits="userSpaceOnUse">
<stop stop-color="#AD0BA3"/>
<stop offset="1" stop-color="#E71EA2"/>
</linearGradient>
<linearGradient id="paint14_linear" x1="156.897" y1="129.811" x2="64.8862" y2="114.805" gradientUnits="userSpaceOnUse">
<stop stop-color="#311944"/>
<stop offset="1" stop-color="#893976"/>
</linearGradient>
<linearGradient id="paint15_linear" x1="95.3164" y1="122.954" x2="95.3472" y2="109.722" gradientUnits="userSpaceOnUse">
<stop stop-color="#FF9085"/>
<stop offset="1" stop-color="#FB6FBB"/>
</linearGradient>
<linearGradient id="paint16_linear" x1="156.897" y1="129.811" x2="64.8862" y2="114.805" gradientUnits="userSpaceOnUse">
<stop stop-color="#311944"/>
<stop offset="1" stop-color="#893976"/>
</linearGradient>
<linearGradient id="paint17_linear" x1="95.2134" y1="123.81" x2="95.2134" y2="111.594" gradientUnits="userSpaceOnUse">
<stop stop-color="#AD0BA3"/>
<stop offset="1" stop-color="#E71EA2"/>
</linearGradient>
<linearGradient id="paint18_linear" x1="95.2337" y1="122.145" x2="95.2337" y2="107.479" gradientUnits="userSpaceOnUse">
<stop stop-color="#D600C9"/>
<stop offset="1" stop-color="#FF22B3"/>
</linearGradient>
<linearGradient id="paint19_linear" x1="156.897" y1="119.261" x2="64.8862" y2="104.254" gradientUnits="userSpaceOnUse">
<stop stop-color="#311944"/>
<stop offset="1" stop-color="#893976"/>
</linearGradient>
<linearGradient id="paint20_linear" x1="95.3164" y1="112.403" x2="95.3472" y2="99.1708" gradientUnits="userSpaceOnUse">
<stop stop-color="#FF9085"/>
<stop offset="1" stop-color="#FB6FBB"/>
</linearGradient>
<linearGradient id="paint21_linear" x1="156.897" y1="119.261" x2="64.8862" y2="104.254" gradientUnits="userSpaceOnUse">
<stop stop-color="#311944"/>
<stop offset="1" stop-color="#893976"/>
</linearGradient>
<linearGradient id="paint22_linear" x1="95.2134" y1="113.258" x2="95.2134" y2="101.041" gradientUnits="userSpaceOnUse">
<stop stop-color="#AD0BA3"/>
<stop offset="1" stop-color="#E71EA2"/>
</linearGradient>
<linearGradient id="paint23_linear" x1="95.2337" y1="111.598" x2="95.2337" y2="96.9318" gradientUnits="userSpaceOnUse">
<stop stop-color="#D600C9"/>
<stop offset="1" stop-color="#FF22B3"/>
</linearGradient>
<linearGradient id="paint24_linear" x1="156.897" y1="108.71" x2="64.8863" y2="93.7033" gradientUnits="userSpaceOnUse">
<stop stop-color="#311944"/>
<stop offset="1" stop-color="#893976"/>
</linearGradient>
<linearGradient id="paint25_linear" x1="95.3164" y1="101.852" x2="95.3472" y2="88.6201" gradientUnits="userSpaceOnUse">
<stop stop-color="#FF9085"/>
<stop offset="1" stop-color="#FB6FBB"/>
</linearGradient>
<linearGradient id="paint26_linear" x1="156.897" y1="108.71" x2="64.8863" y2="93.7033" gradientUnits="userSpaceOnUse">
<stop stop-color="#311944"/>
<stop offset="1" stop-color="#893976"/>
</linearGradient>
<linearGradient id="paint27_linear" x1="95.2134" y1="102.706" x2="95.2134" y2="90.4893" gradientUnits="userSpaceOnUse">
<stop stop-color="#AD0BA3"/>
<stop offset="1" stop-color="#E71EA2"/>
</linearGradient>
<linearGradient id="paint28_linear" x1="95.2337" y1="101.046" x2="95.2337" y2="86.3796" gradientUnits="userSpaceOnUse">
<stop stop-color="#D600C9"/>
<stop offset="1" stop-color="#FF22B3"/>
</linearGradient>
<linearGradient id="paint29_linear" x1="156.897" y1="98.1589" x2="64.8862" y2="83.1525" gradientUnits="userSpaceOnUse">
<stop stop-color="#311944"/>
<stop offset="1" stop-color="#893976"/>
</linearGradient>
<linearGradient id="paint30_linear" x1="95.3164" y1="91.3015" x2="95.3472" y2="78.0692" gradientUnits="userSpaceOnUse">
<stop stop-color="#FF9085"/>
<stop offset="1" stop-color="#FB6FBB"/>
</linearGradient>
<linearGradient id="paint31_linear" x1="72.8371" y1="71.376" x2="104.421" y2="95.77" gradientUnits="userSpaceOnUse">
<stop stop-color="#FF9085"/>
<stop offset="1" stop-color="#FB6FBB"/>
</linearGradient>
<linearGradient id="paint32_linear" x1="156.897" y1="98.1589" x2="64.8862" y2="83.1525" gradientUnits="userSpaceOnUse">
<stop stop-color="#311944"/>
<stop offset="1" stop-color="#893976"/>
</linearGradient>
<linearGradient id="paint33_linear" x1="95.2134" y1="92.1537" x2="95.2134" y2="79.9371" gradientUnits="userSpaceOnUse">
<stop stop-color="#AD0BA3"/>
<stop offset="1" stop-color="#E71EA2"/>
</linearGradient>
<linearGradient id="paint34_linear" x1="95.2337" y1="90.4938" x2="95.2337" y2="75.8276" gradientUnits="userSpaceOnUse">
<stop stop-color="#D600C9"/>
<stop offset="1" stop-color="#FF22B3"/>
</linearGradient>
<linearGradient id="paint35_linear" x1="156.897" y1="87.6084" x2="64.8862" y2="72.602" gradientUnits="userSpaceOnUse">
<stop stop-color="#311944"/>
<stop offset="1" stop-color="#893976"/>
</linearGradient>
<linearGradient id="paint36_linear" x1="95.3164" y1="80.7507" x2="95.3472" y2="67.5185" gradientUnits="userSpaceOnUse">
<stop stop-color="#FF9085"/>
<stop offset="1" stop-color="#FB6FBB"/>
</linearGradient>
<linearGradient id="paint37_linear" x1="95.2312" y1="81.3844" x2="95.2312" y2="75.8272" gradientUnits="userSpaceOnUse">
<stop stop-color="#AD0BA3"/>
<stop offset="1" stop-color="#E71EA2"/>
</linearGradient>
<linearGradient id="paint38_linear" x1="156.897" y1="87.6084" x2="64.8862" y2="72.602" gradientUnits="userSpaceOnUse">
<stop stop-color="#311944"/>
<stop offset="1" stop-color="#893976"/>
</linearGradient>
<linearGradient id="paint39_linear" x1="95.2134" y1="81.6067" x2="95.2134" y2="69.3899" gradientUnits="userSpaceOnUse">
<stop stop-color="#D600C9"/>
<stop offset="1" stop-color="#FF22B3"/>
</linearGradient>
<linearGradient id="paint40_linear" x1="83.7206" y1="24.4463" x2="88.5578" y2="67.5068" gradientUnits="userSpaceOnUse">
<stop stop-color="#311944"/>
<stop offset="1" stop-color="#893976"/>
</linearGradient>
<linearGradient id="paint41_linear" x1="100.962" y1="58.4417" x2="119.725" y2="95.7621" gradientUnits="userSpaceOnUse">
<stop stop-color="#311944"/>
<stop offset="1" stop-color="#893976"/>
</linearGradient>
<linearGradient id="paint42_linear" x1="72.1319" y1="42.6878" x2="99.4853" y2="77.32" gradientUnits="userSpaceOnUse">
<stop stop-color="#311944"/>
<stop offset="1" stop-color="#893976"/>
</linearGradient>
<linearGradient id="paint43_linear" x1="124.602" y1="18.2922" x2="106.363" y2="43.3387" gradientUnits="userSpaceOnUse">
<stop stop-color="#311944"/>
<stop offset="1" stop-color="#893976"/>
</linearGradient>
<linearGradient id="paint44_linear" x1="85.2282" y1="24.4757" x2="90.0206" y2="67.1381" gradientUnits="userSpaceOnUse">
<stop stop-color="#FFC444"/>
<stop offset="0.9964" stop-color="#F36F56"/>
</linearGradient>
<linearGradient id="paint45_linear" x1="91.6166" y1="55.3233" x2="73.2215" y2="55.3233" gradientUnits="userSpaceOnUse">
<stop stop-color="#AA80F9"/>
<stop offset="0.9964" stop-color="#6165D7"/>
</linearGradient>
<linearGradient id="paint46_linear" x1="115.584" y1="48.1704" x2="115.584" y2="17.3483" gradientUnits="userSpaceOnUse">
<stop stop-color="#D600C9"/>
<stop offset="1" stop-color="#FF22B3"/>
</linearGradient>
<linearGradient id="paint47_linear" x1="93.7278" y1="63.1326" x2="112.091" y2="99.6573" gradientUnits="userSpaceOnUse">
<stop offset="0.00359712" stop-color="#E38DDD"/>
<stop offset="1" stop-color="#9571F6"/>
</linearGradient>
<linearGradient id="paint48_linear" x1="83.0776" y1="24.76" x2="87.8601" y2="67.334" gradientUnits="userSpaceOnUse">
<stop stop-color="#FFC444"/>
<stop offset="0.9964" stop-color="#F36F56"/>
</linearGradient>
<linearGradient id="paint49_linear" x1="59.3904" y1="154.82" x2="59.2488" y2="153.711" gradientUnits="userSpaceOnUse">
<stop stop-color="#AB316D"/>
<stop offset="1" stop-color="#792D3D"/>
</linearGradient>
<linearGradient id="paint50_linear" x1="57.8929" y1="152.307" x2="56.4469" y2="152.307" gradientUnits="userSpaceOnUse">
<stop stop-color="#311944"/>
<stop offset="1" stop-color="#A03976"/>
</linearGradient>
<linearGradient id="paint51_linear" x1="41.0934" y1="151.105" x2="36.5821" y2="158.584" gradientUnits="userSpaceOnUse">
<stop stop-color="#AB316D"/>
<stop offset="1" stop-color="#792D3D"/>
</linearGradient>
<linearGradient id="paint52_linear" x1="43.2099" y1="151.401" x2="40.3341" y2="151.401" gradientUnits="userSpaceOnUse">
<stop stop-color="#311944"/>
<stop offset="1" stop-color="#A03976"/>
</linearGradient>
<linearGradient id="paint53_linear" x1="61.2414" y1="154.561" x2="49.633" y2="144.342" gradientUnits="userSpaceOnUse">
<stop stop-color="#AB316D"/>
<stop offset="1" stop-color="#792D3D"/>
</linearGradient>
<linearGradient id="paint54_linear" x1="48.8223" y1="116.236" x2="10.1955" y2="153.168" gradientUnits="userSpaceOnUse">
<stop stop-color="#AB316D"/>
<stop offset="1" stop-color="#792D3D"/>
</linearGradient>
<linearGradient id="paint55_linear" x1="62.0372" y1="73.5451" x2="13.5049" y2="90.3285" gradientUnits="userSpaceOnUse">
<stop stop-color="#311944"/>
<stop offset="1" stop-color="#6B3976"/>
</linearGradient>
<linearGradient id="paint56_linear" x1="63.3318" y1="102.4" x2="63.3318" y2="85.7214" gradientUnits="userSpaceOnUse">
<stop stop-color="#D600C9"/>
<stop offset="1" stop-color="#FF22B3"/>
</linearGradient>
<linearGradient id="paint57_linear" x1="56.4476" y1="85.5906" x2="57.8757" y2="76.8514" gradientUnits="userSpaceOnUse">
<stop stop-color="#FFC444"/>
<stop offset="0.9964" stop-color="#F36F56"/>
</linearGradient>
<linearGradient id="paint58_linear" x1="57.7979" y1="77.6598" x2="56.0144" y2="86.6432" gradientUnits="userSpaceOnUse">
<stop stop-color="#FFC444"/>
<stop offset="0.9964" stop-color="#F36F56"/>
</linearGradient>
<linearGradient id="paint59_linear" x1="73.8696" y1="96.3768" x2="71.7144" y2="85.5479" gradientUnits="userSpaceOnUse">
<stop stop-color="#311944"/>
<stop offset="1" stop-color="#A03976"/>
</linearGradient>
<linearGradient id="paint60_linear" x1="51.4332" y1="71.4168" x2="51.4332" y2="49.6306" gradientUnits="userSpaceOnUse">
<stop stop-color="#D600C9"/>
<stop offset="1" stop-color="#FF22B3"/>
</linearGradient>
<linearGradient id="paint61_linear" x1="51.442" y1="50.5983" x2="51.442" y2="47.0326" gradientUnits="userSpaceOnUse">
<stop stop-color="#D600C9"/>
<stop offset="1" stop-color="#FF22B3"/>
</linearGradient>
<linearGradient id="paint62_linear" x1="39.8887" y1="64.9832" x2="37.0657" y2="64.9832" gradientUnits="userSpaceOnUse">
<stop stop-color="#AA80F9"/>
<stop offset="0.9964" stop-color="#6165D7"/>
</linearGradient>
<linearGradient id="paint63_linear" x1="43.7752" y1="66.7319" x2="40.9822" y2="66.7319" gradientUnits="userSpaceOnUse">
<stop stop-color="#AA80F9"/>
<stop offset="0.9964" stop-color="#6165D7"/>
</linearGradient>
<linearGradient id="paint64_linear" x1="47.622" y1="67.5219" x2="44.8592" y2="67.5219" gradientUnits="userSpaceOnUse">
<stop stop-color="#AA80F9"/>
<stop offset="0.9964" stop-color="#6165D7"/>
</linearGradient>
<linearGradient id="paint65_linear" x1="51.4285" y1="62.4981" x2="48.6908" y2="62.4981" gradientUnits="userSpaceOnUse">
<stop stop-color="#AA80F9"/>
<stop offset="0.9964" stop-color="#6165D7"/>
</linearGradient>
<linearGradient id="paint66_linear" x1="55.1898" y1="63.123" x2="52.4873" y2="63.123" gradientUnits="userSpaceOnUse">
<stop stop-color="#AA80F9"/>
<stop offset="0.9964" stop-color="#6165D7"/>
</linearGradient>
<linearGradient id="paint67_linear" x1="58.9162" y1="61.8866" x2="56.2388" y2="61.8866" gradientUnits="userSpaceOnUse">
<stop stop-color="#AA80F9"/>
<stop offset="0.9964" stop-color="#6165D7"/>
</linearGradient>
<linearGradient id="paint68_linear" x1="62.6016" y1="63.6301" x2="59.9493" y2="63.6301" gradientUnits="userSpaceOnUse">
<stop stop-color="#AA80F9"/>
<stop offset="0.9964" stop-color="#6165D7"/>
</linearGradient>
<linearGradient id="paint69_linear" x1="66.2477" y1="65.5496" x2="63.6256" y2="65.5496" gradientUnits="userSpaceOnUse">
<stop stop-color="#AA80F9"/>
<stop offset="0.9964" stop-color="#6165D7"/>
</linearGradient>
<linearGradient id="paint70_linear" x1="141.087" y1="147.389" x2="157.862" y2="147.389" gradientUnits="userSpaceOnUse">
<stop stop-color="#AA80F9"/>
<stop offset="0.9964" stop-color="#6165D7"/>
</linearGradient>
<linearGradient id="paint71_linear" x1="146.77" y1="139.517" x2="148.99" y2="139.517" gradientUnits="userSpaceOnUse">
<stop stop-color="#AA80F9"/>
<stop offset="0.9964" stop-color="#6165D7"/>
</linearGradient>
<linearGradient id="paint72_linear" x1="158.899" y1="137.12" x2="154.75" y2="131.797" gradientUnits="userSpaceOnUse">
<stop stop-color="#311944"/>
<stop offset="1" stop-color="#893976"/>
</linearGradient>
<linearGradient id="paint73_linear" x1="149.622" y1="125.091" x2="154.993" y2="111.07" gradientUnits="userSpaceOnUse">
<stop stop-color="#311944"/>
<stop offset="1" stop-color="#893976"/>
</linearGradient>
<linearGradient id="paint74_linear" x1="146.697" y1="127.602" x2="146.615" y2="134.49" gradientUnits="userSpaceOnUse">
<stop stop-color="#311944"/>
<stop offset="1" stop-color="#893976"/>
</linearGradient>
<linearGradient id="paint75_linear" x1="131.437" y1="155.527" x2="136.604" y2="155.527" gradientUnits="userSpaceOnUse">
<stop stop-color="#311944"/>
<stop offset="1" stop-color="#6B3976"/>
</linearGradient>
<linearGradient id="paint76_linear" x1="133.703" y1="158.559" x2="142.576" y2="132.347" gradientUnits="userSpaceOnUse">
<stop stop-color="#311944"/>
<stop offset="1" stop-color="#A03976"/>
</linearGradient>
<linearGradient id="paint77_linear" x1="121.352" y1="151.966" x2="126.519" y2="151.966" gradientUnits="userSpaceOnUse">
<stop stop-color="#311944"/>
<stop offset="1" stop-color="#6B3976"/>
</linearGradient>
<linearGradient id="paint78_linear" x1="123.619" y1="154.999" x2="132.492" y2="128.786" gradientUnits="userSpaceOnUse">
<stop stop-color="#311944"/>
<stop offset="1" stop-color="#A03976"/>
</linearGradient>
<linearGradient id="paint79_linear" x1="132.523" y1="151.781" x2="138.825" y2="132.14" gradientUnits="userSpaceOnUse">
<stop stop-color="#444B8C"/>
<stop offset="0.9964" stop-color="#3E4177"/>
</linearGradient>
<linearGradient id="paint80_linear" x1="133.174" y1="132.753" x2="148.042" y2="135.741" gradientUnits="userSpaceOnUse">
<stop stop-color="#444B8C"/>
<stop offset="0.9964" stop-color="#3E4177"/>
</linearGradient>
<linearGradient id="paint81_linear" x1="135.354" y1="99.6033" x2="136.108" y2="94.7416" gradientUnits="userSpaceOnUse">
<stop stop-color="#FFC444"/>
<stop offset="0.9964" stop-color="#F36F56"/>
</linearGradient>
<linearGradient id="paint82_linear" x1="135.382" y1="91.234" x2="127.464" y2="94.314" gradientUnits="userSpaceOnUse">
<stop stop-color="#311944"/>
<stop offset="1" stop-color="#6B3976"/>
</linearGradient>
<linearGradient id="paint83_linear" x1="133.488" y1="95.3075" x2="131.691" y2="106.537" gradientUnits="userSpaceOnUse">
<stop stop-color="#FFC444"/>
<stop offset="0.9964" stop-color="#F36F56"/>
</linearGradient>
<linearGradient id="paint84_linear" x1="131.177" y1="117.464" x2="129.61" y2="122.621" gradientUnits="userSpaceOnUse">
<stop stop-color="#311944"/>
<stop offset="0.2163" stop-color="#49204E"/>
<stop offset="0.3096" stop-color="#532353"/>
<stop offset="1" stop-color="#A03976"/>
</linearGradient>
<linearGradient id="paint85_linear" x1="137.305" y1="73.513" x2="123.822" y2="122.051" gradientUnits="userSpaceOnUse">
<stop offset="0.00359712" stop-color="#E38DDD"/>
<stop offset="1" stop-color="#9571F6"/>
</linearGradient>
<linearGradient id="paint86_linear" x1="134.934" y1="73.5461" x2="134.934" y2="69.6952" gradientUnits="userSpaceOnUse">
<stop stop-color="#D600C9"/>
<stop offset="1" stop-color="#FF22B3"/>
</linearGradient>
<clipPath id="clip0">
<rect width="200" height="200" fill="white"/>
</clipPath>
</defs>
</svg>
