<svg width="200" height="200" viewBox="0 0 200 200" fill="none" xmlns="http://www.w3.org/2000/svg">
<g clip-path="url(#clip0)">
<path d="M45.2524 9.37896C18.6343 24.3352 9.64925 55.955 4.07068 85.8909C-1.4268 115.392 -4.27393 147.829 15.1848 170.729C34.6911 193.686 67.3231 196.846 97.4947 195.838C127.599 194.832 158.626 188.502 177.729 165.298C197.798 140.919 203.736 107.474 195.245 77.1001C186.903 47.2624 163.285 25.1255 134.97 12.3412C106.296 -0.605208 72.6736 -6.02849 45.2524 9.37896Z" fill="url(#paint0_linear)"/>
<path d="M65.5977 164.661C65.5977 164.661 70.5612 166.945 70.6604 167.315C70.7266 167.684 67.4508 167.18 66.1272 167.248C64.8036 167.315 63.6785 166.912 63.8109 166.34C63.9433 165.769 64.4065 164.325 64.4065 164.325L65.5977 164.661Z" fill="url(#paint1_linear)"/>
<path d="M65.7632 162.779L65.4654 165.064C65.4654 165.064 64.6712 165.333 64.1418 164.997L63.9102 162.51L65.7632 162.779Z" fill="url(#paint2_linear)"/>
<path d="M42.4021 162.847L41.8396 163.787C41.6742 164.056 41.6411 164.359 41.7072 164.661C41.9058 165.434 42.3029 166.979 42.5014 167.382C42.733 167.92 45.9427 168.256 45.9427 168.256C45.9427 168.256 46.2405 167.852 45.5456 167.349C44.8839 166.845 44.4537 166.777 44.2221 166.038C43.9904 165.299 43.825 163.25 43.825 163.25L42.4021 162.847Z" fill="url(#paint3_linear)"/>
<path d="M44.7849 160.461C44.5864 160.629 43.5275 163.821 43.5275 163.821C43.5275 163.821 43.1966 164.258 42.5679 163.619C41.9392 162.981 42.2701 163.317 42.2701 163.317L42.4025 160.192L44.7849 160.461Z" fill="url(#paint4_linear)"/>
<path d="M68.51 117.189C68.7747 123.976 68.7747 131.333 68.4108 139.195C67.9806 148.031 67.1203 156.228 66.0283 163.653C65.6312 163.653 65.2011 163.653 64.7378 163.653C64.44 163.653 64.1422 163.619 63.8775 163.619C63.315 162.074 62.6532 160.058 62.0245 157.639C61.3958 155.086 60.9987 152.835 60.734 150.651C59.7744 142.991 60.8994 142.319 60.1384 136.642C59.4435 131.602 58.4839 131.401 57.3258 124.278C56.0683 116.518 56.9949 115.375 57.4581 114.939C59.3442 113.057 63.8444 114.3 68.51 117.189Z" fill="url(#paint5_linear)"/>
<path opacity="0.3" d="M57.4244 114.871C59.2443 113.158 63.4467 114.2 67.8476 116.786C62.7518 122.363 62.2224 125.992 62.818 128.343C63.5129 130.998 65.5976 131.77 65.5976 134.66C65.5976 138.221 62.4209 139.161 62.4871 142.958C62.5202 145.444 63.91 145.444 64.2409 148.501C64.6379 152.163 62.818 153.406 63.4136 156.094C63.6783 157.27 64.4063 158.781 66.4579 160.327C66.3255 161.436 66.1601 162.544 65.9946 163.619C65.5976 163.619 65.1674 163.619 64.7041 163.619C64.4063 163.619 64.1085 163.586 63.8438 163.586C63.2813 162.04 62.6195 160.025 61.9908 157.606C61.3621 155.052 60.965 152.801 60.7003 150.618C59.7407 142.958 60.8657 142.286 60.1047 136.608C59.4098 131.569 58.4502 131.367 57.2921 124.245C56.0347 116.45 56.9612 115.275 57.4244 114.871Z" fill="url(#paint6_linear)"/>
<path d="M65.3665 117.055C60.9987 123.573 56.2668 131.67 52.0314 141.345C48.8548 148.669 46.5385 155.556 44.8178 161.671C44.5862 161.772 44.0568 162.007 43.3619 161.906C42.4023 161.772 41.8398 161.167 41.7074 160.999C41.0125 156.598 41.0787 152.902 41.3103 150.215C41.4758 148.501 41.7405 145.645 42.7994 142.084C44.0237 138.12 44.8509 137.918 46.4062 133.719C48.0275 129.385 47.6305 128.276 49.2188 122.834C49.8475 120.583 50.9394 117.257 52.7263 113.292C56.9617 114.569 61.1641 115.812 65.3665 117.055Z" fill="url(#paint7_linear)"/>
<path d="M83.202 107.849C83.1689 109.428 80.621 110.84 78.5364 111.276C73.7384 112.284 68.1462 108.757 65.466 104.826C64.9365 104.053 64.374 103.112 64.2086 103.18C63.8777 103.348 66.7896 108.152 68.08 113.662C68.7418 116.484 68.5764 117.794 69.7676 119.642C70.0323 120.078 70.3632 120.515 70.264 121.019C69.9661 122.262 67.1535 122.598 65.1682 122.833C63.0835 123.068 61.1643 123.068 59.2451 123.035C56.2009 123.001 55.9362 122.833 55.2413 123.169C53.1235 124.244 53.2559 126.764 51.6676 127.1C50.3109 127.402 48.9543 125.857 48.5241 125.387C46.274 122.867 46.3733 119.843 45.9762 116.786C45.0166 109.697 41.2113 101.937 37.5053 96.9979C36.3802 95.5197 35.5861 94.7134 35.553 93.336C35.3875 89.2708 41.7407 84.7354 47.0351 84.2314C48.491 84.097 51.072 84.1306 53.5206 84.3658C54.4802 84.4666 55.5391 84.601 56.631 84.8026C59.3444 85.2729 61.1974 85.6089 63.1166 86.4824C70.8596 90.0436 69.172 98.0394 77.5437 103.549C80.4886 105.464 83.2351 106.203 83.202 107.849Z" fill="white"/>
<path d="M82.1094 110.672C82.1094 110.672 84.0948 110.47 85.2529 109.966C86.411 109.462 87.1721 110.168 87.0728 110.705C86.9735 111.209 85.0213 111.915 84.2602 111.949C83.4991 111.949 82.1094 110.672 82.1094 110.672Z" fill="url(#paint8_linear)"/>
<path d="M39.7218 121.355C37.604 121.557 32.8391 121.657 29.464 118.499C23.8388 113.258 26.6183 103.213 28.5375 98.9129C30.7545 93.9743 34.3282 91.1858 36.479 89.506C39.1593 87.4231 40.7807 86.1464 42.766 86.4152C47.8618 87.1543 51.4355 97.7371 48.6229 100.794C47.6964 101.802 46.803 101.231 44.1558 102.105C43.2955 102.373 36.843 104.49 35.751 109.294C34.99 112.654 36.9753 116.618 40.549 119.272C40.2512 119.944 39.9865 120.65 39.7218 121.355Z" fill="white"/>
<path d="M42.7661 86.3821C42.7661 86.3821 45.4133 82.7874 57.3917 85.6094L58.6491 89.8089C58.8146 90.3465 58.3844 90.8504 57.855 90.7496C54.7445 90.3465 46.1413 88.9019 42.7661 86.3821Z" fill="url(#paint9_linear)"/>
<path d="M51.4682 80.032C51.4682 80.032 51.1373 81.9134 50.3763 83.2572C49.6814 84.4667 46.8357 84.9034 46.2401 85.105C45.6445 85.3066 47.1335 86.348 48.7218 86.7512C50.3101 87.1208 54.9426 87.3559 55.8691 86.852C56.7625 86.3481 55.2735 86.1801 54.1816 85.6089C53.0896 85.0378 52.7256 82.6525 53.0565 81.6446C53.3874 80.6703 51.4682 80.032 51.4682 80.032Z" fill="url(#paint10_linear)"/>
<path d="M54.4794 79.495C55.6375 78.6551 55.9353 76.4042 55.3066 75.9002C55.1081 75.7658 54.9427 75.833 52.3617 76.8745C51.0712 77.412 50.4425 77.6808 50.2439 78.2519C50.1116 78.6215 50.1447 79.0918 50.277 79.4614C50.3432 79.663 50.5086 79.8981 50.8065 80.3685C51.0712 80.7716 51.0712 80.7716 51.1373 80.8724C51.3359 81.1412 51.733 81.6451 52.4609 82.1827C52.494 81.9811 52.5602 81.7123 52.6595 81.4436C52.6926 81.3428 52.858 80.906 53.1227 80.5701C53.586 79.9317 54.1154 79.7638 54.4794 79.495Z" fill="url(#paint11_linear)"/>
<path d="M51.5346 81.6448C51.5346 81.6448 52.2956 82.7871 53.6854 82.6191C54.9428 82.4847 54.9759 79.629 54.1486 79.0579C53.8839 78.8563 53.3214 78.8227 52.8912 78.9571C52.6265 79.0579 52.5603 79.1587 52.1302 79.2931C51.7331 79.4274 51.6338 79.3602 51.5346 79.4946C51.4022 79.629 51.3029 79.9314 51.5676 80.7713C51.3029 80.5361 51.0382 80.4689 50.8397 80.5697C50.8066 80.6033 50.7404 80.6369 50.6742 80.7377C50.5419 81.0401 50.8397 81.4432 51.5346 81.6448Z" fill="url(#paint12_linear)"/>
<path opacity="0.3" d="M63.4138 119.541C61.0313 117.996 60.6673 116.451 57.9871 115.409C54.5127 114.065 52.8251 115.779 51.1044 114.401C49.0529 112.721 50.8728 109.832 49.3176 104.793C49.0529 103.953 47.0675 97.4352 42.5011 96.6289C40.3834 96.2593 37.5708 97.0656 36.5119 98.9134C35.6847 100.358 36.4457 101.4 35.42 102.979C34.3942 104.558 33.1699 104.188 31.8463 105.498C29.7616 107.581 29.4638 111.982 31.3499 114.468C32.2434 115.611 33.3684 116.081 35.5192 116.955C36.8428 117.492 38.034 117.794 39.0929 117.996C36.4788 115.443 35.0891 112.15 35.7509 109.295C36.4457 106.305 39.1922 104.356 41.4092 103.214C43.6262 107.413 45.413 112.251 46.0417 116.854C46.4388 119.911 46.3395 122.935 48.5896 125.454C49.0198 125.925 50.3765 127.47 51.7331 127.168C53.3214 126.832 53.1891 124.278 55.3068 123.237C56.0017 122.901 56.2333 123.035 59.3107 123.103C61.2299 123.136 63.149 123.136 65.2337 122.901C66.9874 122.699 69.403 122.397 70.131 121.456C66.9213 121.322 64.8366 120.448 63.4138 119.541Z" fill="url(#paint13_linear)"/>
<path opacity="0.3" d="M76.4181 107.615C72.9106 106.808 71.5208 106.842 69.8001 105.431C66.9213 103.079 66.4912 99.5179 64.8036 99.5515C64.0094 99.5851 63.3807 100.391 62.9175 101.198C63.3476 101.87 63.7778 102.542 64.1749 103.213C64.1749 103.18 64.1749 103.18 64.208 103.146C64.3403 103.079 64.9359 104.02 65.4654 104.792C68.1126 108.723 73.7047 112.251 78.5358 111.243C79.9255 110.941 81.5138 110.235 82.4403 109.294C80.0579 108.522 78.0064 107.984 76.4181 107.615Z" fill="url(#paint14_linear)"/>
<path d="M33.8653 128.209L33.402 127.134C32.6409 125.421 33.4351 123.439 35.1888 122.7L103.32 94.0757L106.166 101.232L38.3985 129.956C36.6448 130.695 34.6263 129.923 33.8653 128.209Z" fill="url(#paint15_linear)"/>
<path d="M171.122 67.2995C163.71 46.3019 141.441 35.3832 121.223 43.5134C100.641 51.7781 90.7142 76.2696 99.2513 97.6031C107.59 118.433 130.223 127.873 149.713 119.306C168.872 110.874 178.402 87.8267 171.122 67.2995ZM105.207 95.117C98.1263 77.2775 106.399 56.7839 123.605 49.8295C140.547 42.9759 159.276 52.0468 165.563 69.6512C171.718 86.9532 163.71 106.372 147.562 113.46C131.117 120.65 112.123 112.621 105.207 95.117Z" fill="url(#paint16_linear)"/>
<path opacity="0.3" d="M103.288 94.1091L94.585 97.7711C94.2541 100.728 93.1952 102.508 92.1033 103.65C87.934 107.884 81.5146 104.356 73.5069 109.631C69.5031 112.285 70.4296 113.628 66.6243 115.577C60.3373 118.802 56.9952 115.51 51.4031 118.433C45.7779 121.389 45.6786 126.597 42.3365 126.731C40.9137 126.798 38.9614 125.925 36.5459 122.128L35.123 122.733C33.3693 123.472 32.6082 125.454 33.3362 127.168L33.7994 128.243C34.5605 129.956 36.579 130.729 38.2996 129.99L106.133 101.265L103.288 94.1091Z" fill="#D8DEE8"/>
<path opacity="0.1" d="M149.481 116.249C132.506 123.707 112.85 115.409 105.637 97.2672C98.291 78.7893 106.894 57.5566 124.697 50.367C142.234 43.2783 161.591 52.6852 168.11 70.9278C174.496 88.8345 166.191 108.925 149.481 116.249Z" fill="white"/>
<path d="M172.677 69.0128C165.265 48.0153 142.995 37.0966 122.778 45.2268C102.196 53.4915 92.2689 77.983 100.806 99.3165C109.145 120.146 131.778 129.587 151.268 121.02C170.393 112.587 179.923 89.54 172.677 69.0128ZM106.729 96.8304C99.6479 78.9573 107.953 58.4973 125.127 51.5429C142.069 44.6893 160.797 53.7602 167.084 71.3646C173.239 88.6665 165.231 108.085 149.084 115.174C132.671 122.363 113.645 114.334 106.729 96.8304Z" fill="url(#paint17_linear)"/>
<path d="M170.691 69.8531C163.676 50.0314 142.664 39.7846 123.605 47.4781C104.214 55.306 94.8829 78.3529 102.891 98.4434C110.733 118.097 132.076 127.067 150.473 118.971C168.573 111.008 177.574 89.238 170.691 69.8531ZM106.729 96.8307C99.6478 78.9576 107.953 58.4976 125.127 51.5432C142.069 44.6896 160.797 53.7606 167.084 71.3649C173.239 88.6669 165.231 108.085 149.084 115.174C132.671 122.364 113.645 114.334 106.729 96.8307Z" fill="url(#paint18_linear)"/>
<path d="M39.8872 120.885L40.3505 119.709C40.3505 119.709 41.1115 119.743 41.7402 119.306C42.0711 119.071 42.6998 118.97 42.8653 119.037C43.0307 119.071 43.7256 119.071 42.9645 119.44C42.2035 119.81 42.2035 120.079 42.5344 120.381C42.8653 120.683 44.0565 121.322 44.4867 121.355C44.9168 121.389 44.1227 122.061 43.6925 122.162C43.2623 122.262 42.5344 122.363 41.641 121.826C41.3431 121.624 39.8872 120.885 39.8872 120.885Z" fill="url(#paint19_linear)"/>
</g>
<defs>
<linearGradient id="paint0_linear" x1="99.5" y1="-1.4331" x2="99.5" y2="196" gradientUnits="userSpaceOnUse">
<stop offset="0.00126103" stop-color="#275C9A" stop-opacity="0.06"/>
<stop offset="1" stop-color="#275C9A" stop-opacity="0.05"/>
</linearGradient>
<linearGradient id="paint1_linear" x1="67.9988" y1="156.696" x2="66.7273" y2="172.636" gradientUnits="userSpaceOnUse">
<stop stop-color="#311944"/>
<stop offset="1" stop-color="#A03976"/>
</linearGradient>
<linearGradient id="paint2_linear" x1="64.8138" y1="165.572" x2="65.045" y2="149.061" gradientUnits="userSpaceOnUse">
<stop stop-color="#FFC444"/>
<stop offset="0.9964" stop-color="#F36F56"/>
</linearGradient>
<linearGradient id="paint3_linear" x1="44.684" y1="154.837" x2="43.4125" y2="170.776" gradientUnits="userSpaceOnUse">
<stop stop-color="#311944"/>
<stop offset="1" stop-color="#A03976"/>
</linearGradient>
<linearGradient id="paint4_linear" x1="43.4472" y1="165.273" x2="43.6784" y2="148.761" gradientUnits="userSpaceOnUse">
<stop stop-color="#FFC444"/>
<stop offset="0.9964" stop-color="#F36F56"/>
</linearGradient>
<linearGradient id="paint5_linear" x1="62.695" y1="163.665" x2="62.695" y2="114.046" gradientUnits="userSpaceOnUse">
<stop stop-color="#D600C9"/>
<stop offset="1" stop-color="#FF22B3"/>
</linearGradient>
<linearGradient id="paint6_linear" x1="62.2531" y1="163.631" x2="62.2531" y2="114.034" gradientUnits="userSpaceOnUse">
<stop stop-color="#D600C9"/>
<stop offset="1" stop-color="#FF22B3"/>
</linearGradient>
<linearGradient id="paint7_linear" x1="53.2576" y1="161.942" x2="53.2576" y2="113.295" gradientUnits="userSpaceOnUse">
<stop stop-color="#D600C9"/>
<stop offset="1" stop-color="#FF22B3"/>
</linearGradient>
<linearGradient id="paint8_linear" x1="86.5761" y1="109.538" x2="82.8052" y2="111.8" gradientUnits="userSpaceOnUse">
<stop stop-color="#FFC444"/>
<stop offset="0.9964" stop-color="#F36F56"/>
</linearGradient>
<linearGradient id="paint9_linear" x1="50.7252" y1="90.7641" x2="50.7252" y2="84.5286" gradientUnits="userSpaceOnUse">
<stop stop-color="#D600C9"/>
<stop offset="1" stop-color="#FF22B3"/>
</linearGradient>
<linearGradient id="paint10_linear" x1="53.3699" y1="89.5778" x2="48.2021" y2="81.2235" gradientUnits="userSpaceOnUse">
<stop stop-color="#FFC444"/>
<stop offset="0.9964" stop-color="#F36F56"/>
</linearGradient>
<linearGradient id="paint11_linear" x1="49.9326" y1="86.8653" x2="53.6298" y2="76.0643" gradientUnits="userSpaceOnUse">
<stop offset="0.00359712" stop-color="#E38DDD"/>
<stop offset="1" stop-color="#9571F6"/>
</linearGradient>
<linearGradient id="paint12_linear" x1="57.7782" y1="83.5224" x2="49.2339" y2="78.3792" gradientUnits="userSpaceOnUse">
<stop stop-color="#FFC444"/>
<stop offset="0.9964" stop-color="#F36F56"/>
</linearGradient>
<linearGradient id="paint13_linear" x1="31.548" y1="116.388" x2="65.6006" y2="106.294" gradientUnits="userSpaceOnUse">
<stop stop-color="#AA80F9"/>
<stop offset="0.9964" stop-color="#6165D7"/>
</linearGradient>
<linearGradient id="paint14_linear" x1="64.8038" y1="107.521" x2="80.5154" y2="102.864" gradientUnits="userSpaceOnUse">
<stop stop-color="#AA80F9"/>
<stop offset="0.9964" stop-color="#6165D7"/>
</linearGradient>
<linearGradient id="paint15_linear" x1="69.6379" y1="130.245" x2="69.6379" y2="94.0773" gradientUnits="userSpaceOnUse">
<stop stop-color="#D600C9"/>
<stop offset="1" stop-color="#FF22B3"/>
</linearGradient>
<linearGradient id="paint16_linear" x1="134.874" y1="122.478" x2="134.874" y2="40.82" gradientUnits="userSpaceOnUse">
<stop stop-color="#C006B5"/>
<stop offset="1" stop-color="#DF189B"/>
</linearGradient>
<linearGradient id="paint17_linear" x1="136.42" y1="124.191" x2="136.42" y2="42.5334" gradientUnits="userSpaceOnUse">
<stop stop-color="#D600C9"/>
<stop offset="1" stop-color="#FF22B3"/>
</linearGradient>
<linearGradient id="paint18_linear" x1="136.509" y1="121.961" x2="136.509" y2="44.9177" gradientUnits="userSpaceOnUse">
<stop stop-color="#D600C9"/>
<stop offset="1" stop-color="#FF22B3"/>
</linearGradient>
<linearGradient id="paint19_linear" x1="43.4741" y1="124.304" x2="41.3927" y2="119.054" gradientUnits="userSpaceOnUse">
<stop stop-color="#FFC444"/>
<stop offset="0.9964" stop-color="#F36F56"/>
</linearGradient>
<clipPath id="clip0">
<rect width="200" height="200" fill="white"/>
</clipPath>
</defs>
</svg>
