<svg width="200" height="200" viewBox="0 0 200 200" fill="none" xmlns="http://www.w3.org/2000/svg">
<g clip-path="url(#clip0)">
<path d="M45.2524 9.37896C18.6343 24.3352 9.64925 55.955 4.07068 85.8909C-1.4268 115.392 -4.27393 147.829 15.1848 170.729C34.6911 193.686 67.3231 196.846 97.4947 195.838C127.599 194.832 158.626 188.502 177.729 165.298C197.798 140.919 203.736 107.474 195.245 77.1001C186.903 47.2624 163.285 25.1255 134.97 12.3412C106.296 -0.605208 72.6736 -6.02849 45.2524 9.37896Z" fill="url(#paint0_linear)"/>
<path d="M22.8496 39.4763L38.4814 83.472C39.369 85.9702 42.0718 87.209 44.5201 86.24C46.9684 85.2709 48.2329 82.4618 47.3453 79.9637L31.7135 35.968L22.8496 39.4763Z" fill="url(#paint1_linear)"/>
<path d="M44.4173 85.8983C42.1692 86.7901 39.6756 85.6445 38.8606 83.3454L29.9365 58.1704L38.0817 54.9392L47.0057 80.1142C47.832 82.4088 46.6654 85.0065 44.4173 85.8983Z" fill="url(#paint2_linear)"/>
<path d="M37.9558 54.9071C38.2867 55.8423 36.7648 57.3188 34.5383 58.2036C32.3118 59.0884 30.2491 59.0365 29.9182 58.1013C29.5873 57.166 31.1092 55.6896 33.3357 54.8048C35.5621 53.92 37.6208 53.9604 37.9558 54.9071Z" fill="url(#paint3_linear)"/>
<path opacity="0.5" d="M42.1018 83.0601C40.3502 80.544 42.2459 78.1846 40.8828 73.3368C39.3353 67.862 36.2563 68.5368 34.2273 63.239C31.6779 56.589 35.5139 52.8693 32.2177 48.3096C30.3576 45.7439 28.6279 46.2026 26.3438 43.065C25.3524 41.7008 24.6885 40.2732 24.2477 38.8895L22.8608 39.4373L38.5376 83.4646C39.4277 85.9645 42.1382 87.2043 44.5936 86.2345C45.1051 86.0325 45.5609 85.7468 45.962 85.4168C43.9058 84.922 42.7652 84.0127 42.1018 83.0601Z" fill="white"/>
<path d="M31.8758 34.9494L31.242 35.2008C30.2357 35.0812 28.5035 35.4182 26.6466 36.1548C24.7898 36.8915 23.2752 37.8425 22.5914 38.6326L21.9576 38.884C21.9715 39.1379 22.0955 39.4519 22.2317 39.6573L22.2761 39.7824L22.3094 39.7692C22.8605 40.3936 25.1525 40.133 27.6987 39.1228C30.2449 38.1127 32.1338 36.7148 32.1497 35.8654L32.1457 35.854C32.1417 35.8427 32.1417 35.8427 32.1488 35.8269C32.1419 35.5572 32.0312 35.1731 31.8758 34.9494Z" fill="url(#paint4_linear)"/>
<path d="M27.3684 38.1981C30.1061 37.1129 32.1234 35.6636 31.8742 34.961C31.625 34.2584 29.2036 34.5687 26.4658 35.6539C23.7281 36.7391 21.7108 38.1884 21.9601 38.891C22.2093 39.5936 24.6307 39.2834 27.3684 38.1981Z" fill="url(#paint5_linear)"/>
<path d="M27.3084 38.0278C29.6717 37.0909 31.4125 35.8382 31.1966 35.2297C30.9808 34.6212 28.89 34.8874 26.5267 35.8242C24.1634 36.7611 22.4225 38.0138 22.6384 38.6223C22.8543 39.2308 24.9451 38.9646 27.3084 38.0278Z" fill="url(#paint6_linear)"/>
<path d="M109.516 73.4724L153.1 77.1088C158.075 77.5709 161.475 81.5086 161.475 86.692V86.7523C161.475 91.9356 157.518 95.9537 152.543 95.7126L107.672 94.3866L109.516 73.4724Z" fill="url(#paint7_linear)"/>
<path d="M31.8193 79.2986L108.288 74.4769C112.821 74.1956 116.528 77.5508 116.528 81.9908V85.0044C116.528 89.4444 112.821 93.2013 108.288 93.4022L31.8193 96.7573V79.2986Z" fill="url(#paint8_linear)"/>
<path d="M31.1277 78.4147L107.692 73.4926C113.608 73.1108 118.468 77.5107 118.468 83.3168V83.3771C118.468 89.1832 113.608 94.1054 107.692 94.3666L31.1277 97.6413C30.6475 97.6614 30.2441 97.2596 30.2441 96.7574C30.2441 96.235 30.6283 95.8131 31.1277 95.793L107.692 92.3575C112.456 92.1365 116.374 88.1787 116.374 83.4976V83.4374C116.374 78.7764 112.456 75.2203 107.692 75.5217L31.1277 80.2832C30.6475 80.3032 30.2441 79.9215 30.2441 79.3992C30.2441 78.8768 30.6475 78.4348 31.1277 78.4147Z" fill="url(#paint9_linear)"/>
<path d="M108.959 94.427L152.543 95.6927C157.518 95.9338 161.475 102.443 161.475 110.218V110.299C161.475 118.074 157.518 124.482 152.543 124.583L105.905 126.23L108.959 94.427Z" fill="url(#paint10_linear)"/>
<path d="M31.8188 99.0076L104.215 96.0141C110.996 95.7328 116.547 100.916 116.547 107.586V112.107C116.547 118.777 110.996 124.241 104.215 124.322L31.8188 125.206V99.0076Z" fill="url(#paint11_linear)"/>
<path d="M31.1272 97.6413L107.692 94.3666C113.608 94.1054 118.468 100.996 118.468 109.696V109.796C118.468 118.515 113.608 125.647 107.692 125.708L31.1272 126.531C30.647 126.531 30.2437 125.909 30.2437 125.145C30.2437 124.382 30.6278 123.739 31.1272 123.739L107.692 122.674C112.455 122.614 116.374 116.848 116.374 109.856V109.756C116.374 102.744 112.455 97.1993 107.692 97.4002L31.1272 100.434C30.647 100.454 30.2437 99.8513 30.2437 99.0677C30.2437 98.3043 30.647 97.6614 31.1272 97.6413Z" fill="url(#paint12_linear)"/>
<path d="M111.572 126.491L153.062 125.507C156.885 125.426 159.92 128.58 159.92 132.558V135.271C159.92 139.249 156.885 142.684 153.062 142.925L111.572 145.637V126.491Z" fill="url(#paint13_linear)"/>
<path d="M117.412 125.607L152.544 124.583C157.519 124.482 161.475 128.601 161.475 133.784V133.844C161.475 139.028 157.519 143.488 152.544 143.829L117.412 146.702C116.797 146.742 109.651 146.26 109.651 145.698C109.651 145.135 116.336 144.693 116.931 144.673L152.544 141.981C156.558 141.72 159.766 138.124 159.766 133.925V133.864C159.766 129.686 156.558 126.351 152.544 126.451L117.412 127.656C116.797 127.677 109.651 127.094 109.651 126.531C109.651 125.969 116.797 125.627 117.412 125.607Z" fill="url(#paint14_linear)"/>
<path d="M31.8188 127.455L116.547 126.632V145.738L31.8188 144.914V127.455Z" fill="url(#paint15_linear)"/>
<path d="M31.1272 143.91L117.411 144.653C117.987 144.653 118.468 145.115 118.468 145.678C118.468 146.24 117.987 146.702 117.411 146.682L31.1272 145.758C30.647 145.758 30.2437 145.336 30.2437 144.814C30.2437 144.332 30.647 143.91 31.1272 143.91Z" fill="url(#paint16_linear)"/>
<path d="M31.1287 126.531L117.413 125.607C117.989 125.607 118.469 126.049 118.469 126.612C118.469 127.174 117.989 127.636 117.413 127.636L31.1287 128.38C30.6485 128.38 30.2451 127.978 30.2451 127.456C30.2451 126.953 30.6485 126.551 31.1287 126.531Z" fill="url(#paint17_linear)"/>
<path opacity="0.1" d="M120.638 98.7263L129.897 99.2889C132.144 105.959 131.971 112.408 129.897 120.243L120.638 120.223C122.501 112.207 122.213 105.135 120.638 98.7263Z" fill="white"/>
<path d="M140.615 142.403L140.903 130.309L151.545 142.564C151.545 142.564 156.75 142.725 155.771 148.41H151.161L143.881 150.861C143.881 150.861 145.974 146.803 142.44 144.774C141.595 144.292 141.403 143.026 140.615 142.403Z" fill="url(#paint18_linear)"/>
<path d="M152.505 129.927L140.903 130.308C140.903 130.308 146.473 134.728 143.88 150.861C143.88 150.861 148.932 149.173 151.141 146.301L155.77 148.39C155.77 148.41 159.228 135.994 152.505 129.927Z" fill="url(#paint19_linear)"/>
<path d="M183.045 25.3127L146.295 96.1028C144.208 100.122 145.695 105.198 149.617 107.443C153.539 109.689 158.407 108.251 160.494 104.231L197.245 33.4414L183.045 25.3127Z" fill="url(#paint20_linear)"/>
<path d="M149.884 106.895C146.279 104.828 144.905 100.134 146.824 96.4349L167.83 55.9265L180.894 63.4134L159.888 103.922C157.987 107.632 153.49 108.961 149.884 106.895Z" fill="url(#paint21_linear)"/>
<path d="M180.941 63.3063C180.159 64.8147 176.637 64.3929 173.054 62.338C169.472 60.2831 167.227 57.3965 168.008 55.8882C168.79 54.3799 172.312 54.8016 175.894 56.8565C179.477 58.9114 181.732 61.7796 180.941 63.3063Z" fill="url(#paint22_linear)"/>
<path opacity="0.5" d="M150.786 100.554C151.937 95.342 156.955 95.2649 161.413 87.9582C166.438 79.6956 162.179 76.2691 166.45 67.551C171.808 56.6043 180.664 57.6343 182.614 48.024C183.706 42.609 181.215 40.7737 182.539 34.139C183.117 31.2565 184.137 28.7479 185.352 26.5921L183.133 25.323L146.319 96.1635C144.229 100.186 145.718 105.265 149.647 107.512C150.465 107.98 151.325 108.279 152.178 108.453C150.499 105.101 150.35 102.527 150.786 100.554Z" fill="white"/>
<path d="M198.88 32.6493L197.86 32.0649C196.881 30.5513 194.526 28.5586 191.538 26.8462C188.55 25.1339 185.681 24.1325 183.941 24.0875L182.921 23.503C182.623 23.8086 182.375 24.3329 182.274 24.7513L182.169 24.9532L182.223 24.984C182.069 26.4438 184.957 29.2893 189.054 31.6374C193.151 33.9855 196.99 34.9954 198.057 34.0585L198.066 34.0401C198.076 34.0218 198.076 34.0218 198.103 34.0137C198.428 33.7 198.778 33.1147 198.88 32.6493Z" fill="url(#paint23_linear)"/>
<path d="M189.829 30.1494C194.235 32.6731 198.283 33.7992 198.872 32.6646C199.46 31.53 196.366 28.5643 191.961 26.0406C187.556 23.5168 183.507 22.3907 182.919 23.5253C182.33 24.66 185.424 27.6256 189.829 30.1494Z" fill="url(#paint24_linear)"/>
<path d="M189.972 29.8741C193.774 32.0527 197.27 33.0222 197.78 32.0395C198.29 31.0568 195.62 28.4941 191.818 26.3155C188.015 24.1369 184.519 23.1675 184.009 24.1501C183.499 25.1328 186.169 27.6955 189.972 29.8741Z" fill="url(#paint25_linear)"/>
</g>
<defs>
<linearGradient id="paint0_linear" x1="99.5" y1="-1.4331" x2="99.5" y2="196" gradientUnits="userSpaceOnUse">
<stop offset="0.00126103" stop-color="#275C9A" stop-opacity="0.06"/>
<stop offset="1" stop-color="#275C9A" stop-opacity="0.05"/>
</linearGradient>
<linearGradient id="paint1_linear" x1="42.4952" y1="60.0384" x2="27.9446" y2="63.158" gradientUnits="userSpaceOnUse">
<stop offset="0.494" stop-color="#EBEFF2"/>
<stop offset="1" stop-color="white"/>
</linearGradient>
<linearGradient id="paint2_linear" x1="30.9967" y1="44.2001" x2="21.1804" y2="50.7819" gradientUnits="userSpaceOnUse">
<stop stop-color="#AA80F9"/>
<stop offset="0.9964" stop-color="#6165D7"/>
</linearGradient>
<linearGradient id="paint3_linear" x1="34.0315" y1="52.9589" x2="33.7145" y2="58.039" gradientUnits="userSpaceOnUse">
<stop stop-color="#AA80F9"/>
<stop offset="0.9964" stop-color="#6165D7"/>
</linearGradient>
<linearGradient id="paint4_linear" x1="27.0518" y1="34.6497" x2="27.1395" y2="38.1044" gradientUnits="userSpaceOnUse">
<stop offset="0.494" stop-color="#EBEFF2"/>
<stop offset="1" stop-color="white"/>
</linearGradient>
<linearGradient id="paint5_linear" x1="26.9161" y1="34.6422" x2="27.0036" y2="38.0927" gradientUnits="userSpaceOnUse">
<stop offset="0.494" stop-color="#EBEFF2"/>
<stop offset="1" stop-color="white"/>
</linearGradient>
<linearGradient id="paint6_linear" x1="27.4354" y1="38.098" x2="26.2882" y2="35.7331" gradientUnits="userSpaceOnUse">
<stop offset="0.494" stop-color="#EBEFF2"/>
<stop offset="1" stop-color="white"/>
</linearGradient>
<linearGradient id="paint7_linear" x1="142.49" y1="64.4654" x2="129.531" y2="92.6467" gradientUnits="userSpaceOnUse">
<stop stop-color="#AA80F9"/>
<stop offset="0.9964" stop-color="#6165D7"/>
</linearGradient>
<linearGradient id="paint8_linear" x1="74.1717" y1="96.7626" x2="74.1717" y2="74.4614" gradientUnits="userSpaceOnUse">
<stop stop-color="#D600C9"/>
<stop offset="1" stop-color="#FF22B3"/>
</linearGradient>
<linearGradient id="paint9_linear" x1="118.476" y1="85.5602" x2="30.2504" y2="85.5602" gradientUnits="userSpaceOnUse">
<stop stop-color="#AA80F9"/>
<stop offset="0.9964" stop-color="#6165D7"/>
</linearGradient>
<linearGradient id="paint10_linear" x1="161.464" y1="110.313" x2="105.804" y2="110.313" gradientUnits="userSpaceOnUse">
<stop stop-color="#AA80F9"/>
<stop offset="0.9964" stop-color="#6165D7"/>
</linearGradient>
<linearGradient id="paint11_linear" x1="74.1808" y1="125.213" x2="74.1808" y2="96.0045" gradientUnits="userSpaceOnUse">
<stop stop-color="#D600C9"/>
<stop offset="1" stop-color="#FF22B3"/>
</linearGradient>
<linearGradient id="paint12_linear" x1="74.3535" y1="126.539" x2="74.3535" y2="94.3608" gradientUnits="userSpaceOnUse">
<stop stop-color="#D600C9"/>
<stop offset="1" stop-color="#FF22B3"/>
</linearGradient>
<linearGradient id="paint13_linear" x1="135.745" y1="145.642" x2="135.745" y2="125.506" gradientUnits="userSpaceOnUse">
<stop stop-color="#B900AE"/>
<stop offset="1" stop-color="#E4189E"/>
</linearGradient>
<linearGradient id="paint14_linear" x1="163.211" y1="135.965" x2="141.932" y2="135.742" gradientUnits="userSpaceOnUse">
<stop stop-color="#AA80F9"/>
<stop offset="0.9964" stop-color="#6165D7"/>
</linearGradient>
<linearGradient id="paint15_linear" x1="74.1808" y1="145.742" x2="74.1808" y2="126.632" gradientUnits="userSpaceOnUse">
<stop stop-color="#D600C9"/>
<stop offset="1" stop-color="#FF22B3"/>
</linearGradient>
<linearGradient id="paint16_linear" x1="118.475" y1="145.307" x2="30.2499" y2="145.307" gradientUnits="userSpaceOnUse">
<stop stop-color="#AA80F9"/>
<stop offset="0.9964" stop-color="#6165D7"/>
</linearGradient>
<linearGradient id="paint17_linear" x1="118.477" y1="127.005" x2="30.2513" y2="127.005" gradientUnits="userSpaceOnUse">
<stop stop-color="#AA80F9"/>
<stop offset="0.9964" stop-color="#6165D7"/>
</linearGradient>
<linearGradient id="paint18_linear" x1="148.254" y1="150.866" x2="148.254" y2="130.31" gradientUnits="userSpaceOnUse">
<stop stop-color="#AA06A0"/>
<stop offset="1" stop-color="#C01284"/>
</linearGradient>
<linearGradient id="paint19_linear" x1="145.391" y1="143.938" x2="151.673" y2="135.045" gradientUnits="userSpaceOnUse">
<stop stop-color="#AA80F9"/>
<stop offset="0.9964" stop-color="#6165D7"/>
</linearGradient>
<linearGradient id="paint20_linear" x1="179.623" y1="75.2084" x2="158.499" y2="60.4153" gradientUnits="userSpaceOnUse">
<stop offset="0.494" stop-color="#EBEFF2"/>
<stop offset="1" stop-color="white"/>
</linearGradient>
<linearGradient id="paint21_linear" x1="149.869" y1="106.9" x2="176.299" y2="60.7828" gradientUnits="userSpaceOnUse">
<stop stop-color="#D600C9"/>
<stop offset="1" stop-color="#FF22B3"/>
</linearGradient>
<linearGradient id="paint22_linear" x1="173.053" y1="62.3392" x2="176.123" y2="56.988" gradientUnits="userSpaceOnUse">
<stop stop-color="#D600C9"/>
<stop offset="1" stop-color="#FF22B3"/>
</linearGradient>
<linearGradient id="paint23_linear" x1="193.849" y1="25.7025" x2="189.464" y2="29.4651" gradientUnits="userSpaceOnUse">
<stop offset="0.494" stop-color="#EBEFF2"/>
<stop offset="1" stop-color="white"/>
</linearGradient>
<linearGradient id="paint24_linear" x1="193.714" y1="25.5147" x2="189.332" y2="29.276" gradientUnits="userSpaceOnUse">
<stop offset="0.494" stop-color="#EBEFF2"/>
<stop offset="1" stop-color="white"/>
</linearGradient>
<linearGradient id="paint25_linear" x1="190.027" y1="30.1274" x2="191.982" y2="26.0385" gradientUnits="userSpaceOnUse">
<stop offset="0.494" stop-color="#EBEFF2"/>
<stop offset="1" stop-color="white"/>
</linearGradient>
<clipPath id="clip0">
<rect width="200" height="200" fill="white"/>
</clipPath>
</defs>
</svg>
