<svg width="200" height="200" viewBox="0 0 200 200" fill="none" xmlns="http://www.w3.org/2000/svg">
<g clip-path="url(#clip0)">
<path d="M153.748 9.37896C180.366 24.3352 189.351 55.955 194.929 85.8909C200.427 115.392 203.274 147.829 183.815 170.729C164.309 193.686 131.677 196.846 101.505 195.838C71.4007 194.832 40.3737 188.502 21.271 165.298C1.20151 140.919 -4.73579 107.474 3.75537 77.1001C12.0965 47.2624 35.7149 25.1255 64.0302 12.3412C92.7045 -0.605208 126.326 -6.02849 153.748 9.37896Z" fill="url(#paint0_linear)"/>
<path d="M106.347 75.9526C107.777 75.0034 106.458 72.2675 106.403 66.4049C106.293 59.2023 108.217 57.8623 106.678 55.0148C104.808 51.5531 100.133 50.1014 97.0538 50.0456C96.3939 50.0456 96.2289 49.6547 90.5097 51.1623C80.2262 53.8423 77.6415 50.9947 73.0221 53.8423C68.5678 56.634 70.4925 59.7049 66.2031 62.9991C59.2191 68.3033 51.8501 62.5524 46.7908 67.0191C42.0615 71.2067 41.9515 81.9827 46.9008 87.7894C52.565 94.4337 62.7386 92.4236 69.5577 91.1394C70.9875 90.8603 78.2465 89.2969 85.7804 83.6577C89.9598 80.531 92.8194 77.1809 94.6342 74.7242C95.0741 74.2217 95.734 73.6634 96.6139 73.5517C97.6587 73.44 98.5386 74.1101 98.9235 74.3892C101.178 75.8967 104.918 76.9018 106.347 75.9526Z" fill="url(#paint1_linear)"/>
<path d="M100.573 71.9883C102.388 70.3133 108.987 73.5516 113.331 77.9067C118.446 83.0434 118.061 87.1752 122.515 93.5402C124.715 96.7228 128.564 100.966 135.273 104.707C134.778 105.935 134.338 107.108 133.843 108.336C130.599 108.56 124.165 108.392 118.226 104.484C114.101 101.748 111.957 98.1186 107.832 90.916C103.763 83.7135 98.3184 74.11 100.573 71.9883Z" fill="white"/>
<path d="M140.772 172.043L138.682 167.521C138.407 166.906 137.912 166.348 137.362 165.957L136.317 165.231C136.317 165.231 133.843 165.176 133.458 166.739C133.348 168.749 137.197 173.216 139.672 175.002C140.057 175.282 140.662 175.672 140.992 175.505C141.542 175.17 141.157 173.327 140.772 172.043Z" fill="url(#paint2_linear)"/>
<path d="M136.868 162.775C136.538 164.729 136.978 165.734 137.418 166.292C137.748 166.683 140.278 170.982 139.233 171.708C138.738 172.043 135.494 167.911 135.164 167.297C134.889 166.739 134.669 166.851 134.669 165.287C134.669 164.282 134.449 163.445 134.284 162.942C135.164 162.83 135.988 162.83 136.868 162.775Z" fill="url(#paint3_linear)"/>
<path d="M140.553 147.42C140.553 147.42 142.863 150.212 142.478 153.283C142.093 156.354 138.023 151.887 137.474 150.324C136.924 148.816 136.264 146.639 136.264 146.639C136.264 146.639 139.123 144.852 140.553 147.42Z" fill="url(#paint4_linear)"/>
<path d="M139.673 143.009C139.673 143.009 139.068 146.304 140.223 147.979C140.828 148.816 141.598 149.542 141.378 150.268C141.213 150.714 140.608 151.049 140.113 150.994C139.123 150.882 138.573 149.374 138.188 148.314C137.639 146.75 137.309 143.344 137.309 143.344L139.673 143.009Z" fill="url(#paint5_linear)"/>
<path d="M137.859 145.801C138.573 145.522 139.288 145.298 140.003 145.019C141.103 142.451 142.478 138.208 142.038 133.071C140.883 119.838 128.84 112.803 127.465 112.077C124.165 113.752 120.866 116.097 120.756 119.112C120.591 122.853 125.595 124.807 130.325 130.279C133.074 133.517 136.099 138.375 137.859 145.801Z" fill="url(#paint6_linear)"/>
<path d="M137.088 164.282C139.453 154.958 138.848 147.308 138.188 142.953C137.143 136.309 135.054 122.853 126.2 117.772C124.275 116.656 121.471 115.706 118.116 112.636C115.312 110.067 113.497 107.387 112.397 105.489C100.519 101.971 89.5751 103.367 84.7358 109.844C84.1859 110.57 82.7561 112.189 82.5361 114.59C81.9312 119.95 87.1555 126.482 92.9847 127.822C100.409 129.553 104.753 121.792 111.297 124.361C113.167 125.087 114.707 126.873 117.841 130.447C121.801 134.969 124.055 139.213 124.88 140.888C127.41 145.913 129.28 149.598 129.61 154.344C129.665 155.46 129.72 157.694 130.984 160.15C131.974 161.993 133.294 163.277 134.284 164.003C135.219 164.115 136.154 164.226 137.088 164.282Z" fill="url(#paint7_linear)"/>
<path opacity="0.3" d="M82.5361 114.646C82.811 112.245 84.1859 110.626 84.7358 109.9C89.5751 103.423 100.519 102.027 112.397 105.545C113.497 107.443 115.257 110.123 118.061 112.691C121.416 115.762 124.22 116.711 126.145 117.828C131.589 120.899 134.449 127.152 136.099 133.015C133.624 129.162 131.534 128.102 129.884 128.102C127.575 128.102 126.53 130.112 123.725 129.832C120.756 129.553 120.041 127.041 117.621 126.762C116.906 126.65 116.026 126.762 114.927 127.376C113.497 125.868 112.452 124.975 111.242 124.472C104.643 121.904 100.354 129.665 92.9297 127.934C87.1005 126.482 81.9312 120.006 82.5361 114.646Z" fill="url(#paint8_linear)"/>
<path d="M130.929 121.96C129.609 121.904 127.519 121.848 125.044 122.072C113.221 123.244 109.922 129.218 100.133 130.67C97.8232 131.005 87.5397 132.568 83.0303 126.482C79.8407 122.127 80.3356 114.646 83.8001 111.686C85.2849 110.458 86.7698 110.458 96.2284 110.57C99.8029 110.626 103.377 110.626 106.952 110.681C122.075 110.905 124.989 109.788 127.739 112.356C129.114 113.585 130.984 116.097 130.929 121.96Z" fill="url(#paint9_linear)"/>
<path d="M98.9227 72.6024C98.9227 72.6024 86.9894 69.0849 81.7102 75.1149C80.7203 76.2316 80.0054 77.6833 79.4005 80.5308C76.5409 94.8802 87.2644 103.534 83.085 111.128C81.4352 114.143 78.4656 115.036 76.3759 120.452C76.0459 121.346 74.7261 124.696 75.936 125.701C76.9808 126.594 78.6856 124.696 81.7102 125.031C84.8997 125.421 85.6696 127.934 87.8143 127.543C89.2441 127.32 89.849 126.091 91.8838 123.021C94.9083 118.61 96.3931 116.432 97.493 115.65C101.727 112.58 105.027 116.6 109.866 113.585C111.626 112.468 118.115 103.981 116.19 106.326C111.626 100.575 110.581 95.7735 110.471 92.4793C110.361 88.8501 111.406 87.2309 110.471 82.9317C110.471 82.9317 109.481 78.13 105.797 74.0541C105.302 73.4957 104.697 72.8816 98.9227 72.6024Z" fill="white"/>
<path d="M95.1284 64.73C95.2934 65.5117 96.1183 69.6434 94.4685 70.7042C94.0835 70.9276 93.4236 71.0392 92.0488 71.3184C91.1689 71.4859 90.399 71.5976 89.8491 71.6534C89.9041 72.3234 90.1791 73.4959 90.949 74.5009C93.1487 77.3485 97.5481 76.6226 98.208 76.511C100.408 76.1201 102.607 75.3943 103.157 75.0035C103.982 74.3335 104.587 73.8868 104.972 73.3843C104.092 72.9376 102.387 71.8767 101.233 71.4859C100.353 71.2067 99.5278 71.0392 98.8129 70.8717C98.7029 70.0901 98.593 69.2525 98.428 68.4709C97.2731 67.2425 96.1733 66.0142 95.1284 64.73Z" fill="url(#paint10_linear)"/>
<path d="M95.0183 66.7958C95.0183 66.7958 95.2933 69.8108 98.2079 70.3692C100.793 70.8717 102.772 64.5066 101.397 62.8316C100.957 62.2733 99.8576 61.7708 98.9228 61.7708C98.2629 61.7708 96.0082 62.6641 95.6783 64.9533C95.2383 64.4508 94.6884 64.3391 94.4134 64.5625C94.0835 64.8416 94.2485 65.5675 94.3035 65.735C94.4684 66.2933 94.8534 66.6283 95.0183 66.7958Z" fill="url(#paint11_linear)"/>
<path d="M116.246 106.382C115.696 105.712 115.201 104.986 114.761 104.372C112.232 103.535 110.087 103.2 108.327 103.088C104.368 102.92 102.223 103.814 99.5284 102.195C96.4488 100.352 96.9987 97.7279 94.0841 96.2762C91.0045 94.7687 88.8049 96.4995 85.7803 95.9412C83.9655 95.6062 81.7658 94.3778 79.5661 90.8044C81.2709 99.4029 86.2752 105.545 83.1406 111.128C81.4909 114.143 78.5213 115.036 76.4316 120.452C76.1016 121.346 74.7818 124.696 75.9916 125.701C77.0365 126.594 78.7412 124.696 81.7658 125.031C84.9554 125.422 85.7253 127.934 87.87 127.543C89.2998 127.32 89.9047 126.092 91.9394 123.021C94.964 118.61 96.4488 116.432 97.5486 115.651C101.783 112.58 105.083 116.6 109.922 113.585C111.627 112.524 118.116 104.037 116.246 106.382Z" fill="url(#paint12_linear)"/>
<path d="M119.82 107.833L92.7639 109.174C92.379 109.174 92.0491 109.397 91.8291 109.732L91.0592 110.96C90.6742 111.574 91.1142 112.356 91.8291 112.3L120.48 111.184L119.82 107.833Z" fill="url(#paint13_linear)"/>
<path d="M147.976 92.5352L120.04 93.0935C119.215 93.0935 118.445 93.5402 118.06 94.3218L108.382 111.63L137.913 110.458C138.738 110.402 139.452 109.955 139.892 109.285L148.856 94.0985C149.186 93.3168 148.691 92.5352 147.976 92.5352Z" fill="url(#paint14_linear)"/>
<path opacity="0.3" d="M118.006 94.266C118.391 93.5401 119.161 93.0934 119.986 93.0376H120.591C120.701 93.9309 120.976 94.7685 121.526 95.4943C123.23 97.616 126.09 96.276 128.235 98.5652C130.599 101.022 128.4 103.925 130.489 106.214C132.689 108.615 136.264 106.661 140.388 108.224L139.783 109.229C139.343 109.955 138.628 110.402 137.803 110.402L108.272 111.575L118.006 94.266Z" fill="url(#paint15_linear)"/>
<path d="M94.9639 106.884C95.2938 105.935 95.6788 104.986 96.0088 104.037C92.1043 102.976 86.715 101.357 81.2158 99.3469C80.3359 99.0119 79.3461 98.621 78.9611 97.7277C78.0262 95.1593 84.0204 92.4793 86.3301 86.7842C88.4748 81.5358 87.3199 74.2774 84.7903 73.4399C79.566 71.6532 61.0886 94.9918 67.6877 104.819C71.5371 110.458 83.0305 111.351 94.9639 106.884Z" fill="white"/>
<path d="M96.0634 104.093C98.483 102.753 101.453 104.149 101.618 104.204C102.168 104.484 102.937 104.93 103.707 105.712C103.817 105.824 104.862 107.331 104.477 107.778C104.147 108.169 102.992 107.834 101.508 106.94C100.903 106.829 100.023 106.773 98.9229 106.884C96.9432 107.052 96.0633 107.722 95.3484 107.164C94.7985 106.773 94.6336 105.935 94.8536 105.265C95.0185 104.651 95.6234 104.316 96.0634 104.093Z" fill="url(#paint16_linear)"/>
</g>
<defs>
<linearGradient id="paint0_linear" x1="99.5" y1="-1.4331" x2="99.5" y2="196" gradientUnits="userSpaceOnUse">
<stop offset="0.00126103" stop-color="#275C9A" stop-opacity="0.06"/>
<stop offset="1" stop-color="#275C9A" stop-opacity="0.05"/>
</linearGradient>
<linearGradient id="paint1_linear" x1="110.525" y1="48.0424" x2="33.7118" y2="99.4307" gradientUnits="userSpaceOnUse">
<stop stop-color="#311944"/>
<stop offset="1" stop-color="#6B3976"/>
</linearGradient>
<linearGradient id="paint2_linear" x1="137.361" y1="175.548" x2="137.361" y2="165.232" gradientUnits="userSpaceOnUse">
<stop stop-color="#D600C9"/>
<stop offset="1" stop-color="#FF22B3"/>
</linearGradient>
<linearGradient id="paint3_linear" x1="139.484" y1="175.73" x2="120.732" y2="120.322" gradientUnits="userSpaceOnUse">
<stop stop-color="#FFC444"/>
<stop offset="0.9964" stop-color="#F36F56"/>
</linearGradient>
<linearGradient id="paint4_linear" x1="139.392" y1="154.338" x2="139.392" y2="146.034" gradientUnits="userSpaceOnUse">
<stop stop-color="#D600C9"/>
<stop offset="1" stop-color="#FF22B3"/>
</linearGradient>
<linearGradient id="paint5_linear" x1="146.176" y1="167.678" x2="135.66" y2="136.605" gradientUnits="userSpaceOnUse">
<stop stop-color="#FFC444"/>
<stop offset="0.9964" stop-color="#F36F56"/>
</linearGradient>
<linearGradient id="paint6_linear" x1="133.567" y1="115.166" x2="125.706" y2="159.927" gradientUnits="userSpaceOnUse">
<stop stop-color="#AB316D"/>
<stop offset="1" stop-color="#792D3D"/>
</linearGradient>
<linearGradient id="paint7_linear" x1="122.788" y1="168.262" x2="111.632" y2="133.487" gradientUnits="userSpaceOnUse">
<stop stop-color="#AB316D"/>
<stop offset="1" stop-color="#792D3D"/>
</linearGradient>
<linearGradient id="paint8_linear" x1="122.787" y1="168.262" x2="111.631" y2="133.487" gradientUnits="userSpaceOnUse">
<stop stop-color="#AB316D"/>
<stop offset="1" stop-color="#792D3D"/>
</linearGradient>
<linearGradient id="paint9_linear" x1="107.515" y1="110.644" x2="99.6722" y2="155.302" gradientUnits="userSpaceOnUse">
<stop stop-color="#AB316D"/>
<stop offset="1" stop-color="#792D3D"/>
</linearGradient>
<linearGradient id="paint10_linear" x1="95.3952" y1="81.4541" x2="99.9868" y2="60.9295" gradientUnits="userSpaceOnUse">
<stop stop-color="#FFC444"/>
<stop offset="0.9964" stop-color="#F36F56"/>
</linearGradient>
<linearGradient id="paint11_linear" x1="98.4186" y1="63.1407" x2="93.1546" y2="89.8447" gradientUnits="userSpaceOnUse">
<stop stop-color="#FFC444"/>
<stop offset="0.9964" stop-color="#F36F56"/>
</linearGradient>
<linearGradient id="paint12_linear" x1="96.0349" y1="127.593" x2="96.0349" y2="90.8061" gradientUnits="userSpaceOnUse">
<stop stop-color="#D600C9"/>
<stop offset="1" stop-color="#FF22B3"/>
</linearGradient>
<linearGradient id="paint13_linear" x1="120.475" y1="110.066" x2="90.8627" y2="110.066" gradientUnits="userSpaceOnUse">
<stop stop-color="#AA80F9"/>
<stop offset="0.9964" stop-color="#6165D7"/>
</linearGradient>
<linearGradient id="paint14_linear" x1="148.953" y1="102.073" x2="108.308" y2="102.073" gradientUnits="userSpaceOnUse">
<stop stop-color="#AA80F9"/>
<stop offset="0.9964" stop-color="#6165D7"/>
</linearGradient>
<linearGradient id="paint15_linear" x1="139.462" y1="91.1253" x2="119.787" y2="110.349" gradientUnits="userSpaceOnUse">
<stop stop-color="#40447E"/>
<stop offset="0.9964" stop-color="#3C3B6B"/>
</linearGradient>
<linearGradient id="paint16_linear" x1="102.041" y1="104.141" x2="92.073" y2="113.393" gradientUnits="userSpaceOnUse">
<stop stop-color="#FFC444"/>
<stop offset="0.9964" stop-color="#F36F56"/>
</linearGradient>
<clipPath id="clip0">
<rect width="200" height="200" fill="white"/>
</clipPath>
</defs>
</svg>
