<svg width="593" height="500" viewBox="0 0 593 500" fill="none" xmlns="http://www.w3.org/2000/svg">
<path d="M157.014 485.272C157.014 485.272 176.76 494.223 177.155 495.671C177.418 497.119 164.386 495.145 159.12 495.408C153.854 495.671 149.378 494.092 149.905 491.854C150.432 489.616 152.275 483.955 152.275 483.955L157.014 485.272Z" fill="url(#paint0_linear)"/>
<path d="M157.672 477.899L156.488 486.851C156.488 486.851 153.328 487.904 151.222 486.588L150.3 476.846L157.672 477.899Z" fill="url(#paint1_linear)"/>
<path d="M64.7329 478.162L62.495 481.848C61.8368 482.901 61.7052 484.086 61.9684 485.271C62.7583 488.299 64.338 494.354 65.1279 495.934C66.0494 498.04 78.8187 499.357 78.8187 499.357C78.8187 499.357 80.0035 497.777 77.239 495.802C74.6061 493.828 72.8948 493.564 71.9733 490.668C71.0518 487.772 70.3936 479.742 70.3936 479.742L64.7329 478.162Z" fill="url(#paint2_linear)"/>
<path d="M74.2114 468.815C73.4215 469.474 69.209 481.98 69.209 481.98C69.209 481.98 67.8925 483.691 65.3913 481.19C62.8901 478.689 64.2066 480.005 64.2066 480.005L64.7331 467.762L74.2114 468.815Z" fill="url(#paint3_linear)"/>
<path d="M168.598 299.26C169.652 325.852 169.652 354.681 168.204 385.486C166.492 420.108 163.069 452.228 158.725 481.321C157.146 481.321 155.434 481.321 153.591 481.321C152.406 481.321 151.222 481.19 150.168 481.19C147.931 475.134 145.298 467.236 142.797 457.757C140.295 447.753 138.716 438.932 137.662 430.376C133.845 400.361 138.321 397.728 135.293 375.481C132.528 355.734 128.711 354.945 124.103 327.036C119.101 296.627 122.787 292.151 124.63 290.44C132.133 283.068 150.037 287.939 168.598 299.26Z" fill="url(#paint4_linear)"/>
<path opacity="0.3" d="M124.498 290.177C131.738 283.463 148.457 287.544 165.965 297.681C145.692 319.533 143.586 333.751 145.956 342.966C148.72 353.365 157.014 356.393 157.014 367.714C157.014 381.668 144.376 385.354 144.639 400.23C144.771 409.972 150.3 409.972 151.616 421.951C153.196 436.3 145.956 441.171 148.325 451.702C149.378 456.31 152.275 462.234 160.436 468.289C159.91 472.633 159.252 476.978 158.593 481.19C157.014 481.19 155.302 481.19 153.459 481.19C152.275 481.19 151.09 481.059 150.037 481.059C147.799 475.003 145.166 467.105 142.665 457.626C140.163 447.621 138.584 438.801 137.531 430.245C133.713 400.23 138.189 397.597 135.161 375.35C132.397 355.603 128.579 354.813 123.971 326.905C118.969 296.364 122.655 291.757 124.498 290.177Z" fill="url(#paint5_linear)"/>
<path d="M156.094 298.734C138.717 324.272 119.892 355.998 103.042 393.911C90.4043 422.609 81.1893 449.596 74.3439 473.555C73.4224 473.95 71.3161 474.871 68.5516 474.476C64.734 473.95 62.4961 471.58 61.9695 470.922C59.205 453.677 59.4683 439.196 60.3898 428.665C61.048 421.951 62.1011 410.761 66.3137 396.807C71.1845 381.274 74.4756 380.484 80.6628 364.028C87.1132 347.047 85.5335 342.702 91.8524 321.376C94.3536 312.556 98.6977 299.524 105.806 283.99C122.657 288.992 139.375 293.863 156.094 298.734Z" fill="url(#paint6_linear)"/>
<path d="M227.048 262.664C226.916 268.851 216.78 274.38 208.486 276.091C189.398 280.04 167.151 266.218 156.488 250.816C154.381 247.788 152.143 244.102 151.485 244.365C150.169 245.024 161.753 263.848 166.887 285.438C169.52 296.496 168.862 301.63 173.601 308.87C174.654 310.582 175.971 312.293 175.576 314.268C174.391 319.138 163.201 320.455 155.303 321.376C147.009 322.298 139.374 322.298 131.739 322.166C119.628 322.034 118.575 321.376 115.81 322.693C107.385 326.905 107.912 336.778 101.593 338.095C96.1954 339.28 90.798 333.224 89.0867 331.381C80.135 321.508 80.5299 309.66 78.9502 297.681C75.1326 269.904 59.9937 239.495 45.2497 220.143C40.7739 214.351 37.6144 211.191 37.4828 205.794C36.8246 189.865 62.1 172.094 83.1628 170.119C88.955 169.592 99.2232 169.724 108.965 170.646C112.782 171.041 116.995 171.567 121.339 172.357C132.134 174.2 139.506 175.516 147.141 178.939C177.945 192.893 171.232 224.224 204.537 245.813C216.253 253.317 227.18 256.213 227.048 262.664Z" fill="white"/>
<path d="M222.702 273.722C222.702 273.722 230.601 272.932 235.208 270.957C239.816 268.983 242.843 271.747 242.449 273.853C242.054 275.828 234.287 278.592 231.259 278.724C228.231 278.724 222.702 273.722 222.702 273.722Z" fill="url(#paint7_linear)"/>
<path d="M54.0696 315.584C45.6445 316.374 26.688 316.768 13.2605 304.394C-9.11874 283.858 1.93924 244.497 9.57451 227.646C18.3946 208.295 32.6119 197.369 41.1687 190.787C51.8317 182.625 58.2822 177.622 66.1808 178.675C86.4537 181.572 100.671 223.039 89.4815 235.018C85.7955 238.968 82.2411 236.73 71.7097 240.153C68.287 241.206 42.6168 249.499 38.2726 268.324C35.2448 281.488 43.1433 297.022 57.3607 307.422C56.1759 310.055 55.1228 312.819 54.0696 315.584Z" fill="white"/>
<path d="M66.1807 178.544C66.1807 178.544 76.712 164.459 124.367 175.516L129.369 191.972C130.027 194.078 128.316 196.053 126.21 195.658C113.835 194.078 79.6082 188.417 66.1807 178.544Z" fill="url(#paint8_linear)"/>
<path d="M100.802 153.664C100.802 153.664 99.4859 161.036 96.4581 166.301C93.6936 171.04 82.3723 172.752 80.0028 173.542C77.6332 174.331 83.5571 178.412 89.8759 179.992C96.1948 181.44 114.625 182.362 118.311 180.387C121.865 178.412 115.941 177.754 111.597 175.516C107.253 173.278 105.805 163.932 107.121 159.982C108.438 156.165 100.802 153.664 100.802 153.664Z" fill="url(#paint9_linear)"/>
<path d="M112.783 151.557C117.391 148.266 118.575 139.446 116.074 137.471C115.284 136.945 114.626 137.208 104.358 141.289C99.224 143.395 96.7227 144.448 95.9329 146.686C95.4063 148.134 95.5379 149.977 96.0645 151.425C96.3278 152.215 96.986 153.137 98.1708 154.98C99.2239 156.559 99.2239 156.559 99.4872 156.954C100.277 158.007 101.857 159.982 104.753 162.088C104.885 161.298 105.148 160.245 105.543 159.192C105.674 158.797 106.333 157.086 107.386 155.769C109.229 153.268 111.335 152.61 112.783 151.557Z" fill="url(#paint10_linear)"/>
<path d="M101.066 159.983C101.066 159.983 104.094 164.459 109.623 163.801C114.625 163.274 114.757 152.085 111.466 149.847C110.413 149.057 108.175 148.925 106.464 149.452C105.41 149.847 105.147 150.242 103.436 150.768C101.856 151.295 101.461 151.031 101.066 151.558C100.54 152.085 100.145 153.269 101.198 156.56C100.145 155.639 99.0916 155.376 98.3017 155.771C98.1701 155.902 97.9068 156.034 97.6435 156.429C97.1169 157.614 98.3017 159.193 101.066 159.983Z" fill="url(#paint11_linear)"/>
<path opacity="0.3" d="M148.325 308.475C138.847 302.42 137.399 296.364 126.736 292.283C112.913 287.017 106.2 293.731 99.3543 288.334C91.1924 281.752 98.4328 270.43 92.2456 250.684C91.1924 247.393 83.2939 221.854 65.1272 218.695C56.7021 217.247 45.5125 220.406 41.2999 227.647C38.0088 233.307 41.0366 237.388 36.9557 243.575C32.8748 249.763 28.004 248.315 22.7383 253.449C14.4449 261.61 13.2601 278.856 20.7637 288.597C24.3181 293.073 28.7939 294.916 37.3506 298.339C42.6163 300.445 47.3555 301.63 51.568 302.42C41.1683 292.415 35.6393 279.514 38.2721 268.324C41.0366 256.608 51.963 248.973 60.783 244.497C69.6031 260.952 76.7118 279.909 79.213 297.944C80.7927 309.923 80.3977 321.771 89.3494 331.644C91.0608 333.487 96.4581 339.543 101.855 338.358C108.174 337.042 107.648 327.037 116.073 322.956C118.837 321.639 119.759 322.166 132.002 322.429C139.637 322.561 147.272 322.561 155.566 321.639C162.543 320.85 172.153 319.665 175.049 315.979C162.279 315.452 153.986 312.029 148.325 308.475Z" fill="url(#paint12_linear)"/>
<path opacity="0.3" d="M200.062 261.742C186.108 258.583 180.579 258.714 173.734 253.185C162.281 243.97 160.569 230.016 153.856 230.148C150.696 230.28 148.195 233.439 146.352 236.598C148.063 239.231 149.775 241.864 151.355 244.497C151.355 244.365 151.354 244.365 151.486 244.234C152.013 243.97 154.382 247.656 156.489 250.684C167.02 266.086 189.268 279.909 208.487 275.96C214.016 274.775 220.335 272.01 224.021 268.324C214.543 265.296 206.381 263.19 200.062 261.742Z" fill="url(#paint13_linear)"/>
<path d="M30.768 342.439L28.925 338.226C25.8973 331.512 29.0567 323.745 36.0337 320.849L307.086 208.69L318.407 236.73L48.8031 349.284C41.826 352.18 33.7958 349.152 30.768 342.439Z" fill="url(#paint14_linear)"/>
<path d="M576.822 103.771C547.334 21.4944 458.739 -21.2894 378.305 10.568C296.423 42.9521 256.931 138.919 290.895 222.512C324.068 304.131 414.112 341.122 491.649 307.554C567.87 274.511 605.783 184.204 576.822 103.771ZM314.59 212.771C286.419 142.869 319.329 62.5668 387.783 35.3168C455.184 8.46175 529.694 44.0052 554.706 112.986C579.192 180.782 547.334 256.871 483.093 284.648C417.666 312.819 342.103 281.357 314.59 212.771Z" fill="url(#paint15_linear)"/>
<path opacity="0.3" d="M306.955 208.822L272.333 223.171C271.016 234.755 266.804 241.732 262.46 246.208C245.873 262.795 220.334 248.973 188.476 269.641C172.548 280.04 176.234 285.306 161.095 292.941C136.083 305.579 122.787 292.678 100.539 304.131C78.16 315.715 77.7651 336.12 64.4692 336.647C58.8086 336.91 51.0417 333.487 41.4318 318.612L35.7712 320.981C28.7941 323.877 25.7664 331.644 28.6625 338.358L30.5055 342.571C33.5333 349.284 41.5635 352.312 48.4089 349.416L318.276 236.862L306.955 208.822Z" fill="#D8DEE8"/>
<path opacity="0.1" d="M490.728 295.574C423.196 324.799 345 292.283 316.302 221.196C287.077 148.792 321.304 65.5944 392.128 37.4229C461.898 9.64635 538.909 46.5063 564.843 117.988C590.25 188.154 557.208 266.876 490.728 295.574Z" fill="white"/>
<path d="M583.01 110.485C553.522 28.2082 464.926 -14.5756 384.493 17.2819C302.611 49.666 263.118 145.633 297.082 229.226C330.256 310.845 420.299 347.836 497.837 314.267C573.926 281.225 611.839 190.918 583.01 110.485ZM320.646 219.485C292.475 149.451 325.517 69.2807 393.839 42.0307C461.24 15.1756 535.75 50.7191 560.762 119.7C585.247 187.496 553.39 263.585 489.148 291.362C423.854 319.533 348.159 288.07 320.646 219.485Z" fill="url(#paint16_linear)"/>
<path d="M575.111 113.776C547.203 36.107 463.61 -4.04399 387.784 26.1021C310.641 56.7748 273.518 147.082 305.376 225.804C336.575 302.815 421.484 337.963 494.677 306.237C566.686 275.038 602.493 189.734 575.111 113.776ZM320.646 219.485C292.475 149.451 325.517 69.2809 393.839 42.0309C461.24 15.1758 535.75 50.7193 560.762 119.7C585.247 187.496 553.39 263.585 489.148 291.362C423.854 319.533 348.159 288.071 320.646 219.485Z" fill="url(#paint17_linear)"/>
<path d="M54.7275 313.741L56.5705 309.134C56.5705 309.134 59.5983 309.265 62.0995 307.554C63.416 306.633 65.9172 306.238 66.5754 306.501C67.2336 306.633 69.9981 306.633 66.9703 308.081C63.9425 309.529 63.9425 310.582 65.2589 311.767C66.5754 312.951 71.3145 315.453 73.0258 315.584C74.7372 315.716 71.5778 318.349 69.8664 318.744C68.1551 319.139 65.2589 319.534 61.7046 317.427C60.5198 316.637 54.7275 313.741 54.7275 313.741Z" fill="url(#paint18_linear)"/>
<defs>
<linearGradient id="paint0_linear" x1="166.566" y1="454.064" x2="161.658" y2="516.534" gradientUnits="userSpaceOnUse">
<stop stop-color="#311944"/>
<stop offset="1" stop-color="#A03976"/>
</linearGradient>
<linearGradient id="paint1_linear" x1="153.895" y1="488.843" x2="154.788" y2="424.144" gradientUnits="userSpaceOnUse">
<stop stop-color="#FFC444"/>
<stop offset="0.9964" stop-color="#F36F56"/>
</linearGradient>
<linearGradient id="paint2_linear" x1="73.8111" y1="446.776" x2="68.903" y2="509.245" gradientUnits="userSpaceOnUse">
<stop stop-color="#311944"/>
<stop offset="1" stop-color="#A03976"/>
</linearGradient>
<linearGradient id="paint3_linear" x1="68.8893" y1="487.67" x2="69.7816" y2="422.968" gradientUnits="userSpaceOnUse">
<stop stop-color="#FFC444"/>
<stop offset="0.9964" stop-color="#F36F56"/>
</linearGradient>
<linearGradient id="paint4_linear" x1="169.336" y1="384.03" x2="121.499" y2="384.03" gradientUnits="userSpaceOnUse">
<stop stop-color="#AA80F9"/>
<stop offset="0.9964" stop-color="#6165D7"/>
</linearGradient>
<linearGradient id="paint5_linear" x1="169.336" y1="384.033" x2="121.499" y2="384.033" gradientUnits="userSpaceOnUse">
<stop stop-color="#AA80F9"/>
<stop offset="0.9964" stop-color="#6165D7"/>
</linearGradient>
<linearGradient id="paint6_linear" x1="156.057" y1="379.316" x2="59.7553" y2="379.316" gradientUnits="userSpaceOnUse">
<stop stop-color="#AA80F9"/>
<stop offset="0.9964" stop-color="#6165D7"/>
</linearGradient>
<linearGradient id="paint7_linear" x1="240.472" y1="269.277" x2="225.592" y2="278.343" gradientUnits="userSpaceOnUse">
<stop stop-color="#FFC444"/>
<stop offset="0.9964" stop-color="#F36F56"/>
</linearGradient>
<linearGradient id="paint8_linear" x1="66.7545" y1="195.014" x2="124.994" y2="177.486" gradientUnits="userSpaceOnUse">
<stop stop-color="#AA80F9"/>
<stop offset="0.9964" stop-color="#6165D7"/>
</linearGradient>
<linearGradient id="paint9_linear" x1="108.368" y1="191.068" x2="88.2573" y2="158.059" gradientUnits="userSpaceOnUse">
<stop stop-color="#FFC444"/>
<stop offset="0.9964" stop-color="#F36F56"/>
</linearGradient>
<linearGradient id="paint10_linear" x1="94.6944" y1="180.437" x2="109.008" y2="137.981" gradientUnits="userSpaceOnUse">
<stop offset="0.00359712" stop-color="#E38DDD"/>
<stop offset="1" stop-color="#9571F6"/>
</linearGradient>
<linearGradient id="paint11_linear" x1="125.906" y1="167.34" x2="92.1902" y2="146.734" gradientUnits="userSpaceOnUse">
<stop stop-color="#FFC444"/>
<stop offset="0.9964" stop-color="#F36F56"/>
</linearGradient>
<linearGradient id="paint12_linear" x1="21.5518" y1="296.117" x2="156.689" y2="255.446" gradientUnits="userSpaceOnUse">
<stop stop-color="#AA80F9"/>
<stop offset="0.9964" stop-color="#6165D7"/>
</linearGradient>
<linearGradient id="paint13_linear" x1="153.857" y1="261.377" x2="216.208" y2="242.612" gradientUnits="userSpaceOnUse">
<stop stop-color="#AA80F9"/>
<stop offset="0.9964" stop-color="#6165D7"/>
</linearGradient>
<linearGradient id="paint14_linear" x1="173.096" y1="350.385" x2="173.096" y2="208.69" gradientUnits="userSpaceOnUse">
<stop stop-color="#AE42FE"/>
<stop offset="1" stop-color="#789AFF"/>
</linearGradient>
<linearGradient id="paint15_linear" x1="432.633" y1="319.896" x2="432.633" y2="-0.0348779" gradientUnits="userSpaceOnUse">
<stop stop-color="#A3C0FF"/>
<stop offset="1" stop-color="#E39DFF"/>
</linearGradient>
<linearGradient id="paint16_linear" x1="438.779" y1="326.627" x2="438.779" y2="6.71366" gradientUnits="userSpaceOnUse">
<stop stop-color="#AE42FE"/>
<stop offset="1" stop-color="#789AFF"/>
</linearGradient>
<linearGradient id="paint17_linear" x1="439.135" y1="317.892" x2="439.135" y2="16.056" gradientUnits="userSpaceOnUse">
<stop stop-color="#AE42FE"/>
<stop offset="1" stop-color="#789AFF"/>
</linearGradient>
<linearGradient id="paint18_linear" x1="68.9975" y1="327.137" x2="60.9317" y2="306.484" gradientUnits="userSpaceOnUse">
<stop stop-color="#FFC444"/>
<stop offset="0.9964" stop-color="#F36F56"/>
</linearGradient>
</defs>
</svg>
